G75*
G70*
%OFA0B0*%
%FSLAX24Y24*%
%IPPOS*%
%LPD*%
%AMOC8*
5,1,8,0,0,1.08239X$1,22.5*
%
%ADD10C,0.1655*%
%ADD11C,0.0705*%
%ADD12C,0.0789*%
%ADD13R,0.1379X0.0592*%
%ADD14R,0.0277X0.0434*%
%ADD15R,0.0830X0.4330*%
%ADD16C,0.0476*%
%ADD17R,0.0580X0.0580*%
D10*
X007116Y010493D03*
X007077Y021792D03*
D11*
X012588Y021792D03*
X012627Y010493D03*
D12*
X009710Y008731D02*
X010020Y008094D01*
X009121Y007656D02*
X008811Y008293D01*
X009082Y018955D02*
X008771Y019592D01*
X009670Y020030D02*
X009981Y019393D01*
D13*
X014849Y024052D03*
X017869Y024002D03*
D14*
X017869Y023372D03*
X017869Y024632D03*
X014849Y024682D03*
X014849Y023422D03*
D15*
X015054Y011322D03*
X018054Y011322D03*
D16*
X004556Y007147D03*
X003816Y008956D03*
X005216Y010456D03*
X003716Y011956D03*
X004556Y013840D03*
X007115Y013840D03*
X008216Y012056D03*
X008885Y010456D03*
X008116Y008956D03*
X007115Y007147D03*
X012824Y009312D03*
X014299Y010252D03*
X012824Y011674D03*
X016819Y010282D03*
X019549Y009722D03*
X019549Y011347D03*
X019549Y012972D03*
X015809Y017232D03*
X016139Y018932D03*
X015349Y020892D03*
X012785Y020611D03*
X012785Y022974D03*
X008845Y021755D03*
X008077Y020255D03*
X007076Y018446D03*
X004517Y018446D03*
X003777Y020255D03*
X005177Y021755D03*
X003677Y023255D03*
X004517Y025139D03*
X007076Y025139D03*
X008177Y023355D03*
X001269Y022974D03*
X001269Y020611D03*
X001308Y011674D03*
X001308Y009312D03*
X016779Y023992D03*
X017999Y022032D03*
X018209Y017872D03*
D17*
X018349Y025222D03*
X015199Y025252D03*
M02*
