G75*
G70*
%OFA0B0*%
%FSLAX24Y24*%
%IPPOS*%
%LPD*%
%AMOC8*
5,1,8,0,0,1.08239X$1,22.5*
%
%ADD10C,0.0050*%
%ADD11C,0.0000*%
%ADD12C,0.0160*%
%ADD13C,0.0010*%
%ADD14C,0.0030*%
%ADD15C,0.0020*%
D10*
X000816Y010068D02*
X003572Y007706D01*
X008690Y007706D01*
X013415Y010068D01*
X013415Y013218D01*
X008690Y015580D01*
X003572Y015580D01*
X000816Y013218D01*
X000816Y010068D01*
X003533Y018966D02*
X008651Y018966D01*
X013375Y021328D01*
X013375Y024478D01*
X008651Y026840D01*
X003533Y026840D01*
X000777Y024478D01*
X000777Y021328D01*
X003533Y018966D01*
D11*
X006290Y022903D02*
X006292Y022959D01*
X006298Y023014D01*
X006308Y023068D01*
X006321Y023122D01*
X006339Y023175D01*
X006360Y023226D01*
X006384Y023276D01*
X006412Y023324D01*
X006444Y023370D01*
X006478Y023414D01*
X006516Y023455D01*
X006556Y023493D01*
X006599Y023528D01*
X006644Y023560D01*
X006692Y023589D01*
X006741Y023615D01*
X006792Y023637D01*
X006844Y023655D01*
X006898Y023669D01*
X006953Y023680D01*
X007008Y023687D01*
X007063Y023690D01*
X007119Y023689D01*
X007174Y023684D01*
X007229Y023675D01*
X007283Y023663D01*
X007336Y023646D01*
X007388Y023626D01*
X007438Y023602D01*
X007486Y023575D01*
X007533Y023545D01*
X007577Y023511D01*
X007619Y023474D01*
X007657Y023434D01*
X007694Y023392D01*
X007727Y023347D01*
X007756Y023301D01*
X007783Y023252D01*
X007805Y023201D01*
X007825Y023149D01*
X007840Y023095D01*
X007852Y023041D01*
X007860Y022986D01*
X007864Y022931D01*
X007864Y022875D01*
X007860Y022820D01*
X007852Y022765D01*
X007840Y022711D01*
X007825Y022657D01*
X007805Y022605D01*
X007783Y022554D01*
X007756Y022505D01*
X007727Y022459D01*
X007694Y022414D01*
X007657Y022372D01*
X007619Y022332D01*
X007577Y022295D01*
X007533Y022261D01*
X007486Y022231D01*
X007438Y022204D01*
X007388Y022180D01*
X007336Y022160D01*
X007283Y022143D01*
X007229Y022131D01*
X007174Y022122D01*
X007119Y022117D01*
X007063Y022116D01*
X007008Y022119D01*
X006953Y022126D01*
X006898Y022137D01*
X006844Y022151D01*
X006792Y022169D01*
X006741Y022191D01*
X006692Y022217D01*
X006644Y022246D01*
X006599Y022278D01*
X006556Y022313D01*
X006516Y022351D01*
X006478Y022392D01*
X006444Y022436D01*
X006412Y022482D01*
X006384Y022530D01*
X006360Y022580D01*
X006339Y022631D01*
X006321Y022684D01*
X006308Y022738D01*
X006298Y022792D01*
X006292Y022847D01*
X006290Y022903D01*
X012275Y022903D02*
X012277Y022938D01*
X012283Y022973D01*
X012293Y023006D01*
X012306Y023039D01*
X012323Y023070D01*
X012343Y023098D01*
X012367Y023124D01*
X012393Y023148D01*
X012421Y023168D01*
X012452Y023185D01*
X012485Y023198D01*
X012518Y023208D01*
X012553Y023214D01*
X012588Y023216D01*
X012623Y023214D01*
X012658Y023208D01*
X012691Y023198D01*
X012724Y023185D01*
X012755Y023168D01*
X012783Y023148D01*
X012809Y023124D01*
X012833Y023098D01*
X012853Y023070D01*
X012870Y023039D01*
X012883Y023006D01*
X012893Y022973D01*
X012899Y022938D01*
X012901Y022903D01*
X012899Y022868D01*
X012893Y022833D01*
X012883Y022800D01*
X012870Y022767D01*
X012853Y022736D01*
X012833Y022708D01*
X012809Y022682D01*
X012783Y022658D01*
X012755Y022638D01*
X012724Y022621D01*
X012691Y022608D01*
X012658Y022598D01*
X012623Y022592D01*
X012588Y022590D01*
X012553Y022592D01*
X012518Y022598D01*
X012485Y022608D01*
X012452Y022621D01*
X012421Y022638D01*
X012393Y022658D01*
X012367Y022682D01*
X012343Y022708D01*
X012323Y022736D01*
X012306Y022767D01*
X012293Y022800D01*
X012283Y022833D01*
X012277Y022868D01*
X012275Y022903D01*
X016327Y012710D02*
X016329Y012760D01*
X016335Y012810D01*
X016345Y012859D01*
X016359Y012907D01*
X016376Y012954D01*
X016397Y012999D01*
X016422Y013043D01*
X016450Y013084D01*
X016482Y013123D01*
X016516Y013160D01*
X016553Y013194D01*
X016593Y013224D01*
X016635Y013251D01*
X016679Y013275D01*
X016725Y013296D01*
X016772Y013312D01*
X016820Y013325D01*
X016870Y013334D01*
X016919Y013339D01*
X016970Y013340D01*
X017020Y013337D01*
X017069Y013330D01*
X017118Y013319D01*
X017166Y013304D01*
X017212Y013286D01*
X017257Y013264D01*
X017300Y013238D01*
X017341Y013209D01*
X017380Y013177D01*
X017416Y013142D01*
X017448Y013104D01*
X017478Y013064D01*
X017505Y013021D01*
X017528Y012977D01*
X017547Y012931D01*
X017563Y012883D01*
X017575Y012834D01*
X017583Y012785D01*
X017587Y012735D01*
X017587Y012685D01*
X017583Y012635D01*
X017575Y012586D01*
X017563Y012537D01*
X017547Y012489D01*
X017528Y012443D01*
X017505Y012399D01*
X017478Y012356D01*
X017448Y012316D01*
X017416Y012278D01*
X017380Y012243D01*
X017341Y012211D01*
X017300Y012182D01*
X017257Y012156D01*
X017212Y012134D01*
X017166Y012116D01*
X017118Y012101D01*
X017069Y012090D01*
X017020Y012083D01*
X016970Y012080D01*
X016919Y012081D01*
X016870Y012086D01*
X016820Y012095D01*
X016772Y012108D01*
X016725Y012124D01*
X016679Y012145D01*
X016635Y012169D01*
X016593Y012196D01*
X016553Y012226D01*
X016516Y012260D01*
X016482Y012297D01*
X016450Y012336D01*
X016422Y012377D01*
X016397Y012421D01*
X016376Y012466D01*
X016359Y012513D01*
X016345Y012561D01*
X016335Y012610D01*
X016329Y012660D01*
X016327Y012710D01*
X012314Y011643D02*
X012316Y011678D01*
X012322Y011713D01*
X012332Y011746D01*
X012345Y011779D01*
X012362Y011810D01*
X012382Y011838D01*
X012406Y011864D01*
X012432Y011888D01*
X012460Y011908D01*
X012491Y011925D01*
X012524Y011938D01*
X012557Y011948D01*
X012592Y011954D01*
X012627Y011956D01*
X012662Y011954D01*
X012697Y011948D01*
X012730Y011938D01*
X012763Y011925D01*
X012794Y011908D01*
X012822Y011888D01*
X012848Y011864D01*
X012872Y011838D01*
X012892Y011810D01*
X012909Y011779D01*
X012922Y011746D01*
X012932Y011713D01*
X012938Y011678D01*
X012940Y011643D01*
X012938Y011608D01*
X012932Y011573D01*
X012922Y011540D01*
X012909Y011507D01*
X012892Y011476D01*
X012872Y011448D01*
X012848Y011422D01*
X012822Y011398D01*
X012794Y011378D01*
X012763Y011361D01*
X012730Y011348D01*
X012697Y011338D01*
X012662Y011332D01*
X012627Y011330D01*
X012592Y011332D01*
X012557Y011338D01*
X012524Y011348D01*
X012491Y011361D01*
X012460Y011378D01*
X012432Y011398D01*
X012406Y011422D01*
X012382Y011448D01*
X012362Y011476D01*
X012345Y011507D01*
X012332Y011540D01*
X012322Y011573D01*
X012316Y011608D01*
X012314Y011643D01*
X006329Y011643D02*
X006331Y011699D01*
X006337Y011754D01*
X006347Y011808D01*
X006360Y011862D01*
X006378Y011915D01*
X006399Y011966D01*
X006423Y012016D01*
X006451Y012064D01*
X006483Y012110D01*
X006517Y012154D01*
X006555Y012195D01*
X006595Y012233D01*
X006638Y012268D01*
X006683Y012300D01*
X006731Y012329D01*
X006780Y012355D01*
X006831Y012377D01*
X006883Y012395D01*
X006937Y012409D01*
X006992Y012420D01*
X007047Y012427D01*
X007102Y012430D01*
X007158Y012429D01*
X007213Y012424D01*
X007268Y012415D01*
X007322Y012403D01*
X007375Y012386D01*
X007427Y012366D01*
X007477Y012342D01*
X007525Y012315D01*
X007572Y012285D01*
X007616Y012251D01*
X007658Y012214D01*
X007696Y012174D01*
X007733Y012132D01*
X007766Y012087D01*
X007795Y012041D01*
X007822Y011992D01*
X007844Y011941D01*
X007864Y011889D01*
X007879Y011835D01*
X007891Y011781D01*
X007899Y011726D01*
X007903Y011671D01*
X007903Y011615D01*
X007899Y011560D01*
X007891Y011505D01*
X007879Y011451D01*
X007864Y011397D01*
X007844Y011345D01*
X007822Y011294D01*
X007795Y011245D01*
X007766Y011199D01*
X007733Y011154D01*
X007696Y011112D01*
X007658Y011072D01*
X007616Y011035D01*
X007572Y011001D01*
X007525Y010971D01*
X007477Y010944D01*
X007427Y010920D01*
X007375Y010900D01*
X007322Y010883D01*
X007268Y010871D01*
X007213Y010862D01*
X007158Y010857D01*
X007102Y010856D01*
X007047Y010859D01*
X006992Y010866D01*
X006937Y010877D01*
X006883Y010891D01*
X006831Y010909D01*
X006780Y010931D01*
X006731Y010957D01*
X006683Y010986D01*
X006638Y011018D01*
X006595Y011053D01*
X006555Y011091D01*
X006517Y011132D01*
X006483Y011176D01*
X006451Y011222D01*
X006423Y011270D01*
X006399Y011320D01*
X006378Y011371D01*
X006360Y011424D01*
X006347Y011478D01*
X006337Y011532D01*
X006331Y011587D01*
X006329Y011643D01*
D12*
X000580Y007470D02*
X000580Y027155D01*
X020265Y027155D01*
X020265Y007470D01*
X000580Y007470D01*
D13*
X013827Y009110D02*
X020077Y009110D01*
X020077Y025610D01*
X013827Y025610D01*
X013827Y009110D01*
D14*
X014812Y014086D02*
X014812Y014231D01*
X014860Y014280D01*
X015053Y014280D01*
X015102Y014231D01*
X015102Y014086D01*
X014812Y014086D01*
X014908Y014381D02*
X014812Y014478D01*
X015102Y014478D01*
X015102Y014574D02*
X015102Y014381D01*
X015112Y015045D02*
X014822Y015045D01*
X014822Y015191D01*
X014870Y015239D01*
X014967Y015239D01*
X015015Y015191D01*
X015015Y015045D01*
X015015Y015142D02*
X015112Y015239D01*
X015063Y015340D02*
X014967Y015340D01*
X014967Y015485D01*
X015015Y015534D01*
X015063Y015534D01*
X015112Y015485D01*
X015112Y015388D01*
X015063Y015340D01*
X014967Y015340D02*
X014870Y015437D01*
X014822Y015534D01*
X014522Y015481D02*
X014473Y015530D01*
X014522Y015481D02*
X014522Y015385D01*
X014473Y015336D01*
X014280Y015336D01*
X014232Y015385D01*
X014232Y015481D01*
X014280Y015530D01*
X014280Y015631D02*
X014232Y015679D01*
X014232Y015776D01*
X014280Y015824D01*
X014328Y015824D01*
X014522Y015631D01*
X014522Y015824D01*
X015442Y016445D02*
X015442Y016591D01*
X015490Y016639D01*
X015587Y016639D01*
X015635Y016591D01*
X015635Y016445D01*
X015732Y016445D02*
X015442Y016445D01*
X015635Y016542D02*
X015732Y016639D01*
X015587Y016740D02*
X015587Y016934D01*
X015732Y016885D02*
X015442Y016885D01*
X015587Y016740D01*
X015822Y016414D02*
X015870Y016414D01*
X016063Y016220D01*
X016112Y016220D01*
X016112Y016119D02*
X016015Y016022D01*
X016015Y016071D02*
X016015Y015925D01*
X016112Y015925D02*
X015822Y015925D01*
X015822Y016071D01*
X015870Y016119D01*
X015967Y016119D01*
X016015Y016071D01*
X015822Y016220D02*
X015822Y016414D01*
X016682Y016585D02*
X016923Y016585D01*
X016972Y016634D01*
X016972Y016731D01*
X016923Y016779D01*
X016682Y016779D01*
X016730Y016880D02*
X016682Y016928D01*
X016682Y017025D01*
X016730Y017074D01*
X016778Y017074D01*
X016972Y016880D01*
X016972Y017074D01*
X018070Y018155D02*
X018263Y018155D01*
X018312Y018204D01*
X018312Y018301D01*
X018263Y018349D01*
X018263Y018450D02*
X018312Y018498D01*
X018312Y018595D01*
X018263Y018644D01*
X018167Y018644D01*
X018118Y018595D01*
X018118Y018547D01*
X018167Y018450D01*
X018022Y018450D01*
X018022Y018644D01*
X018070Y018349D02*
X018022Y018301D01*
X018022Y018204D01*
X018070Y018155D01*
X019052Y018058D02*
X019342Y018058D01*
X019342Y018154D02*
X019342Y017961D01*
X019342Y017860D02*
X019245Y017763D01*
X019245Y017811D02*
X019245Y017666D01*
X019342Y017666D02*
X019052Y017666D01*
X019052Y017811D01*
X019100Y017860D01*
X019197Y017860D01*
X019245Y017811D01*
X019148Y017961D02*
X019052Y018058D01*
X019202Y016894D02*
X019250Y016797D01*
X019347Y016700D01*
X019347Y016845D01*
X019395Y016894D01*
X019443Y016894D01*
X019492Y016845D01*
X019492Y016748D01*
X019443Y016700D01*
X019347Y016700D01*
X019443Y016599D02*
X019492Y016551D01*
X019492Y016454D01*
X019443Y016405D01*
X019250Y016405D01*
X019202Y016454D01*
X019202Y016551D01*
X019250Y016599D01*
X019320Y015894D02*
X019368Y015894D01*
X019417Y015845D01*
X019465Y015894D01*
X019513Y015894D01*
X019562Y015845D01*
X019562Y015748D01*
X019513Y015700D01*
X019513Y015599D02*
X019562Y015551D01*
X019562Y015454D01*
X019513Y015405D01*
X019320Y015405D01*
X019272Y015454D01*
X019272Y015551D01*
X019320Y015599D01*
X019320Y015700D02*
X019272Y015748D01*
X019272Y015845D01*
X019320Y015894D01*
X019417Y015845D02*
X019417Y015797D01*
X019462Y014524D02*
X019462Y014331D01*
X019462Y014428D02*
X019172Y014428D01*
X019268Y014331D01*
X019220Y014230D02*
X019172Y014181D01*
X019172Y014085D01*
X019220Y014036D01*
X019413Y014036D01*
X019462Y014085D01*
X019462Y014181D01*
X019413Y014230D01*
X017642Y014304D02*
X017642Y014401D01*
X017593Y014449D01*
X017352Y014449D01*
X017448Y014550D02*
X017352Y014647D01*
X017642Y014647D01*
X017642Y014550D02*
X017642Y014744D01*
X017642Y014304D02*
X017593Y014255D01*
X017352Y014255D01*
X015343Y018516D02*
X015150Y018516D01*
X015102Y018565D01*
X015102Y018661D01*
X015150Y018710D01*
X015247Y018811D02*
X015102Y018956D01*
X015392Y018956D01*
X015247Y019004D02*
X015247Y018811D01*
X015343Y018710D02*
X015392Y018661D01*
X015392Y018565D01*
X015343Y018516D01*
X014822Y020336D02*
X014532Y020336D01*
X014532Y020481D01*
X014580Y020530D01*
X014677Y020530D01*
X014725Y020481D01*
X014725Y020336D01*
X014725Y020433D02*
X014822Y020530D01*
X014773Y020631D02*
X014822Y020679D01*
X014822Y020776D01*
X014773Y020824D01*
X014725Y020824D01*
X014677Y020776D01*
X014677Y020728D01*
X014677Y020776D02*
X014628Y020824D01*
X014580Y020824D01*
X014532Y020776D01*
X014532Y020679D01*
X014580Y020631D01*
X015392Y021216D02*
X015392Y021361D01*
X015440Y021410D01*
X015537Y021410D01*
X015585Y021361D01*
X015585Y021216D01*
X015682Y021216D02*
X015392Y021216D01*
X015585Y021313D02*
X015682Y021410D01*
X015633Y021511D02*
X015682Y021559D01*
X015682Y021656D01*
X015633Y021704D01*
X015537Y021704D01*
X015488Y021656D01*
X015488Y021608D01*
X015537Y021511D01*
X015392Y021511D01*
X015392Y021704D01*
X017342Y020835D02*
X017342Y020738D01*
X017390Y020690D01*
X017438Y020690D01*
X017487Y020738D01*
X017487Y020884D01*
X017583Y020884D02*
X017390Y020884D01*
X017342Y020835D01*
X017583Y020884D02*
X017632Y020835D01*
X017632Y020738D01*
X017583Y020690D01*
X017632Y020589D02*
X017535Y020492D01*
X017535Y020541D02*
X017535Y020395D01*
X017632Y020395D02*
X017342Y020395D01*
X017342Y020541D01*
X017390Y020589D01*
X017487Y020589D01*
X017535Y020541D01*
X017732Y020541D02*
X017732Y020444D01*
X017780Y020395D01*
X017973Y020395D01*
X018022Y020444D01*
X018022Y020541D01*
X017973Y020589D01*
X017780Y020589D01*
X017732Y020541D01*
X017780Y020690D02*
X017732Y020738D01*
X017732Y020835D01*
X017780Y020884D01*
X017828Y020884D01*
X018022Y020690D01*
X018022Y020884D01*
X018022Y020589D02*
X017925Y020492D01*
X017762Y021495D02*
X017472Y021495D01*
X017472Y021641D01*
X017520Y021689D01*
X017617Y021689D01*
X017665Y021641D01*
X017665Y021495D01*
X017665Y021592D02*
X017762Y021689D01*
X017713Y021790D02*
X017665Y021790D01*
X017617Y021838D01*
X017617Y021935D01*
X017665Y021984D01*
X017713Y021984D01*
X017762Y021935D01*
X017762Y021838D01*
X017713Y021790D01*
X017617Y021838D02*
X017568Y021790D01*
X017520Y021790D01*
X017472Y021838D01*
X017472Y021935D01*
X017520Y021984D01*
X017568Y021984D01*
X017617Y021935D01*
X019322Y021954D02*
X019322Y022051D01*
X019370Y022099D01*
X019563Y022099D01*
X019612Y022051D01*
X019612Y021954D01*
X019563Y021905D01*
X019370Y021905D01*
X019322Y021954D01*
X019515Y022002D02*
X019612Y022099D01*
X019612Y022200D02*
X019612Y022394D01*
X019612Y022297D02*
X019322Y022297D01*
X019418Y022200D01*
X019368Y019994D02*
X019320Y019994D01*
X019272Y019945D01*
X019272Y019848D01*
X019320Y019800D01*
X019320Y019699D02*
X019417Y019699D01*
X019465Y019651D01*
X019465Y019505D01*
X019562Y019505D02*
X019272Y019505D01*
X019272Y019651D01*
X019320Y019699D01*
X019465Y019602D02*
X019562Y019699D01*
X019562Y019800D02*
X019368Y019994D01*
X019562Y019994D02*
X019562Y019800D01*
D15*
X016067Y019125D02*
X016067Y019025D01*
X016017Y018975D01*
X016017Y018881D02*
X015767Y018881D01*
X015817Y018975D02*
X015767Y019025D01*
X015767Y019125D01*
X015817Y019175D01*
X015867Y019175D01*
X015917Y019125D01*
X015967Y019175D01*
X016017Y019175D01*
X016067Y019125D01*
X015917Y019125D02*
X015917Y019075D01*
X016017Y018881D02*
X016067Y018831D01*
X016067Y018731D01*
X016017Y018680D01*
X015767Y018680D01*
M02*
