%
M48
M72
T01C0.0236
T02C0.0472
T03C0.0625
T04C0.1260
T05C0.1575
%
T01
X4556Y8297
X3816Y10106
X5216Y11606
X3716Y13106
X4556Y14990
X7115Y14990
X8216Y13206
X8116Y10106
X8885Y11606
X7115Y8297
X15297Y13690
X12824Y12824
X12824Y10462
X15837Y17120
X16167Y18820
X15377Y20780
X8077Y21366
X8845Y22866
X5177Y22866
X3677Y24366
X4517Y26250
X7076Y26250
X8177Y24466
X12785Y21722
X12785Y24084
X15227Y25140
X18377Y25110
X17717Y21080
X18237Y17760
X7076Y19557
X4517Y19557
X3777Y21366
X1269Y21722
X1269Y24084
X1308Y12824
X1308Y10462
T02
X8966Y9124
X9865Y9562
X8927Y20384
X9825Y20822
T03
X12627Y11643
X12588Y22903
T04
X16957Y12710
T05
X7116Y11643
X7077Y22903
M30
