G75*
G70*
%OFA0B0*%
%FSLAX24Y24*%
%IPPOS*%
%LPD*%
%AMOC8*
5,1,8,0,0,1.08239X$1,22.5*
%
%ADD10C,0.1655*%
%ADD11C,0.0705*%
%ADD12C,0.0789*%
%ADD13R,0.1379X0.0592*%
%ADD14R,0.0277X0.0434*%
%ADD15R,0.0830X0.4330*%
%ADD16C,0.1340*%
%ADD17C,0.0476*%
%ADD18R,0.0476X0.0476*%
%ADD19R,0.0580X0.0580*%
D10*
X007116Y011643D03*
X007077Y022903D03*
D11*
X012588Y022903D03*
X012627Y011643D03*
D12*
X009710Y009881D02*
X010020Y009244D01*
X009121Y008806D02*
X008811Y009443D01*
X009082Y020065D02*
X008771Y020702D01*
X009670Y021141D02*
X009981Y020504D01*
D13*
X014877Y023940D03*
X017897Y023890D03*
D14*
X017897Y023261D03*
X017897Y024520D03*
X014877Y024570D03*
X014877Y023311D03*
D15*
X015082Y011210D03*
X018082Y011210D03*
D16*
X016957Y012710D03*
D17*
X004556Y008297D03*
X003816Y010106D03*
X005216Y011606D03*
X003716Y013106D03*
X004556Y014990D03*
X007115Y014990D03*
X008216Y013206D03*
X008885Y011606D03*
X008116Y010106D03*
X007115Y008297D03*
X012824Y010462D03*
X012824Y012824D03*
X015837Y017120D03*
X016167Y018820D03*
X015377Y020780D03*
X017717Y021080D03*
X018237Y017760D03*
X012785Y021722D03*
X012785Y024084D03*
X008845Y022866D03*
X008077Y021366D03*
X007076Y019557D03*
X004517Y019557D03*
X003777Y021366D03*
X005177Y022866D03*
X003677Y024366D03*
X004517Y026250D03*
X007076Y026250D03*
X008177Y024466D03*
X001269Y024084D03*
X001269Y021722D03*
X001308Y012824D03*
X001308Y010462D03*
D18*
X015297Y013690D03*
D19*
X015227Y025140D03*
X018377Y025110D03*
M02*
