G75*
G70*
%OFA0B0*%
%FSLAX24Y24*%
%IPPOS*%
%LPD*%
%AMOC8*
5,1,8,0,0,1.08239X$1,22.5*
%
%ADD10C,0.0040*%
%ADD11R,0.1299X0.0512*%
%ADD12R,0.0197X0.0354*%
%ADD13R,0.1299X0.0197*%
%ADD14R,0.0512X0.1299*%
%ADD15R,0.0354X0.0197*%
%ADD16R,0.0197X0.1299*%
%ADD17C,0.0709*%
%ADD18R,0.0220X0.0520*%
%ADD19R,0.0630X0.0709*%
%ADD20R,0.0710X0.0630*%
%ADD21R,0.1142X0.0807*%
%ADD22R,0.0394X0.0591*%
%ADD23R,0.0500X0.0220*%
%ADD24R,0.0433X0.0394*%
%ADD25R,0.0394X0.0433*%
%ADD26C,0.0250*%
%ADD27R,0.0551X0.0394*%
%ADD28R,0.0220X0.0780*%
%ADD29C,0.0120*%
%ADD30R,0.0750X0.4250*%
%ADD31C,0.0240*%
%ADD32C,0.0500*%
%ADD33C,0.0100*%
%ADD34C,0.0396*%
%ADD35C,0.0160*%
%ADD36R,0.0396X0.0396*%
%ADD37R,0.0500X0.0500*%
D10*
X001425Y015758D02*
X001578Y015758D01*
X001655Y015834D01*
X001655Y016218D01*
X001808Y016141D02*
X001808Y016065D01*
X001885Y015988D01*
X002039Y015988D01*
X002115Y015911D01*
X002115Y015834D01*
X002039Y015758D01*
X001885Y015758D01*
X001808Y015834D01*
X001808Y016141D02*
X001885Y016218D01*
X002039Y016218D01*
X002115Y016141D01*
X002269Y016065D02*
X002422Y016218D01*
X002576Y016065D01*
X002576Y015758D01*
X002576Y015988D02*
X002269Y015988D01*
X002269Y016065D02*
X002269Y015758D01*
X002269Y016508D02*
X002269Y016815D01*
X002422Y016815D02*
X002269Y016661D01*
X002115Y016661D02*
X001885Y016661D01*
X001808Y016584D01*
X001885Y016508D01*
X002115Y016508D01*
X002115Y016738D01*
X002039Y016815D01*
X001885Y016815D01*
X001655Y016968D02*
X001655Y016508D01*
X001501Y016661D01*
X001348Y016508D01*
X001348Y016968D01*
X001425Y017258D02*
X001578Y017258D01*
X001655Y017334D01*
X001655Y017641D01*
X001578Y017718D01*
X001425Y017718D01*
X001348Y017641D01*
X001348Y017565D01*
X001425Y017488D01*
X001655Y017488D01*
X001808Y017334D02*
X001808Y017258D01*
X001808Y017334D02*
X002115Y017641D01*
X002115Y017718D01*
X001808Y017718D01*
X001808Y018008D02*
X001808Y018315D01*
X001808Y018161D02*
X001962Y018315D01*
X002039Y018315D01*
X002192Y018315D02*
X002269Y018315D01*
X002269Y018008D01*
X002192Y018008D02*
X002346Y018008D01*
X002499Y018084D02*
X002576Y018008D01*
X002806Y018008D01*
X002729Y017718D02*
X002729Y017411D01*
X002883Y017258D01*
X003036Y017411D01*
X003036Y017718D01*
X003190Y017488D02*
X003266Y017565D01*
X003420Y017565D01*
X003497Y017488D01*
X003497Y017411D01*
X003190Y017411D01*
X003190Y017334D02*
X003190Y017488D01*
X003190Y017334D02*
X003266Y017258D01*
X003420Y017258D01*
X003650Y017258D02*
X003650Y017565D01*
X003803Y017565D02*
X003880Y017565D01*
X003803Y017565D02*
X003650Y017411D01*
X004034Y017258D02*
X004034Y017565D01*
X004264Y017565D01*
X004341Y017488D01*
X004341Y017258D01*
X004494Y017334D02*
X004571Y017258D01*
X004724Y017258D01*
X004801Y017334D01*
X004801Y017488D01*
X004724Y017565D01*
X004571Y017565D01*
X004494Y017488D01*
X004494Y017334D01*
X004954Y017258D02*
X004954Y017565D01*
X005185Y017565D01*
X005261Y017488D01*
X005261Y017258D01*
X005261Y016968D02*
X005031Y016968D01*
X005031Y016508D01*
X005031Y016661D02*
X005261Y016661D01*
X005338Y016738D01*
X005338Y016891D01*
X005261Y016968D01*
X005492Y016968D02*
X005645Y016968D01*
X005568Y016968D02*
X005568Y016508D01*
X005492Y016508D02*
X005645Y016508D01*
X005338Y016508D02*
X005185Y016661D01*
X004417Y016584D02*
X004341Y016584D01*
X004341Y016508D01*
X004417Y016508D01*
X004417Y016584D01*
X004417Y016508D02*
X004264Y016354D01*
X004110Y016508D02*
X003880Y016661D01*
X004110Y016815D01*
X003880Y016968D02*
X003880Y016508D01*
X003727Y016508D02*
X003497Y016508D01*
X003420Y016584D01*
X003420Y016738D01*
X003497Y016815D01*
X003727Y016815D01*
X003190Y016815D02*
X003190Y016508D01*
X003266Y016508D02*
X003113Y016508D01*
X002959Y016584D02*
X002959Y016815D01*
X003113Y016815D02*
X003190Y016815D01*
X003190Y016968D02*
X003190Y017045D01*
X002959Y016584D02*
X002883Y016508D01*
X002806Y016584D01*
X002729Y016508D01*
X002652Y016584D01*
X002652Y016815D01*
X002499Y016815D02*
X002422Y016815D01*
X001655Y018008D02*
X001348Y018008D01*
X001348Y018468D01*
X001655Y018468D01*
X001501Y018238D02*
X001348Y018238D01*
X001348Y017334D02*
X001425Y017258D01*
X001348Y016218D02*
X001348Y015834D01*
X001425Y015758D01*
X002499Y018084D02*
X002499Y018238D01*
X002576Y018315D01*
X002806Y018315D01*
X002269Y018468D02*
X002269Y018545D01*
X003420Y018468D02*
X003420Y018008D01*
X003727Y018008D02*
X003727Y018468D01*
X003573Y018315D01*
X003420Y018468D01*
X003880Y018238D02*
X003880Y018084D01*
X003957Y018008D01*
X004110Y018008D01*
X004187Y018084D01*
X004187Y018238D01*
X004110Y018315D01*
X003957Y018315D01*
X003880Y018238D01*
X004341Y018315D02*
X004341Y018008D01*
X004341Y018161D02*
X004494Y018315D01*
X004571Y018315D01*
X004724Y018315D02*
X004724Y018008D01*
X004724Y018161D02*
X004878Y018315D01*
X004954Y018315D01*
X005108Y018315D02*
X005185Y018315D01*
X005185Y018008D01*
X005261Y018008D02*
X005108Y018008D01*
X005415Y018008D02*
X005645Y018008D01*
X005722Y018084D01*
X005645Y018161D01*
X005492Y018161D01*
X005415Y018238D01*
X005492Y018315D01*
X005722Y018315D01*
X005875Y018238D02*
X005875Y018084D01*
X005952Y018008D01*
X006105Y018008D01*
X006182Y018084D01*
X006182Y018238D01*
X006105Y018315D01*
X005952Y018315D01*
X005875Y018238D01*
X006336Y018315D02*
X006336Y018008D01*
X006643Y018008D02*
X006643Y018238D01*
X006566Y018315D01*
X006336Y018315D01*
X006105Y017718D02*
X005952Y017718D01*
X005875Y017641D01*
X005875Y017565D01*
X005952Y017488D01*
X006105Y017488D01*
X006182Y017411D01*
X006182Y017334D01*
X006105Y017258D01*
X005952Y017258D01*
X005875Y017334D01*
X006182Y017641D02*
X006105Y017718D01*
X006336Y017565D02*
X006489Y017565D01*
X006412Y017641D02*
X006412Y017334D01*
X006489Y017258D01*
X006489Y016968D02*
X006566Y016891D01*
X006259Y016584D01*
X006336Y016508D01*
X006489Y016508D01*
X006566Y016584D01*
X006566Y016891D01*
X006489Y016968D02*
X006336Y016968D01*
X006259Y016891D01*
X006259Y016584D01*
X006719Y016508D02*
X007026Y016815D01*
X007026Y016891D01*
X006949Y016968D01*
X006796Y016968D01*
X006719Y016891D01*
X006719Y016508D02*
X007026Y016508D01*
X007180Y016584D02*
X007180Y016661D01*
X007256Y016738D01*
X007410Y016738D01*
X007487Y016661D01*
X007487Y016584D01*
X007410Y016508D01*
X007256Y016508D01*
X007180Y016584D01*
X007256Y016738D02*
X007180Y016815D01*
X007180Y016891D01*
X007256Y016968D01*
X007410Y016968D01*
X007487Y016891D01*
X007487Y016815D01*
X007410Y016738D01*
X007640Y016815D02*
X007640Y016891D01*
X007717Y016968D01*
X007870Y016968D01*
X007947Y016891D01*
X007947Y016815D01*
X007870Y016738D01*
X007717Y016738D01*
X007640Y016815D01*
X007717Y016738D02*
X007640Y016661D01*
X007640Y016584D01*
X007717Y016508D01*
X007870Y016508D01*
X007947Y016584D01*
X007947Y016661D01*
X007870Y016738D01*
X008100Y016815D02*
X008177Y016738D01*
X008407Y016738D01*
X008407Y016891D02*
X008331Y016968D01*
X008177Y016968D01*
X008100Y016891D01*
X008100Y016815D01*
X008100Y016584D02*
X008177Y016508D01*
X008331Y016508D01*
X008407Y016584D01*
X008407Y016891D01*
X005185Y018468D02*
X005185Y018545D01*
D11*
X001958Y022903D03*
X011407Y022903D03*
X015707Y023940D03*
X018967Y023890D03*
X011446Y011643D03*
X001997Y011643D03*
D12*
X001997Y011013D03*
X001997Y012273D03*
X001958Y022273D03*
X001958Y023533D03*
X011407Y023533D03*
X011407Y022273D03*
X015707Y023311D03*
X015707Y024570D03*
X018967Y024520D03*
X018967Y023261D03*
X011446Y012273D03*
X011446Y011013D03*
D13*
X011446Y011092D03*
X011446Y012194D03*
X011407Y022352D03*
X011407Y023454D03*
X015707Y023389D03*
X015707Y024492D03*
X018967Y024442D03*
X018967Y023339D03*
X001958Y023454D03*
X001958Y022352D03*
X001997Y012194D03*
X001997Y011092D03*
D14*
X005836Y009084D03*
X005836Y014202D03*
X005797Y020344D03*
X005797Y025462D03*
D15*
X005167Y025462D03*
X006426Y025462D03*
X006426Y020344D03*
X005167Y020344D03*
X005206Y014202D03*
X006466Y014202D03*
X006466Y009084D03*
X005206Y009084D03*
D16*
X005285Y009084D03*
X006387Y009084D03*
X006387Y014202D03*
X005285Y014202D03*
X005245Y020344D03*
X006348Y020344D03*
X006348Y025462D03*
X005245Y025462D03*
D17*
X008771Y020702D02*
X009082Y020065D01*
X009981Y020504D02*
X009670Y021141D01*
X009710Y009881D02*
X010020Y009244D01*
X009121Y008806D02*
X008811Y009443D01*
D18*
X017137Y013980D03*
X017507Y013980D03*
X017877Y013980D03*
X017877Y014900D03*
X017137Y014900D03*
D19*
X017646Y015710D03*
X018748Y015710D03*
D20*
X014807Y021481D03*
X014807Y022600D03*
D21*
X019057Y021340D03*
D22*
X019431Y020543D03*
X018683Y020543D03*
D23*
X017367Y017230D03*
X017367Y016860D03*
X017367Y016490D03*
X016347Y016490D03*
X016347Y016860D03*
X016347Y017230D03*
D24*
X015131Y016380D03*
X015577Y015685D03*
X015577Y015016D03*
X016417Y015026D03*
X016417Y015695D03*
X018162Y016620D03*
X018831Y016620D03*
X018667Y017766D03*
X018667Y018435D03*
X014627Y019386D03*
X014627Y020055D03*
X014462Y016380D03*
D25*
X014462Y017210D03*
X015131Y017210D03*
X014637Y018066D03*
X014637Y018735D03*
X016382Y020760D03*
X017051Y020760D03*
X017051Y021580D03*
X016382Y021580D03*
X017597Y018685D03*
X017597Y018016D03*
X018752Y019150D03*
X019421Y019150D03*
X018647Y014795D03*
X018647Y014126D03*
X016201Y014350D03*
X015532Y014350D03*
D26*
X014847Y013870D03*
X014947Y015680D03*
X016977Y015980D03*
X017527Y015100D03*
X018497Y017220D03*
X017867Y017230D03*
X017257Y019930D03*
X018187Y020570D03*
D27*
X017734Y020154D03*
X017734Y019406D03*
X018600Y019780D03*
D28*
X016877Y019930D03*
X016377Y019930D03*
X015877Y019930D03*
X015377Y019930D03*
X015377Y018070D03*
X015877Y018070D03*
X016377Y018070D03*
X016877Y018070D03*
D29*
X015367Y014500D02*
X015367Y014200D01*
X015267Y014250D01*
X015267Y014450D01*
X015367Y014500D01*
X015365Y014500D01*
X015367Y014381D02*
X015267Y014381D01*
X015267Y014263D02*
X015367Y014263D01*
D30*
X015832Y011210D03*
X018832Y011210D03*
D31*
X018832Y013295D01*
X018517Y013610D01*
X018247Y013610D01*
X017877Y013980D01*
X017877Y013590D01*
X017817Y013530D01*
X017217Y013530D01*
X017137Y013610D01*
X017137Y013980D01*
X016201Y013885D02*
X016027Y013710D01*
X015317Y013710D01*
X015297Y013690D01*
X016201Y013885D02*
X016201Y014350D01*
X011416Y012606D02*
X011416Y012303D01*
X011446Y012273D01*
X011446Y011013D02*
X011416Y010983D01*
X011416Y010806D01*
X006816Y014206D02*
X006812Y014202D01*
X006466Y014202D01*
X005206Y014202D02*
X005202Y014206D01*
X004916Y014206D01*
X002016Y012706D02*
X002016Y012292D01*
X001997Y012273D01*
X001997Y011013D02*
X001997Y010725D01*
X002016Y010706D01*
X004816Y009106D02*
X005184Y009106D01*
X005206Y009084D01*
X006466Y009084D02*
X006694Y009084D01*
X006716Y009106D01*
X006655Y020344D02*
X006426Y020344D01*
X006655Y020344D02*
X006677Y020366D01*
X005167Y020344D02*
X005145Y020366D01*
X004777Y020366D01*
X001977Y021966D02*
X001958Y021985D01*
X001958Y022273D01*
X001958Y023533D02*
X001977Y023552D01*
X001977Y023966D01*
X004877Y025466D02*
X005163Y025466D01*
X005167Y025462D01*
X006426Y025462D02*
X006773Y025462D01*
X006777Y025466D01*
X011377Y023866D02*
X011377Y023563D01*
X011407Y023533D01*
X011407Y022273D02*
X011377Y022243D01*
X011377Y022066D01*
X015707Y022920D02*
X015707Y023311D01*
X015707Y024570D02*
X015707Y024810D01*
X018967Y024820D02*
X018967Y024520D01*
X018967Y023261D02*
X018967Y023030D01*
X018977Y023020D01*
D32*
X018977Y021420D01*
X019057Y021340D01*
X018967Y024820D02*
X018677Y025110D01*
X018377Y025110D01*
X015707Y024810D02*
X015357Y025130D01*
X015227Y025140D01*
X015707Y022920D02*
X015387Y022600D01*
X014807Y022600D01*
X011377Y022066D02*
X010133Y020822D01*
X009825Y020822D01*
X008927Y020384D02*
X008909Y020366D01*
X006677Y020366D01*
X004777Y020366D02*
X002877Y020366D01*
X001977Y021266D01*
X001977Y021966D01*
X001977Y023966D02*
X001977Y024566D01*
X002877Y025466D01*
X004877Y025466D01*
X006777Y025466D02*
X009777Y025466D01*
X011377Y023866D01*
X009816Y014206D02*
X006816Y014206D01*
X004916Y014206D02*
X002916Y014206D01*
X002016Y013306D01*
X002016Y012706D01*
X002016Y010706D02*
X002016Y010006D01*
X002916Y009106D01*
X004816Y009106D01*
X006716Y009106D02*
X008948Y009106D01*
X008966Y009124D01*
X009865Y009562D02*
X010172Y009562D01*
X011416Y010806D01*
X011416Y012606D02*
X009816Y014206D01*
D33*
X003716Y008006D02*
X002902Y008726D01*
X004892Y008726D01*
X005031Y008784D01*
X005056Y008809D01*
X005056Y008381D01*
X005132Y008305D01*
X005437Y008305D01*
X005513Y008381D01*
X005513Y009788D01*
X005437Y009864D01*
X005132Y009864D01*
X005056Y009788D01*
X005056Y009404D01*
X005031Y009428D01*
X004892Y009486D01*
X003074Y009486D01*
X002396Y010164D01*
X002396Y010782D01*
X002362Y010864D01*
X002701Y010864D01*
X002777Y010940D01*
X002777Y011244D01*
X002701Y011320D01*
X001294Y011320D01*
X001218Y011244D01*
X001218Y010940D01*
X001294Y010864D01*
X001670Y010864D01*
X001636Y010782D01*
X001636Y009931D01*
X001691Y009797D01*
X001116Y010306D01*
X001116Y013006D01*
X001677Y013481D01*
X001636Y013382D01*
X001636Y012631D01*
X001694Y012491D01*
X001762Y012423D01*
X001294Y012423D01*
X001218Y012347D01*
X001218Y012042D01*
X001294Y011966D01*
X002701Y011966D01*
X002777Y012042D01*
X002777Y012347D01*
X002701Y012423D01*
X002270Y012423D01*
X002338Y012491D01*
X002396Y012631D01*
X002396Y013149D01*
X003074Y013826D01*
X004992Y013826D01*
X005056Y013853D01*
X005056Y013499D01*
X005132Y013423D01*
X005437Y013423D01*
X005513Y013499D01*
X005513Y014906D01*
X005437Y014982D01*
X005132Y014982D01*
X005056Y014906D01*
X005056Y014560D01*
X004992Y014586D01*
X002983Y014586D01*
X003716Y015206D01*
X008716Y015206D01*
X009942Y014565D01*
X009892Y014586D01*
X006741Y014586D01*
X006616Y014534D01*
X006616Y014906D01*
X006539Y014982D01*
X006235Y014982D01*
X006159Y014906D01*
X006159Y013499D01*
X006235Y013423D01*
X006539Y013423D01*
X006616Y013499D01*
X006616Y013878D01*
X006741Y013826D01*
X009659Y013826D01*
X011062Y012423D01*
X010743Y012423D01*
X010667Y012347D01*
X010667Y012042D01*
X010743Y011966D01*
X012150Y011966D01*
X012226Y012042D01*
X012226Y012347D01*
X012150Y012423D01*
X011752Y012423D01*
X011796Y012531D01*
X011796Y012682D01*
X011738Y012821D01*
X010138Y014421D01*
X010052Y014508D01*
X013116Y012906D01*
X013116Y010206D01*
X008616Y008006D01*
X003716Y008006D01*
X003655Y008061D02*
X008728Y008061D01*
X008929Y008159D02*
X003543Y008159D01*
X003432Y008258D02*
X009131Y008258D01*
X009055Y008316D02*
X009247Y008328D01*
X009420Y008412D01*
X009548Y008557D01*
X009611Y008739D01*
X009599Y008931D01*
X009204Y009741D01*
X009059Y009869D01*
X008877Y009932D01*
X008685Y009920D01*
X008512Y009836D01*
X008384Y009691D01*
X008321Y009509D01*
X008323Y009486D01*
X006641Y009486D01*
X006616Y009476D01*
X006616Y009788D01*
X006539Y009864D01*
X006235Y009864D01*
X006159Y009788D01*
X006159Y008381D01*
X006235Y008305D01*
X006539Y008305D01*
X006616Y008381D01*
X006616Y008737D01*
X006641Y008726D01*
X008621Y008726D01*
X008728Y008507D01*
X008873Y008379D01*
X009055Y008316D01*
X008939Y008356D02*
X006591Y008356D01*
X006616Y008455D02*
X008787Y008455D01*
X008706Y008553D02*
X006616Y008553D01*
X006616Y008652D02*
X008658Y008652D01*
X009305Y008356D02*
X009332Y008356D01*
X009458Y008455D02*
X009534Y008455D01*
X009545Y008553D02*
X009735Y008553D01*
X009581Y008652D02*
X009937Y008652D01*
X009954Y008755D02*
X009771Y008817D01*
X009627Y008945D01*
X009232Y009755D01*
X009220Y009947D01*
X009283Y010130D01*
X009411Y010274D01*
X009584Y010358D01*
X009776Y010370D01*
X009958Y010307D01*
X010103Y010180D01*
X010152Y010079D01*
X010936Y010864D01*
X010743Y010864D01*
X010667Y010940D01*
X010667Y011244D01*
X010743Y011320D01*
X012150Y011320D01*
X012226Y011244D01*
X012226Y010940D01*
X012150Y010864D01*
X011796Y010864D01*
X011796Y010731D01*
X011738Y010591D01*
X010499Y009351D01*
X010509Y009177D01*
X010447Y008995D01*
X010319Y008851D01*
X010146Y008766D01*
X009954Y008755D01*
X010138Y008750D02*
X009610Y008750D01*
X009604Y008849D02*
X009736Y008849D01*
X009626Y008947D02*
X009591Y008947D01*
X009578Y009046D02*
X009543Y009046D01*
X009530Y009144D02*
X009495Y009144D01*
X009482Y009243D02*
X009447Y009243D01*
X009434Y009341D02*
X009399Y009341D01*
X009386Y009440D02*
X009351Y009440D01*
X009338Y009538D02*
X009303Y009538D01*
X009290Y009637D02*
X009255Y009637D01*
X009242Y009735D02*
X009207Y009735D01*
X009227Y009834D02*
X009099Y009834D01*
X009221Y009932D02*
X002628Y009932D01*
X002726Y009834D02*
X005102Y009834D01*
X005056Y009735D02*
X002825Y009735D01*
X002923Y009637D02*
X005056Y009637D01*
X005056Y009538D02*
X003022Y009538D01*
X002529Y010031D02*
X009249Y010031D01*
X009283Y010129D02*
X002431Y010129D01*
X002396Y010228D02*
X009370Y010228D01*
X009518Y010326D02*
X002396Y010326D01*
X002396Y010425D02*
X010497Y010425D01*
X010399Y010326D02*
X009904Y010326D01*
X010048Y010228D02*
X010300Y010228D01*
X010202Y010129D02*
X010127Y010129D01*
X010596Y010523D02*
X002396Y010523D01*
X002396Y010622D02*
X010694Y010622D01*
X010793Y010720D02*
X007337Y010720D01*
X007303Y010706D02*
X007647Y010849D01*
X007911Y011112D01*
X008054Y011457D01*
X008054Y011830D01*
X007911Y012174D01*
X007647Y012438D01*
X007303Y012581D01*
X006930Y012581D01*
X006585Y012438D01*
X006322Y012174D01*
X006179Y011830D01*
X006179Y011457D01*
X006322Y011112D01*
X006585Y010849D01*
X006930Y010706D01*
X007303Y010706D01*
X007575Y010819D02*
X010891Y010819D01*
X010689Y010917D02*
X007716Y010917D01*
X007814Y011016D02*
X010667Y011016D01*
X010667Y011114D02*
X007912Y011114D01*
X007953Y011213D02*
X010667Y011213D01*
X010733Y011311D02*
X007993Y011311D01*
X008034Y011410D02*
X012223Y011410D01*
X012235Y011381D02*
X012365Y011251D01*
X012535Y011181D01*
X012719Y011181D01*
X012889Y011251D01*
X013019Y011381D01*
X013090Y011551D01*
X013090Y011735D01*
X013019Y011905D01*
X012889Y012035D01*
X012719Y012106D01*
X012535Y012106D01*
X012365Y012035D01*
X012235Y011905D01*
X012165Y011735D01*
X012165Y011551D01*
X012235Y011381D01*
X012305Y011311D02*
X012159Y011311D01*
X012226Y011213D02*
X012458Y011213D01*
X012226Y011114D02*
X013116Y011114D01*
X013116Y011016D02*
X012226Y011016D01*
X012203Y010917D02*
X013116Y010917D01*
X013116Y010819D02*
X011796Y010819D01*
X011792Y010720D02*
X013116Y010720D01*
X013116Y010622D02*
X011751Y010622D01*
X011671Y010523D02*
X013116Y010523D01*
X013116Y010425D02*
X011572Y010425D01*
X011474Y010326D02*
X013116Y010326D01*
X013116Y010228D02*
X011375Y010228D01*
X011277Y010129D02*
X012959Y010129D01*
X012757Y010031D02*
X011178Y010031D01*
X011080Y009932D02*
X012556Y009932D01*
X012354Y009834D02*
X010981Y009834D01*
X010883Y009735D02*
X012153Y009735D01*
X011951Y009637D02*
X010784Y009637D01*
X010686Y009538D02*
X011750Y009538D01*
X011548Y009440D02*
X010587Y009440D01*
X010499Y009341D02*
X011347Y009341D01*
X011145Y009243D02*
X010505Y009243D01*
X010498Y009144D02*
X010944Y009144D01*
X010742Y009046D02*
X010464Y009046D01*
X010404Y008947D02*
X010541Y008947D01*
X010339Y008849D02*
X010315Y008849D01*
X008510Y009834D02*
X006569Y009834D01*
X006616Y009735D02*
X008423Y009735D01*
X008365Y009637D02*
X006616Y009637D01*
X006616Y009538D02*
X008331Y009538D01*
X006895Y010720D02*
X002396Y010720D01*
X002381Y010819D02*
X006657Y010819D01*
X006517Y010917D02*
X002754Y010917D01*
X002777Y011016D02*
X006418Y011016D01*
X006321Y011114D02*
X002777Y011114D01*
X002777Y011213D02*
X006280Y011213D01*
X006239Y011311D02*
X002710Y011311D01*
X002736Y012001D02*
X006250Y012001D01*
X006290Y012099D02*
X002777Y012099D01*
X002777Y012198D02*
X006345Y012198D01*
X006444Y012296D02*
X002777Y012296D01*
X002729Y012395D02*
X006542Y012395D01*
X006719Y012493D02*
X002339Y012493D01*
X002380Y012592D02*
X010893Y012592D01*
X010795Y012690D02*
X002396Y012690D01*
X002396Y012789D02*
X010696Y012789D01*
X010598Y012887D02*
X002396Y012887D01*
X002396Y012986D02*
X010499Y012986D01*
X010401Y013084D02*
X002396Y013084D01*
X002430Y013183D02*
X010302Y013183D01*
X010204Y013281D02*
X002529Y013281D01*
X002627Y013380D02*
X010105Y013380D01*
X010007Y013478D02*
X006595Y013478D01*
X006616Y013577D02*
X009908Y013577D01*
X009810Y013675D02*
X006616Y013675D01*
X006616Y013774D02*
X009711Y013774D01*
X010294Y014266D02*
X010514Y014266D01*
X010392Y014168D02*
X010703Y014168D01*
X010891Y014069D02*
X010491Y014069D01*
X010589Y013971D02*
X011080Y013971D01*
X011268Y013872D02*
X010688Y013872D01*
X010786Y013774D02*
X011457Y013774D01*
X011645Y013675D02*
X010885Y013675D01*
X010983Y013577D02*
X011834Y013577D01*
X012022Y013478D02*
X011082Y013478D01*
X011180Y013380D02*
X012210Y013380D01*
X012399Y013281D02*
X011279Y013281D01*
X011377Y013183D02*
X012587Y013183D01*
X012776Y013084D02*
X011476Y013084D01*
X011574Y012986D02*
X012964Y012986D01*
X013116Y012887D02*
X011673Y012887D01*
X011752Y012789D02*
X013116Y012789D01*
X013116Y012690D02*
X011793Y012690D01*
X011796Y012592D02*
X013116Y012592D01*
X013116Y012493D02*
X011781Y012493D01*
X012178Y012395D02*
X013116Y012395D01*
X013116Y012296D02*
X012226Y012296D01*
X012226Y012198D02*
X013116Y012198D01*
X013116Y012099D02*
X012735Y012099D01*
X012924Y012001D02*
X013116Y012001D01*
X013116Y011902D02*
X013021Y011902D01*
X013061Y011804D02*
X013116Y011804D01*
X013116Y011705D02*
X013090Y011705D01*
X013090Y011607D02*
X013116Y011607D01*
X013116Y011508D02*
X013072Y011508D01*
X013031Y011410D02*
X013116Y011410D01*
X013116Y011311D02*
X012949Y011311D01*
X012796Y011213D02*
X013116Y011213D01*
X013982Y011213D02*
X015782Y011213D01*
X015782Y011260D02*
X015782Y011160D01*
X015307Y011160D01*
X015307Y009265D01*
X013982Y009265D01*
X013982Y025455D01*
X014858Y025455D01*
X014847Y025444D01*
X014847Y025155D01*
X014842Y025094D01*
X014847Y025080D01*
X014847Y024837D01*
X014923Y024760D01*
X015198Y024760D01*
X015243Y024720D01*
X015003Y024720D01*
X014927Y024644D01*
X014927Y024339D01*
X015003Y024263D01*
X016410Y024263D01*
X016486Y024339D01*
X016486Y024644D01*
X016410Y024720D01*
X016078Y024720D01*
X016090Y024752D01*
X016083Y024903D01*
X016019Y025040D01*
X015630Y025395D01*
X015607Y025423D01*
X015607Y025444D01*
X015596Y025455D01*
X018038Y025455D01*
X017997Y025414D01*
X017997Y024807D01*
X018073Y024730D01*
X018519Y024730D01*
X018580Y024670D01*
X018263Y024670D01*
X018187Y024594D01*
X018187Y024289D01*
X018263Y024213D01*
X019670Y024213D01*
X019746Y024289D01*
X019746Y024594D01*
X019670Y024670D01*
X019316Y024670D01*
X019347Y024745D01*
X019347Y024896D01*
X019289Y025036D01*
X018999Y025326D01*
X018892Y025433D01*
X018837Y025455D01*
X019922Y025455D01*
X019922Y020970D01*
X019758Y020970D01*
X019758Y021798D01*
X019682Y021874D01*
X019357Y021874D01*
X019357Y023096D01*
X019351Y023111D01*
X019670Y023111D01*
X019746Y023187D01*
X019746Y023492D01*
X019670Y023568D01*
X018263Y023568D01*
X018187Y023492D01*
X018187Y023187D01*
X018263Y023111D01*
X018603Y023111D01*
X018597Y023096D01*
X018597Y021874D01*
X018432Y021874D01*
X018356Y021798D01*
X018356Y020971D01*
X018087Y020980D01*
X018087Y020805D01*
X018042Y020787D01*
X017971Y020715D01*
X017932Y020621D01*
X017932Y020520D01*
X017948Y020481D01*
X017404Y020481D01*
X017328Y020405D01*
X017328Y020177D01*
X017308Y020185D01*
X017206Y020185D01*
X017117Y020148D01*
X017117Y020183D01*
X017134Y020200D01*
X017257Y020323D01*
X017257Y020414D01*
X017302Y020414D01*
X017378Y020490D01*
X017378Y021031D01*
X017302Y021107D01*
X016801Y021107D01*
X016725Y021031D01*
X016725Y020490D01*
X016764Y020450D01*
X016713Y020450D01*
X016637Y020374D01*
X016637Y019520D01*
X016617Y019520D01*
X016617Y020374D01*
X016587Y020404D01*
X016587Y020414D01*
X016633Y020414D01*
X016709Y020490D01*
X016709Y021031D01*
X016633Y021107D01*
X016592Y021107D01*
X016592Y021234D01*
X016633Y021234D01*
X016709Y021310D01*
X016709Y021328D01*
X016715Y021306D01*
X016735Y021272D01*
X016763Y021244D01*
X016797Y021224D01*
X016835Y021214D01*
X017003Y021214D01*
X017003Y021532D01*
X017100Y021532D01*
X017100Y021629D01*
X017003Y021629D01*
X017003Y021947D01*
X016835Y021947D01*
X016797Y021937D01*
X016763Y021917D01*
X016735Y021889D01*
X016715Y021855D01*
X016709Y021833D01*
X016709Y021851D01*
X016633Y021927D01*
X016132Y021927D01*
X016087Y021882D01*
X016087Y022197D01*
X015804Y022480D01*
X016029Y022705D01*
X016087Y022845D01*
X016087Y022996D01*
X016029Y023136D01*
X016004Y023161D01*
X016410Y023161D01*
X016486Y023237D01*
X016486Y023542D01*
X016410Y023618D01*
X015003Y023618D01*
X014927Y023542D01*
X014927Y023237D01*
X015003Y023161D01*
X015410Y023161D01*
X015255Y023006D01*
X015216Y023045D01*
X014398Y023045D01*
X014322Y022969D01*
X014322Y022232D01*
X014398Y022155D01*
X015216Y022155D01*
X015281Y022220D01*
X015462Y022220D01*
X015468Y022223D01*
X015667Y022023D01*
X015667Y020404D01*
X015637Y020374D01*
X015637Y019520D01*
X015637Y019520D01*
X015637Y019521D01*
X015637Y019925D01*
X015382Y019925D01*
X015382Y019935D01*
X015637Y019935D01*
X015637Y020340D01*
X015627Y020378D01*
X015607Y020413D01*
X015579Y020440D01*
X015545Y020460D01*
X015507Y020470D01*
X015382Y020470D01*
X015382Y019935D01*
X015372Y019935D01*
X015372Y020470D01*
X015247Y020470D01*
X015209Y020460D01*
X015175Y020440D01*
X015147Y020413D01*
X015127Y020378D01*
X015117Y020340D01*
X015117Y020067D01*
X014973Y020211D01*
X014973Y020306D01*
X014897Y020382D01*
X014356Y020382D01*
X014280Y020306D01*
X014280Y019804D01*
X014356Y019728D01*
X014827Y019728D01*
X014827Y019713D01*
X014356Y019713D01*
X014280Y019637D01*
X014280Y019544D01*
X014246Y019506D01*
X014187Y019447D01*
X014187Y019443D01*
X014116Y019366D01*
X014057Y019307D01*
X014057Y019303D01*
X014054Y019300D01*
X014057Y019217D01*
X014057Y017554D01*
X014055Y017552D01*
X014057Y017468D01*
X014057Y017383D01*
X014059Y017381D01*
X014059Y017378D01*
X014120Y017320D01*
X014135Y017305D01*
X014135Y016940D01*
X014212Y016864D01*
X014252Y016864D01*
X014252Y016707D01*
X014192Y016707D01*
X014116Y016631D01*
X014116Y016130D01*
X014192Y016054D01*
X014733Y016054D01*
X014797Y016118D01*
X014861Y016054D01*
X015402Y016054D01*
X015478Y016130D01*
X015478Y016557D01*
X015639Y016736D01*
X015697Y016793D01*
X015697Y016800D01*
X015701Y016805D01*
X015700Y016822D01*
X015772Y016792D01*
X015902Y016792D01*
X015947Y016811D01*
X015947Y016731D01*
X015957Y016693D01*
X015975Y016662D01*
X015967Y016654D01*
X015967Y016327D01*
X016043Y016250D01*
X016207Y016250D01*
X016207Y016022D01*
X016146Y016022D01*
X016070Y015946D01*
X016070Y015895D01*
X015923Y015895D01*
X015923Y015936D01*
X015847Y016012D01*
X015306Y016012D01*
X015230Y015936D01*
X015230Y015895D01*
X015093Y015895D01*
X015091Y015897D01*
X014998Y015935D01*
X014896Y015935D01*
X014802Y015897D01*
X014731Y015825D01*
X014692Y015731D01*
X014692Y015630D01*
X014731Y015536D01*
X014802Y015464D01*
X014896Y015425D01*
X014998Y015425D01*
X015091Y015464D01*
X015102Y015475D01*
X015230Y015475D01*
X015230Y015434D01*
X015306Y015358D01*
X015847Y015358D01*
X015923Y015434D01*
X015923Y015475D01*
X016070Y015475D01*
X016070Y015444D01*
X016146Y015368D01*
X016164Y015368D01*
X016142Y015362D01*
X016108Y015343D01*
X016080Y015315D01*
X016061Y015281D01*
X016050Y015242D01*
X016050Y015074D01*
X016368Y015074D01*
X016368Y014977D01*
X016050Y014977D01*
X016050Y014809D01*
X016061Y014771D01*
X016080Y014737D01*
X016108Y014709D01*
X016129Y014697D01*
X015951Y014697D01*
X015875Y014621D01*
X015875Y014080D01*
X015951Y014004D01*
X015951Y014004D01*
X015951Y013989D01*
X015923Y013960D01*
X015607Y013960D01*
X015563Y014004D01*
X015783Y014004D01*
X015859Y014080D01*
X015859Y014621D01*
X015791Y014689D01*
X015847Y014689D01*
X015923Y014765D01*
X015923Y015267D01*
X015847Y015343D01*
X015306Y015343D01*
X015230Y015267D01*
X015230Y014765D01*
X015298Y014697D01*
X015282Y014697D01*
X015228Y014643D01*
X015222Y014640D01*
X015188Y014640D01*
X015154Y014607D01*
X015111Y014585D01*
X015101Y014553D01*
X015077Y014529D01*
X015077Y014481D01*
X015062Y014436D01*
X015077Y014406D01*
X015077Y014295D01*
X015062Y014265D01*
X015077Y014220D01*
X015077Y014172D01*
X015101Y014148D01*
X015111Y014116D01*
X015154Y014094D01*
X015188Y014060D01*
X015222Y014060D01*
X015228Y014057D01*
X015267Y014019D01*
X015079Y014019D01*
X015060Y014046D01*
X015022Y014084D01*
X014977Y014114D01*
X014927Y014135D01*
X014874Y014145D01*
X014859Y014145D01*
X014859Y013883D01*
X014834Y013883D01*
X014834Y013858D01*
X014572Y013858D01*
X014572Y013843D01*
X014582Y013790D01*
X014603Y013740D01*
X014633Y013695D01*
X014672Y013657D01*
X014717Y013627D01*
X014767Y013606D01*
X014820Y013595D01*
X014834Y013595D01*
X014834Y013858D01*
X014859Y013858D01*
X014859Y013595D01*
X014874Y013595D01*
X014927Y013606D01*
X014969Y013623D01*
X014969Y013439D01*
X015045Y013362D01*
X015309Y013362D01*
X015307Y013355D01*
X015307Y011260D01*
X015782Y011260D01*
X015882Y011260D02*
X016357Y011260D01*
X016357Y012207D01*
X016515Y012049D01*
X016802Y011931D01*
X017112Y011931D01*
X017399Y012049D01*
X017618Y012269D01*
X017737Y012555D01*
X017737Y012866D01*
X017618Y013152D01*
X017490Y013280D01*
X017867Y013280D01*
X017958Y013319D01*
X018018Y013379D01*
X018072Y013432D01*
X018105Y013399D01*
X018177Y013369D01*
X018167Y009265D01*
X016357Y009265D01*
X016357Y011160D01*
X015882Y011160D01*
X015882Y011260D01*
X015882Y011213D02*
X018172Y011213D01*
X018172Y011311D02*
X016357Y011311D01*
X016357Y011410D02*
X018172Y011410D01*
X018172Y011508D02*
X016357Y011508D01*
X016357Y011607D02*
X018173Y011607D01*
X018173Y011705D02*
X016357Y011705D01*
X016357Y011804D02*
X018173Y011804D01*
X018173Y011902D02*
X016357Y011902D01*
X016357Y012001D02*
X016632Y012001D01*
X016465Y012099D02*
X016357Y012099D01*
X016357Y012198D02*
X016367Y012198D01*
X017281Y012001D02*
X018174Y012001D01*
X018174Y012099D02*
X017449Y012099D01*
X017547Y012198D02*
X018174Y012198D01*
X018174Y012296D02*
X017629Y012296D01*
X017670Y012395D02*
X018175Y012395D01*
X018175Y012493D02*
X017711Y012493D01*
X017737Y012592D02*
X018175Y012592D01*
X018175Y012690D02*
X017737Y012690D01*
X017737Y012789D02*
X018175Y012789D01*
X018176Y012887D02*
X017728Y012887D01*
X017687Y012986D02*
X018176Y012986D01*
X018176Y013084D02*
X017646Y013084D01*
X017588Y013183D02*
X018176Y013183D01*
X018177Y013281D02*
X017868Y013281D01*
X018020Y013380D02*
X018151Y013380D01*
X018300Y013911D02*
X018117Y014094D01*
X018117Y014294D01*
X018041Y014370D01*
X017713Y014370D01*
X017705Y014363D01*
X017675Y014380D01*
X017637Y014390D01*
X017512Y014390D01*
X017512Y013985D01*
X017502Y013985D01*
X017502Y014390D01*
X017377Y014390D01*
X017339Y014380D01*
X017309Y014363D01*
X017301Y014370D01*
X016973Y014370D01*
X016897Y014294D01*
X016897Y014054D01*
X016887Y014030D01*
X016887Y013561D01*
X016916Y013490D01*
X016802Y013490D01*
X016515Y013372D01*
X016357Y013213D01*
X016357Y013355D01*
X016347Y013393D01*
X016327Y013428D01*
X016299Y013455D01*
X016265Y013475D01*
X016227Y013485D01*
X016137Y013485D01*
X016168Y013499D01*
X016239Y013569D01*
X016413Y013744D01*
X016451Y013835D01*
X016451Y013935D01*
X016451Y014004D01*
X016452Y014004D01*
X016528Y014080D01*
X016528Y014621D01*
X016470Y014679D01*
X016653Y014679D01*
X016691Y014689D01*
X016725Y014709D01*
X016753Y014737D01*
X016773Y014771D01*
X016783Y014809D01*
X016783Y014977D01*
X016465Y014977D01*
X016465Y015074D01*
X016783Y015074D01*
X016783Y015242D01*
X016773Y015281D01*
X016753Y015315D01*
X016725Y015343D01*
X016691Y015362D01*
X016670Y015368D01*
X016687Y015368D01*
X016763Y015444D01*
X016763Y015833D01*
X016832Y015764D01*
X016926Y015725D01*
X017028Y015725D01*
X017121Y015764D01*
X017193Y015836D01*
X017201Y015855D01*
X017201Y015302D01*
X017213Y015290D01*
X016973Y015290D01*
X016897Y015214D01*
X016897Y014587D01*
X016973Y014510D01*
X017301Y014510D01*
X017377Y014587D01*
X017377Y014690D01*
X017414Y014690D01*
X017569Y014845D01*
X017578Y014845D01*
X017637Y014870D01*
X017637Y014587D01*
X017713Y014510D01*
X018041Y014510D01*
X018117Y014587D01*
X018117Y014690D01*
X018320Y014690D01*
X018320Y014525D01*
X018373Y014471D01*
X018358Y014462D01*
X018330Y014434D01*
X018310Y014400D01*
X018300Y014362D01*
X018300Y014174D01*
X018598Y014174D01*
X018598Y014077D01*
X018300Y014077D01*
X018300Y013911D01*
X018300Y013971D02*
X018240Y013971D01*
X018300Y014069D02*
X018142Y014069D01*
X018117Y014168D02*
X018598Y014168D01*
X018695Y014168D02*
X019063Y014168D01*
X018994Y014174D02*
X018994Y014362D01*
X018983Y014400D01*
X018964Y014434D01*
X018936Y014462D01*
X018920Y014471D01*
X018974Y014525D01*
X018974Y014821D01*
X018988Y014863D01*
X018974Y014894D01*
X018974Y015065D01*
X018898Y015142D01*
X018396Y015142D01*
X018365Y015110D01*
X018117Y015110D01*
X018117Y015214D01*
X018060Y015271D01*
X018091Y015302D01*
X018091Y015887D01*
X018244Y016040D01*
X018283Y016080D01*
X018283Y015760D01*
X018698Y015760D01*
X018698Y015660D01*
X018798Y015660D01*
X018798Y015206D01*
X019070Y015206D01*
X019057Y013465D01*
X019015Y013465D01*
X018729Y013752D01*
X018722Y013759D01*
X018863Y013759D01*
X018902Y013770D01*
X018936Y013789D01*
X018964Y013817D01*
X018983Y013851D01*
X018994Y013890D01*
X018994Y014077D01*
X018695Y014077D01*
X018695Y014174D01*
X018994Y014174D01*
X018994Y014266D02*
X019063Y014266D01*
X019064Y014365D02*
X018993Y014365D01*
X018934Y014463D02*
X019065Y014463D01*
X019066Y014562D02*
X018974Y014562D01*
X018974Y014660D02*
X019066Y014660D01*
X019067Y014759D02*
X018974Y014759D01*
X018986Y014857D02*
X019068Y014857D01*
X019068Y014956D02*
X018974Y014956D01*
X018974Y015054D02*
X019069Y015054D01*
X019070Y015153D02*
X018117Y015153D01*
X018080Y015251D02*
X018326Y015251D01*
X018313Y015264D02*
X018341Y015236D01*
X018375Y015216D01*
X018413Y015206D01*
X018698Y015206D01*
X018698Y015660D01*
X018283Y015660D01*
X018283Y015336D01*
X018293Y015298D01*
X018313Y015264D01*
X018283Y015350D02*
X018091Y015350D01*
X018091Y015448D02*
X018283Y015448D01*
X018283Y015547D02*
X018091Y015547D01*
X018091Y015645D02*
X018283Y015645D01*
X018283Y015842D02*
X018091Y015842D01*
X018091Y015744D02*
X018698Y015744D01*
X018698Y015760D02*
X018698Y016215D01*
X018413Y016215D01*
X018375Y016205D01*
X018367Y016200D01*
X018367Y016294D01*
X018433Y016294D01*
X018486Y016347D01*
X018495Y016332D01*
X018523Y016304D01*
X018557Y016284D01*
X018595Y016274D01*
X018783Y016274D01*
X018783Y016572D01*
X018880Y016572D01*
X018880Y016274D01*
X019068Y016274D01*
X019078Y016276D01*
X019078Y016215D01*
X018798Y016215D01*
X018798Y015760D01*
X018698Y015760D01*
X018698Y015842D02*
X018798Y015842D01*
X018798Y015941D02*
X018698Y015941D01*
X018698Y016039D02*
X018798Y016039D01*
X018798Y016138D02*
X018698Y016138D01*
X018783Y016335D02*
X018880Y016335D01*
X018880Y016433D02*
X018783Y016433D01*
X018783Y016532D02*
X018880Y016532D01*
X018880Y016669D02*
X018783Y016669D01*
X018783Y016967D01*
X018595Y016967D01*
X018557Y016957D01*
X018523Y016937D01*
X018495Y016909D01*
X018486Y016894D01*
X018433Y016947D01*
X018118Y016947D01*
X018048Y017012D01*
X018028Y017031D01*
X018083Y017086D01*
X018122Y017180D01*
X018122Y017281D01*
X018083Y017375D01*
X018011Y017447D01*
X017918Y017485D01*
X017816Y017485D01*
X017722Y017447D01*
X017716Y017440D01*
X017701Y017440D01*
X017671Y017470D01*
X017177Y017470D01*
X017177Y017494D01*
X017182Y017575D01*
X017177Y017580D01*
X017177Y017587D01*
X017120Y017645D01*
X017117Y017648D01*
X017117Y018475D01*
X017270Y018475D01*
X017270Y018415D01*
X017323Y018361D01*
X017308Y018352D01*
X017280Y018324D01*
X017260Y018290D01*
X017250Y018252D01*
X017250Y018064D01*
X017548Y018064D01*
X017548Y017967D01*
X017645Y017967D01*
X017645Y017649D01*
X017813Y017649D01*
X017852Y017660D01*
X017886Y017679D01*
X017909Y017702D01*
X017909Y017695D01*
X017959Y017575D01*
X018051Y017482D01*
X018057Y017480D01*
X018057Y017440D01*
X018152Y017440D01*
X018172Y017432D01*
X018302Y017432D01*
X018322Y017440D01*
X018362Y017440D01*
X018352Y017437D01*
X018281Y017365D01*
X018242Y017271D01*
X018242Y017170D01*
X018281Y017076D01*
X018352Y017004D01*
X018446Y016965D01*
X018548Y016965D01*
X018641Y017004D01*
X018713Y017076D01*
X018733Y017125D01*
X018746Y017125D01*
X018796Y017174D01*
X018853Y017214D01*
X018857Y017233D01*
X018870Y017246D01*
X018871Y017316D01*
X018883Y017385D01*
X018872Y017401D01*
X018873Y017439D01*
X018937Y017439D01*
X018939Y017440D01*
X019087Y017440D01*
X019083Y016963D01*
X019068Y016967D01*
X018880Y016967D01*
X018880Y016669D01*
X018880Y016729D02*
X018783Y016729D01*
X018783Y016827D02*
X018880Y016827D01*
X018880Y016926D02*
X018783Y016926D01*
X018661Y017024D02*
X019084Y017024D01*
X019084Y017123D02*
X018732Y017123D01*
X018855Y017221D02*
X019085Y017221D01*
X019086Y017320D02*
X018872Y017320D01*
X018873Y017418D02*
X019087Y017418D01*
X019256Y017418D02*
X019922Y017418D01*
X019922Y017320D02*
X019255Y017320D01*
X019255Y017221D02*
X019922Y017221D01*
X019922Y017123D02*
X019254Y017123D01*
X019254Y017024D02*
X019922Y017024D01*
X019922Y016926D02*
X019254Y016926D01*
X019253Y016827D02*
X019922Y016827D01*
X019922Y016729D02*
X019253Y016729D01*
X019252Y016630D02*
X019922Y016630D01*
X019922Y016532D02*
X019252Y016532D01*
X019251Y016433D02*
X019922Y016433D01*
X019922Y016335D02*
X019251Y016335D01*
X019250Y016236D02*
X019922Y016236D01*
X019922Y016138D02*
X019250Y016138D01*
X019249Y016039D02*
X019922Y016039D01*
X019922Y015941D02*
X019249Y015941D01*
X019249Y015842D02*
X019922Y015842D01*
X019922Y015744D02*
X019248Y015744D01*
X019248Y015645D02*
X019922Y015645D01*
X019922Y015547D02*
X019247Y015547D01*
X019247Y015448D02*
X019922Y015448D01*
X019922Y015350D02*
X019246Y015350D01*
X019246Y015251D02*
X019922Y015251D01*
X019922Y015153D02*
X019245Y015153D01*
X019245Y015054D02*
X019922Y015054D01*
X019922Y014956D02*
X019244Y014956D01*
X019244Y014857D02*
X019922Y014857D01*
X019922Y014759D02*
X019244Y014759D01*
X019243Y014660D02*
X019922Y014660D01*
X019922Y014562D02*
X019243Y014562D01*
X019242Y014463D02*
X019922Y014463D01*
X019922Y014365D02*
X019242Y014365D01*
X019241Y014266D02*
X019922Y014266D01*
X019922Y014168D02*
X019241Y014168D01*
X019240Y014069D02*
X019922Y014069D01*
X019922Y013971D02*
X019240Y013971D01*
X019239Y013872D02*
X019922Y013872D01*
X019922Y013774D02*
X019239Y013774D01*
X019238Y013675D02*
X019922Y013675D01*
X019922Y013577D02*
X019238Y013577D01*
X019238Y013483D02*
X019257Y017640D01*
X019013Y017640D01*
X019013Y018017D01*
X018937Y018093D01*
X018396Y018093D01*
X018366Y018062D01*
X018362Y018064D01*
X018361Y018144D01*
X018396Y018108D01*
X018937Y018108D01*
X019013Y018184D01*
X019013Y018686D01*
X018937Y018762D01*
X018545Y018762D01*
X018506Y018804D01*
X019003Y018804D01*
X019079Y018880D01*
X019079Y018898D01*
X019085Y018876D01*
X019105Y018842D01*
X019133Y018814D01*
X019167Y018794D01*
X019205Y018784D01*
X019373Y018784D01*
X019373Y019102D01*
X019470Y019102D01*
X019470Y019199D01*
X019373Y019199D01*
X019373Y019517D01*
X019205Y019517D01*
X019167Y019507D01*
X019133Y019487D01*
X019105Y019459D01*
X019085Y019425D01*
X019079Y019403D01*
X019079Y019421D01*
X019003Y019497D01*
X018973Y019497D01*
X019006Y019530D01*
X019006Y020031D01*
X018929Y020107D01*
X018897Y020107D01*
X018897Y020118D01*
X018934Y020118D01*
X019010Y020194D01*
X019010Y020396D01*
X019084Y020349D01*
X019084Y020228D01*
X019094Y020190D01*
X019114Y020156D01*
X019142Y020128D01*
X019176Y020108D01*
X019214Y020098D01*
X019382Y020098D01*
X019382Y020161D01*
X019479Y020100D01*
X019479Y020098D01*
X019483Y020098D01*
X019922Y019822D01*
X019922Y009265D01*
X019357Y009265D01*
X019357Y011160D01*
X018882Y011160D01*
X018882Y011260D01*
X019357Y011260D01*
X019357Y013355D01*
X019347Y013393D01*
X019327Y013428D01*
X019299Y013455D01*
X019265Y013475D01*
X019238Y013483D01*
X019254Y013478D02*
X019922Y013478D01*
X019922Y013380D02*
X019350Y013380D01*
X019357Y013281D02*
X019922Y013281D01*
X019922Y013183D02*
X019357Y013183D01*
X019357Y013084D02*
X019922Y013084D01*
X019922Y012986D02*
X019357Y012986D01*
X019357Y012887D02*
X019922Y012887D01*
X019922Y012789D02*
X019357Y012789D01*
X019357Y012690D02*
X019922Y012690D01*
X019922Y012592D02*
X019357Y012592D01*
X019357Y012493D02*
X019922Y012493D01*
X019922Y012395D02*
X019357Y012395D01*
X019357Y012296D02*
X019922Y012296D01*
X019922Y012198D02*
X019357Y012198D01*
X019357Y012099D02*
X019922Y012099D01*
X019922Y012001D02*
X019357Y012001D01*
X019357Y011902D02*
X019922Y011902D01*
X019922Y011804D02*
X019357Y011804D01*
X019357Y011705D02*
X019922Y011705D01*
X019922Y011607D02*
X019357Y011607D01*
X019357Y011508D02*
X019922Y011508D01*
X019922Y011410D02*
X019357Y011410D01*
X019357Y011311D02*
X019922Y011311D01*
X019922Y011213D02*
X018882Y011213D01*
X018882Y011260D02*
X018782Y011260D01*
X018782Y013329D01*
X018882Y013327D01*
X018882Y011260D01*
X018882Y011311D02*
X018782Y011311D01*
X018782Y011410D02*
X018882Y011410D01*
X018882Y011508D02*
X018782Y011508D01*
X018782Y011607D02*
X018882Y011607D01*
X018882Y011705D02*
X018782Y011705D01*
X018782Y011804D02*
X018882Y011804D01*
X018882Y011902D02*
X018782Y011902D01*
X018782Y012001D02*
X018882Y012001D01*
X018882Y012099D02*
X018782Y012099D01*
X018782Y012198D02*
X018882Y012198D01*
X018882Y012296D02*
X018782Y012296D01*
X018782Y012395D02*
X018882Y012395D01*
X018882Y012493D02*
X018782Y012493D01*
X018782Y012592D02*
X018882Y012592D01*
X018882Y012690D02*
X018782Y012690D01*
X018782Y012789D02*
X018882Y012789D01*
X018882Y012887D02*
X018782Y012887D01*
X018782Y012986D02*
X018882Y012986D01*
X018882Y013084D02*
X018782Y013084D01*
X018782Y013183D02*
X018882Y013183D01*
X018882Y013281D02*
X018782Y013281D01*
X019003Y013478D02*
X019057Y013478D01*
X019058Y013577D02*
X018904Y013577D01*
X018806Y013675D02*
X019059Y013675D01*
X019060Y013774D02*
X018909Y013774D01*
X018989Y013872D02*
X019060Y013872D01*
X019061Y013971D02*
X018994Y013971D01*
X018994Y014069D02*
X019062Y014069D01*
X018300Y014266D02*
X018117Y014266D01*
X018046Y014365D02*
X018301Y014365D01*
X018359Y014463D02*
X016528Y014463D01*
X016528Y014365D02*
X016967Y014365D01*
X016897Y014266D02*
X016528Y014266D01*
X016528Y014168D02*
X016897Y014168D01*
X016897Y014069D02*
X016517Y014069D01*
X016451Y013971D02*
X016887Y013971D01*
X016887Y013872D02*
X016451Y013872D01*
X016426Y013774D02*
X016887Y013774D01*
X016887Y013675D02*
X016345Y013675D01*
X016247Y013577D02*
X016887Y013577D01*
X016772Y013478D02*
X016254Y013478D01*
X016350Y013380D02*
X016535Y013380D01*
X016425Y013281D02*
X016357Y013281D01*
X015934Y013971D02*
X015597Y013971D01*
X015848Y014069D02*
X015886Y014069D01*
X015875Y014168D02*
X015859Y014168D01*
X015859Y014266D02*
X015875Y014266D01*
X015875Y014365D02*
X015859Y014365D01*
X015859Y014463D02*
X015875Y014463D01*
X015875Y014562D02*
X015859Y014562D01*
X015820Y014660D02*
X015914Y014660D01*
X015917Y014759D02*
X016068Y014759D01*
X016050Y014857D02*
X015923Y014857D01*
X015923Y014956D02*
X016050Y014956D01*
X015923Y015054D02*
X016368Y015054D01*
X016465Y015054D02*
X016897Y015054D01*
X016897Y014956D02*
X016783Y014956D01*
X016783Y014857D02*
X016897Y014857D01*
X016897Y014759D02*
X016766Y014759D01*
X016897Y014660D02*
X016489Y014660D01*
X016528Y014562D02*
X016922Y014562D01*
X017352Y014562D02*
X017662Y014562D01*
X017637Y014660D02*
X017377Y014660D01*
X017482Y014759D02*
X017637Y014759D01*
X017637Y014857D02*
X017606Y014857D01*
X017512Y014365D02*
X017502Y014365D01*
X017502Y014266D02*
X017512Y014266D01*
X017502Y014168D02*
X017512Y014168D01*
X017502Y014069D02*
X017512Y014069D01*
X017702Y014365D02*
X017707Y014365D01*
X018092Y014562D02*
X018320Y014562D01*
X018320Y014660D02*
X018117Y014660D01*
X018698Y015251D02*
X018798Y015251D01*
X018798Y015350D02*
X018698Y015350D01*
X018698Y015448D02*
X018798Y015448D01*
X018798Y015547D02*
X018698Y015547D01*
X018698Y015645D02*
X018798Y015645D01*
X018283Y015941D02*
X018144Y015941D01*
X018243Y016039D02*
X018283Y016039D01*
X018367Y016236D02*
X019078Y016236D01*
X018493Y016335D02*
X018474Y016335D01*
X018454Y016926D02*
X018511Y016926D01*
X018332Y017024D02*
X018035Y017024D01*
X018098Y017123D02*
X018261Y017123D01*
X018242Y017221D02*
X018122Y017221D01*
X018106Y017320D02*
X018262Y017320D01*
X018334Y017418D02*
X018040Y017418D01*
X018017Y017517D02*
X017178Y017517D01*
X017149Y017615D02*
X017942Y017615D01*
X017944Y017910D02*
X017944Y017967D01*
X017645Y017967D01*
X017645Y018064D01*
X017944Y018064D01*
X017944Y018252D01*
X017933Y018290D01*
X017914Y018324D01*
X017886Y018352D01*
X017870Y018361D01*
X017924Y018415D01*
X017924Y018955D01*
X017848Y019032D01*
X017346Y019032D01*
X017270Y018955D01*
X017270Y018895D01*
X016915Y018895D01*
X016810Y018790D01*
X016687Y018667D01*
X016687Y018564D01*
X016637Y018514D01*
X016637Y017760D01*
X016617Y017760D01*
X016617Y018514D01*
X016541Y018590D01*
X016213Y018590D01*
X016137Y018514D01*
X016137Y018280D01*
X016117Y018280D01*
X016117Y018514D01*
X016041Y018590D01*
X015713Y018590D01*
X015637Y018514D01*
X015637Y017730D01*
X015617Y017708D01*
X015617Y018514D01*
X015541Y018590D01*
X015213Y018590D01*
X015137Y018514D01*
X015137Y018276D01*
X014964Y018276D01*
X014964Y018336D01*
X014910Y018390D01*
X014926Y018399D01*
X014954Y018426D01*
X014973Y018461D01*
X014984Y018499D01*
X014984Y018687D01*
X014685Y018687D01*
X014685Y018784D01*
X014984Y018784D01*
X014984Y018971D01*
X014973Y019010D01*
X014954Y019044D01*
X014926Y019072D01*
X014916Y019077D01*
X014973Y019135D01*
X014973Y019237D01*
X014987Y019223D01*
X015110Y019100D01*
X016834Y019100D01*
X016954Y019220D01*
X017077Y019343D01*
X017077Y019447D01*
X017117Y019487D01*
X017308Y019487D01*
X017308Y019455D02*
X017685Y019455D01*
X017685Y019358D01*
X017308Y019358D01*
X017308Y019190D01*
X017318Y019152D01*
X017338Y019118D01*
X017366Y019090D01*
X017400Y019070D01*
X017438Y019060D01*
X017685Y019060D01*
X017685Y019358D01*
X017782Y019358D01*
X017782Y019060D01*
X017967Y019060D01*
X017967Y018854D01*
X017964Y018771D01*
X017967Y018768D01*
X017967Y018763D01*
X018026Y018705D01*
X018070Y018657D01*
X018063Y018044D01*
X018051Y018039D01*
X017959Y017946D01*
X017944Y017910D01*
X017944Y017911D02*
X017944Y017911D01*
X018022Y018009D02*
X017645Y018009D01*
X017548Y018009D02*
X017117Y018009D01*
X017117Y017911D02*
X017250Y017911D01*
X017250Y017967D02*
X017250Y017780D01*
X017260Y017741D01*
X017280Y017707D01*
X017308Y017679D01*
X017342Y017660D01*
X017380Y017649D01*
X017548Y017649D01*
X017548Y017967D01*
X017250Y017967D01*
X017250Y018108D02*
X017117Y018108D01*
X017117Y018206D02*
X017250Y018206D01*
X017269Y018305D02*
X017117Y018305D01*
X017117Y018403D02*
X017282Y018403D01*
X017270Y018896D02*
X014984Y018896D01*
X014978Y018994D02*
X017309Y018994D01*
X017363Y019093D02*
X014931Y019093D01*
X014973Y019191D02*
X015019Y019191D01*
X014984Y018797D02*
X016817Y018797D01*
X016718Y018699D02*
X014685Y018699D01*
X014984Y018600D02*
X016687Y018600D01*
X016637Y018502D02*
X016617Y018502D01*
X016617Y018403D02*
X016637Y018403D01*
X016637Y018305D02*
X016617Y018305D01*
X016617Y018206D02*
X016637Y018206D01*
X016637Y018108D02*
X016617Y018108D01*
X016617Y018009D02*
X016637Y018009D01*
X016637Y017911D02*
X016617Y017911D01*
X016617Y017812D02*
X016637Y017812D01*
X017117Y017812D02*
X017250Y017812D01*
X017276Y017714D02*
X017117Y017714D01*
X017548Y017714D02*
X017645Y017714D01*
X017645Y017812D02*
X017548Y017812D01*
X017548Y017911D02*
X017645Y017911D01*
X017944Y018108D02*
X018064Y018108D01*
X018065Y018206D02*
X017944Y018206D01*
X017925Y018305D02*
X018066Y018305D01*
X018067Y018403D02*
X017912Y018403D01*
X017924Y018502D02*
X018068Y018502D01*
X018069Y018600D02*
X017924Y018600D01*
X017924Y018699D02*
X018031Y018699D01*
X017965Y018797D02*
X017924Y018797D01*
X017924Y018896D02*
X017967Y018896D01*
X017967Y018994D02*
X017885Y018994D01*
X017782Y019093D02*
X017685Y019093D01*
X017685Y019191D02*
X017782Y019191D01*
X017782Y019290D02*
X017685Y019290D01*
X017685Y019388D02*
X017077Y019388D01*
X017117Y019487D02*
X017117Y019712D01*
X017206Y019675D01*
X017308Y019675D01*
X017333Y019686D01*
X017318Y019661D01*
X017308Y019623D01*
X017308Y019455D01*
X017308Y019585D02*
X017117Y019585D01*
X017117Y019684D02*
X017186Y019684D01*
X017328Y019684D02*
X017331Y019684D01*
X017440Y019753D02*
X017473Y019786D01*
X017490Y019828D01*
X017756Y019828D01*
X017827Y019753D01*
X017782Y019753D01*
X017782Y019455D01*
X017685Y019455D01*
X017685Y019753D01*
X017440Y019753D01*
X017469Y019782D02*
X017799Y019782D01*
X017782Y019684D02*
X017685Y019684D01*
X017685Y019585D02*
X017782Y019585D01*
X017782Y019487D02*
X017685Y019487D01*
X017308Y019290D02*
X017023Y019290D01*
X016925Y019191D02*
X017308Y019191D01*
X016637Y019585D02*
X016617Y019585D01*
X016617Y019684D02*
X016637Y019684D01*
X016637Y019782D02*
X016617Y019782D01*
X016617Y019881D02*
X016637Y019881D01*
X016637Y019979D02*
X016617Y019979D01*
X016617Y020078D02*
X016637Y020078D01*
X016637Y020176D02*
X016617Y020176D01*
X016617Y020275D02*
X016637Y020275D01*
X016637Y020373D02*
X016617Y020373D01*
X016691Y020472D02*
X016743Y020472D01*
X016725Y020570D02*
X016709Y020570D01*
X016709Y020669D02*
X016725Y020669D01*
X016725Y020767D02*
X016709Y020767D01*
X016709Y020866D02*
X016725Y020866D01*
X016725Y020964D02*
X016709Y020964D01*
X016677Y021063D02*
X016757Y021063D01*
X016592Y021161D02*
X018356Y021161D01*
X018356Y021063D02*
X017346Y021063D01*
X017378Y020964D02*
X018087Y020964D01*
X018087Y020866D02*
X017378Y020866D01*
X017378Y020767D02*
X018023Y020767D01*
X017952Y020669D02*
X017378Y020669D01*
X017378Y020570D02*
X017932Y020570D01*
X018356Y021260D02*
X017356Y021260D01*
X017368Y021272D02*
X017388Y021306D01*
X017398Y021344D01*
X017398Y021532D01*
X017100Y021532D01*
X017100Y021214D01*
X017268Y021214D01*
X017306Y021224D01*
X017340Y021244D01*
X017368Y021272D01*
X017398Y021358D02*
X018356Y021358D01*
X018356Y021457D02*
X017398Y021457D01*
X017398Y021629D02*
X017100Y021629D01*
X017100Y021947D01*
X017268Y021947D01*
X017306Y021937D01*
X017340Y021917D01*
X017368Y021889D01*
X017388Y021855D01*
X017398Y021817D01*
X017398Y021629D01*
X017398Y021654D02*
X018356Y021654D01*
X018356Y021752D02*
X017398Y021752D01*
X017389Y021851D02*
X018409Y021851D01*
X018597Y021949D02*
X016087Y021949D01*
X016087Y022048D02*
X018597Y022048D01*
X018597Y022146D02*
X016087Y022146D01*
X016040Y022245D02*
X018597Y022245D01*
X018597Y022343D02*
X015941Y022343D01*
X015843Y022442D02*
X018597Y022442D01*
X018597Y022540D02*
X015864Y022540D01*
X015963Y022639D02*
X018597Y022639D01*
X018597Y022737D02*
X016042Y022737D01*
X016083Y022836D02*
X018597Y022836D01*
X018597Y022934D02*
X016087Y022934D01*
X016072Y023033D02*
X018597Y023033D01*
X018243Y023131D02*
X016031Y023131D01*
X016479Y023230D02*
X018187Y023230D01*
X018187Y023328D02*
X016486Y023328D01*
X016486Y023427D02*
X018187Y023427D01*
X018221Y023525D02*
X016486Y023525D01*
X016460Y024313D02*
X018187Y024313D01*
X018187Y024412D02*
X016486Y024412D01*
X016486Y024510D02*
X018187Y024510D01*
X018202Y024609D02*
X016486Y024609D01*
X016423Y024707D02*
X018543Y024707D01*
X017998Y024806D02*
X016087Y024806D01*
X016082Y024904D02*
X017997Y024904D01*
X017997Y025003D02*
X016036Y025003D01*
X015952Y025101D02*
X017997Y025101D01*
X017997Y025200D02*
X015844Y025200D01*
X015737Y025298D02*
X017997Y025298D01*
X017997Y025397D02*
X015629Y025397D01*
X014847Y025397D02*
X013982Y025397D01*
X013982Y025298D02*
X014847Y025298D01*
X014847Y025200D02*
X013982Y025200D01*
X013982Y025101D02*
X014843Y025101D01*
X014847Y025003D02*
X013982Y025003D01*
X013982Y024904D02*
X014847Y024904D01*
X014878Y024806D02*
X013982Y024806D01*
X013982Y024707D02*
X014991Y024707D01*
X014927Y024609D02*
X013982Y024609D01*
X013982Y024510D02*
X014927Y024510D01*
X014927Y024412D02*
X013982Y024412D01*
X013982Y024313D02*
X014953Y024313D01*
X014927Y023525D02*
X013982Y023525D01*
X013982Y023427D02*
X014927Y023427D01*
X014927Y023328D02*
X013982Y023328D01*
X013982Y023230D02*
X014935Y023230D01*
X015228Y023033D02*
X015282Y023033D01*
X015380Y023131D02*
X013982Y023131D01*
X013982Y023033D02*
X014386Y023033D01*
X014322Y022934D02*
X013982Y022934D01*
X013982Y022836D02*
X014322Y022836D01*
X014322Y022737D02*
X013982Y022737D01*
X013982Y022639D02*
X014322Y022639D01*
X014322Y022540D02*
X013982Y022540D01*
X013982Y022442D02*
X014322Y022442D01*
X014322Y022343D02*
X013982Y022343D01*
X013982Y022245D02*
X014322Y022245D01*
X014394Y021935D02*
X014360Y021916D01*
X014332Y021888D01*
X014312Y021853D01*
X014302Y021815D01*
X014302Y021531D01*
X014757Y021531D01*
X014757Y021946D01*
X014432Y021946D01*
X014394Y021935D01*
X014311Y021851D02*
X013982Y021851D01*
X013982Y021949D02*
X015667Y021949D01*
X015667Y021851D02*
X015302Y021851D01*
X015302Y021853D02*
X015282Y021888D01*
X015254Y021916D01*
X015220Y021935D01*
X015182Y021946D01*
X014857Y021946D01*
X014857Y021531D01*
X014757Y021531D01*
X014757Y021431D01*
X014302Y021431D01*
X014302Y021146D01*
X014312Y021108D01*
X014332Y021074D01*
X014360Y021046D01*
X014394Y021026D01*
X014432Y021016D01*
X014757Y021016D01*
X014757Y021431D01*
X014857Y021431D01*
X014857Y021531D01*
X015312Y021531D01*
X015312Y021815D01*
X015302Y021853D01*
X015312Y021752D02*
X015667Y021752D01*
X015667Y021654D02*
X015312Y021654D01*
X015312Y021555D02*
X015667Y021555D01*
X015667Y021457D02*
X014857Y021457D01*
X014857Y021431D02*
X015312Y021431D01*
X015312Y021146D01*
X015302Y021108D01*
X015282Y021074D01*
X015254Y021046D01*
X015220Y021026D01*
X015182Y021016D01*
X014857Y021016D01*
X014857Y021431D01*
X014857Y021358D02*
X014757Y021358D01*
X014757Y021260D02*
X014857Y021260D01*
X014857Y021161D02*
X014757Y021161D01*
X014757Y021063D02*
X014857Y021063D01*
X014757Y021457D02*
X013982Y021457D01*
X013982Y021555D02*
X014302Y021555D01*
X014302Y021654D02*
X013982Y021654D01*
X013982Y021752D02*
X014302Y021752D01*
X014302Y021358D02*
X013982Y021358D01*
X013982Y021260D02*
X014302Y021260D01*
X014302Y021161D02*
X013982Y021161D01*
X013982Y021063D02*
X014343Y021063D01*
X014757Y021555D02*
X014857Y021555D01*
X014857Y021654D02*
X014757Y021654D01*
X014757Y021752D02*
X014857Y021752D01*
X014857Y021851D02*
X014757Y021851D01*
X015312Y021358D02*
X015667Y021358D01*
X015667Y021260D02*
X015312Y021260D01*
X015312Y021161D02*
X015667Y021161D01*
X015667Y021063D02*
X015271Y021063D01*
X015667Y020964D02*
X013982Y020964D01*
X013982Y020866D02*
X015667Y020866D01*
X015667Y020767D02*
X013982Y020767D01*
X013982Y020669D02*
X015667Y020669D01*
X015667Y020570D02*
X013982Y020570D01*
X013982Y020472D02*
X015667Y020472D01*
X015637Y020373D02*
X015628Y020373D01*
X015637Y020275D02*
X015637Y020275D01*
X015637Y020176D02*
X015637Y020176D01*
X015637Y020078D02*
X015637Y020078D01*
X015637Y019979D02*
X015637Y019979D01*
X015637Y019881D02*
X015637Y019881D01*
X015637Y019782D02*
X015637Y019782D01*
X015637Y019684D02*
X015637Y019684D01*
X015637Y019585D02*
X015637Y019585D01*
X015382Y019979D02*
X015372Y019979D01*
X015372Y020078D02*
X015382Y020078D01*
X015372Y020176D02*
X015382Y020176D01*
X015372Y020275D02*
X015382Y020275D01*
X015372Y020373D02*
X015382Y020373D01*
X015126Y020373D02*
X014906Y020373D01*
X014973Y020275D02*
X015117Y020275D01*
X015117Y020176D02*
X015008Y020176D01*
X015107Y020078D02*
X015117Y020078D01*
X014348Y020373D02*
X013982Y020373D01*
X013982Y020275D02*
X014280Y020275D01*
X014280Y020176D02*
X013982Y020176D01*
X013982Y020078D02*
X014280Y020078D01*
X014280Y019979D02*
X013982Y019979D01*
X013982Y019881D02*
X014280Y019881D01*
X014303Y019782D02*
X013982Y019782D01*
X013982Y019684D02*
X014328Y019684D01*
X014280Y019585D02*
X013982Y019585D01*
X013982Y019487D02*
X014226Y019487D01*
X014136Y019388D02*
X013982Y019388D01*
X013982Y019290D02*
X014054Y019290D01*
X014057Y019191D02*
X013982Y019191D01*
X013982Y019093D02*
X014057Y019093D01*
X014057Y018994D02*
X013982Y018994D01*
X013982Y018896D02*
X014057Y018896D01*
X014057Y018797D02*
X013982Y018797D01*
X013982Y018699D02*
X014057Y018699D01*
X014057Y018600D02*
X013982Y018600D01*
X013982Y018502D02*
X014057Y018502D01*
X014057Y018403D02*
X013982Y018403D01*
X013982Y018305D02*
X014057Y018305D01*
X014057Y018206D02*
X013982Y018206D01*
X013982Y018108D02*
X014057Y018108D01*
X014057Y018009D02*
X013982Y018009D01*
X013982Y017911D02*
X014057Y017911D01*
X014057Y017812D02*
X013982Y017812D01*
X013982Y017714D02*
X014057Y017714D01*
X014057Y017615D02*
X013982Y017615D01*
X013982Y017517D02*
X014056Y017517D01*
X014057Y017418D02*
X013982Y017418D01*
X013982Y017320D02*
X014121Y017320D01*
X014135Y017221D02*
X013982Y017221D01*
X013982Y017123D02*
X014135Y017123D01*
X014135Y017024D02*
X013982Y017024D01*
X013982Y016926D02*
X014150Y016926D01*
X014252Y016827D02*
X013982Y016827D01*
X013982Y016729D02*
X014252Y016729D01*
X014116Y016630D02*
X013982Y016630D01*
X013982Y016532D02*
X014116Y016532D01*
X014116Y016433D02*
X013982Y016433D01*
X013982Y016335D02*
X014116Y016335D01*
X014116Y016236D02*
X013982Y016236D01*
X013982Y016138D02*
X014116Y016138D01*
X013982Y016039D02*
X016207Y016039D01*
X016207Y016138D02*
X015478Y016138D01*
X015478Y016236D02*
X016207Y016236D01*
X015967Y016335D02*
X015478Y016335D01*
X015478Y016433D02*
X015967Y016433D01*
X015967Y016532D02*
X015478Y016532D01*
X015544Y016630D02*
X015967Y016630D01*
X015947Y016729D02*
X015633Y016729D01*
X015918Y015941D02*
X016070Y015941D01*
X016070Y015448D02*
X015923Y015448D01*
X015923Y015251D02*
X016053Y015251D01*
X016050Y015153D02*
X015923Y015153D01*
X016120Y015350D02*
X013982Y015350D01*
X013982Y015448D02*
X014841Y015448D01*
X014726Y015547D02*
X013982Y015547D01*
X013982Y015645D02*
X014692Y015645D01*
X014697Y015744D02*
X013982Y015744D01*
X013982Y015842D02*
X014748Y015842D01*
X015235Y015941D02*
X013982Y015941D01*
X013982Y015251D02*
X015230Y015251D01*
X015230Y015153D02*
X013982Y015153D01*
X013982Y015054D02*
X015230Y015054D01*
X015230Y014956D02*
X013982Y014956D01*
X013982Y014857D02*
X015230Y014857D01*
X015237Y014759D02*
X013982Y014759D01*
X013982Y014660D02*
X015245Y014660D01*
X015104Y014562D02*
X013982Y014562D01*
X013982Y014463D02*
X015071Y014463D01*
X015077Y014365D02*
X013982Y014365D01*
X013982Y014266D02*
X015062Y014266D01*
X015081Y014168D02*
X013982Y014168D01*
X013982Y014069D02*
X014657Y014069D01*
X014672Y014084D02*
X014633Y014046D01*
X014603Y014001D01*
X014582Y013951D01*
X014572Y013898D01*
X014572Y013883D01*
X014834Y013883D01*
X014834Y014145D01*
X014820Y014145D01*
X014767Y014135D01*
X014717Y014114D01*
X014672Y014084D01*
X014591Y013971D02*
X013982Y013971D01*
X013982Y013872D02*
X014834Y013872D01*
X014834Y013774D02*
X014859Y013774D01*
X014859Y013675D02*
X014834Y013675D01*
X014969Y013577D02*
X013982Y013577D01*
X013982Y013675D02*
X014653Y013675D01*
X014589Y013774D02*
X013982Y013774D01*
X013982Y013478D02*
X014969Y013478D01*
X015028Y013380D02*
X013982Y013380D01*
X013982Y013281D02*
X015307Y013281D01*
X015307Y013183D02*
X013982Y013183D01*
X013982Y013084D02*
X015307Y013084D01*
X015307Y012986D02*
X013982Y012986D01*
X013982Y012887D02*
X015307Y012887D01*
X015307Y012789D02*
X013982Y012789D01*
X013982Y012690D02*
X015307Y012690D01*
X015307Y012592D02*
X013982Y012592D01*
X013982Y012493D02*
X015307Y012493D01*
X015307Y012395D02*
X013982Y012395D01*
X013982Y012296D02*
X015307Y012296D01*
X015307Y012198D02*
X013982Y012198D01*
X013982Y012099D02*
X015307Y012099D01*
X015307Y012001D02*
X013982Y012001D01*
X013982Y011902D02*
X015307Y011902D01*
X015307Y011804D02*
X013982Y011804D01*
X013982Y011705D02*
X015307Y011705D01*
X015307Y011607D02*
X013982Y011607D01*
X013982Y011508D02*
X015307Y011508D01*
X015307Y011410D02*
X013982Y011410D01*
X013982Y011311D02*
X015307Y011311D01*
X015307Y011114D02*
X013982Y011114D01*
X013982Y011016D02*
X015307Y011016D01*
X015307Y010917D02*
X013982Y010917D01*
X013982Y010819D02*
X015307Y010819D01*
X015307Y010720D02*
X013982Y010720D01*
X013982Y010622D02*
X015307Y010622D01*
X015307Y010523D02*
X013982Y010523D01*
X013982Y010425D02*
X015307Y010425D01*
X015307Y010326D02*
X013982Y010326D01*
X013982Y010228D02*
X015307Y010228D01*
X015307Y010129D02*
X013982Y010129D01*
X013982Y010031D02*
X015307Y010031D01*
X015307Y009932D02*
X013982Y009932D01*
X013982Y009834D02*
X015307Y009834D01*
X015307Y009735D02*
X013982Y009735D01*
X013982Y009637D02*
X015307Y009637D01*
X015307Y009538D02*
X013982Y009538D01*
X013982Y009440D02*
X015307Y009440D01*
X015307Y009341D02*
X013982Y009341D01*
X012183Y011508D02*
X008054Y011508D01*
X008054Y011607D02*
X012165Y011607D01*
X012165Y011705D02*
X008054Y011705D01*
X008054Y011804D02*
X012193Y011804D01*
X012234Y011902D02*
X008024Y011902D01*
X007983Y012001D02*
X010708Y012001D01*
X010667Y012099D02*
X007942Y012099D01*
X007887Y012198D02*
X010667Y012198D01*
X010667Y012296D02*
X007789Y012296D01*
X007690Y012395D02*
X010715Y012395D01*
X010992Y012493D02*
X007514Y012493D01*
X006630Y013872D02*
X006616Y013872D01*
X006159Y013872D02*
X005513Y013872D01*
X005513Y013774D02*
X006159Y013774D01*
X006159Y013675D02*
X005513Y013675D01*
X005513Y013577D02*
X006159Y013577D01*
X006179Y013478D02*
X005493Y013478D01*
X005077Y013478D02*
X002726Y013478D01*
X002824Y013577D02*
X005056Y013577D01*
X005056Y013675D02*
X002923Y013675D01*
X003021Y013774D02*
X005056Y013774D01*
X005513Y013971D02*
X006159Y013971D01*
X006159Y014069D02*
X005513Y014069D01*
X005513Y014168D02*
X006159Y014168D01*
X006159Y014266D02*
X005513Y014266D01*
X005513Y014365D02*
X006159Y014365D01*
X006159Y014463D02*
X005513Y014463D01*
X005513Y014562D02*
X006159Y014562D01*
X006159Y014660D02*
X005513Y014660D01*
X005513Y014759D02*
X006159Y014759D01*
X006159Y014857D02*
X005513Y014857D01*
X005463Y014956D02*
X006209Y014956D01*
X006566Y014956D02*
X009195Y014956D01*
X009007Y015054D02*
X003537Y015054D01*
X003653Y015153D02*
X008819Y015153D01*
X009384Y014857D02*
X006616Y014857D01*
X006616Y014759D02*
X009572Y014759D01*
X009761Y014660D02*
X006616Y014660D01*
X006616Y014562D02*
X006681Y014562D01*
X005106Y014956D02*
X003420Y014956D01*
X003304Y014857D02*
X005056Y014857D01*
X005056Y014759D02*
X003187Y014759D01*
X003071Y014660D02*
X005056Y014660D01*
X005051Y014562D02*
X005056Y014562D01*
X006209Y011902D02*
X001116Y011902D01*
X001116Y011804D02*
X006179Y011804D01*
X006179Y011705D02*
X001116Y011705D01*
X001116Y011607D02*
X006179Y011607D01*
X006179Y011508D02*
X001116Y011508D01*
X001116Y011410D02*
X006198Y011410D01*
X006205Y009834D02*
X005467Y009834D01*
X005513Y009735D02*
X006159Y009735D01*
X006159Y009637D02*
X005513Y009637D01*
X005513Y009538D02*
X006159Y009538D01*
X006159Y009440D02*
X005513Y009440D01*
X005513Y009341D02*
X006159Y009341D01*
X006159Y009243D02*
X005513Y009243D01*
X005513Y009144D02*
X006159Y009144D01*
X006159Y009046D02*
X005513Y009046D01*
X005513Y008947D02*
X006159Y008947D01*
X006159Y008849D02*
X005513Y008849D01*
X005513Y008750D02*
X006159Y008750D01*
X006159Y008652D02*
X005513Y008652D01*
X005513Y008553D02*
X006159Y008553D01*
X006159Y008455D02*
X005513Y008455D01*
X005489Y008356D02*
X006183Y008356D01*
X005081Y008356D02*
X003321Y008356D01*
X003209Y008455D02*
X005056Y008455D01*
X005056Y008553D02*
X003098Y008553D01*
X002987Y008652D02*
X005056Y008652D01*
X005056Y008750D02*
X004950Y008750D01*
X005004Y009440D02*
X005056Y009440D01*
X001676Y009834D02*
X001650Y009834D01*
X001636Y009932D02*
X001539Y009932D01*
X001636Y010031D02*
X001428Y010031D01*
X001316Y010129D02*
X001636Y010129D01*
X001636Y010228D02*
X001205Y010228D01*
X001116Y010326D02*
X001636Y010326D01*
X001636Y010425D02*
X001116Y010425D01*
X001116Y010523D02*
X001636Y010523D01*
X001636Y010622D02*
X001116Y010622D01*
X001116Y010720D02*
X001636Y010720D01*
X001652Y010819D02*
X001116Y010819D01*
X001116Y010917D02*
X001240Y010917D01*
X001218Y011016D02*
X001116Y011016D01*
X001116Y011114D02*
X001218Y011114D01*
X001218Y011213D02*
X001116Y011213D01*
X001116Y011311D02*
X001285Y011311D01*
X001259Y012001D02*
X001116Y012001D01*
X001116Y012099D02*
X001218Y012099D01*
X001218Y012198D02*
X001116Y012198D01*
X001116Y012296D02*
X001218Y012296D01*
X001266Y012395D02*
X001116Y012395D01*
X001116Y012493D02*
X001693Y012493D01*
X001652Y012592D02*
X001116Y012592D01*
X001116Y012690D02*
X001636Y012690D01*
X001636Y012789D02*
X001116Y012789D01*
X001116Y012887D02*
X001636Y012887D01*
X001636Y012986D02*
X001116Y012986D01*
X001208Y013084D02*
X001636Y013084D01*
X001636Y013183D02*
X001325Y013183D01*
X001441Y013281D02*
X001636Y013281D01*
X001636Y013380D02*
X001558Y013380D01*
X001674Y013478D02*
X001676Y013478D01*
X003677Y019266D02*
X002863Y019986D01*
X004852Y019986D01*
X004992Y020044D01*
X005017Y020069D01*
X005017Y019641D01*
X005093Y019564D01*
X005398Y019564D01*
X005474Y019641D01*
X005474Y021047D01*
X005398Y021124D01*
X005093Y021124D01*
X005017Y021047D01*
X005017Y020663D01*
X004992Y020688D01*
X004852Y020746D01*
X003034Y020746D01*
X002357Y021423D01*
X002357Y022042D01*
X002323Y022123D01*
X002661Y022123D01*
X002738Y022200D01*
X002738Y022504D01*
X002661Y022580D01*
X001254Y022580D01*
X001178Y022504D01*
X001178Y022200D01*
X001254Y022123D01*
X001631Y022123D01*
X001597Y022042D01*
X001597Y021190D01*
X001652Y021057D01*
X001077Y021566D01*
X001077Y024266D01*
X001638Y024741D01*
X001597Y024642D01*
X001597Y023890D01*
X001655Y023751D01*
X001723Y023683D01*
X001254Y023683D01*
X001178Y023607D01*
X001178Y023302D01*
X001254Y023226D01*
X002661Y023226D01*
X002738Y023302D01*
X002738Y023607D01*
X002661Y023683D01*
X002231Y023683D01*
X002299Y023751D01*
X002357Y023890D01*
X002357Y024409D01*
X003034Y025086D01*
X004952Y025086D01*
X005017Y025113D01*
X005017Y024759D01*
X005093Y024683D01*
X005398Y024683D01*
X005474Y024759D01*
X005474Y026166D01*
X005398Y026242D01*
X005093Y026242D01*
X005017Y026166D01*
X005017Y025819D01*
X004952Y025846D01*
X002944Y025846D01*
X003677Y026466D01*
X008677Y026466D01*
X009903Y025825D01*
X009852Y025846D01*
X006701Y025846D01*
X006576Y025794D01*
X006576Y026166D01*
X006500Y026242D01*
X006195Y026242D01*
X006119Y026166D01*
X006119Y024759D01*
X006195Y024683D01*
X006500Y024683D01*
X006576Y024759D01*
X006576Y025138D01*
X006701Y025086D01*
X009619Y025086D01*
X011023Y023683D01*
X010703Y023683D01*
X010627Y023607D01*
X010627Y023302D01*
X010703Y023226D01*
X012110Y023226D01*
X012186Y023302D01*
X012186Y023607D01*
X012110Y023683D01*
X011712Y023683D01*
X011757Y023790D01*
X011757Y023942D01*
X011699Y024081D01*
X010099Y025681D01*
X010012Y025768D01*
X013077Y024166D01*
X013077Y021466D01*
X008577Y019266D01*
X003677Y019266D01*
X003650Y019290D02*
X008625Y019290D01*
X008827Y019388D02*
X003539Y019388D01*
X003427Y019487D02*
X009028Y019487D01*
X009015Y019576D02*
X009208Y019588D01*
X009381Y019672D01*
X009509Y019817D01*
X009571Y019999D01*
X009560Y020191D01*
X009164Y021001D01*
X009020Y021129D01*
X008838Y021192D01*
X008646Y021180D01*
X008472Y021095D01*
X008345Y020951D01*
X008282Y020769D01*
X008283Y020746D01*
X006601Y020746D01*
X006576Y020736D01*
X006576Y021047D01*
X006500Y021124D01*
X006195Y021124D01*
X006119Y021047D01*
X006119Y019641D01*
X006195Y019564D01*
X006500Y019564D01*
X006576Y019641D01*
X006576Y019996D01*
X006601Y019986D01*
X008582Y019986D01*
X008689Y019767D01*
X008833Y019639D01*
X009015Y019576D01*
X008989Y019585D02*
X006521Y019585D01*
X006576Y019684D02*
X008782Y019684D01*
X008681Y019782D02*
X006576Y019782D01*
X006576Y019881D02*
X008633Y019881D01*
X008585Y019979D02*
X006576Y019979D01*
X006119Y019979D02*
X005474Y019979D01*
X005474Y019881D02*
X006119Y019881D01*
X006119Y019782D02*
X005474Y019782D01*
X005474Y019684D02*
X006119Y019684D01*
X006175Y019585D02*
X005418Y019585D01*
X005072Y019585D02*
X003316Y019585D01*
X003205Y019684D02*
X005017Y019684D01*
X005017Y019782D02*
X003093Y019782D01*
X002982Y019881D02*
X005017Y019881D01*
X005017Y019979D02*
X002871Y019979D01*
X003013Y020767D02*
X005017Y020767D01*
X005012Y020669D02*
X005017Y020669D01*
X005017Y020866D02*
X002915Y020866D01*
X002816Y020964D02*
X005017Y020964D01*
X005032Y021063D02*
X002718Y021063D01*
X002619Y021161D02*
X008607Y021161D01*
X008444Y021063D02*
X006561Y021063D01*
X006576Y020964D02*
X008356Y020964D01*
X008315Y020866D02*
X006576Y020866D01*
X006576Y020767D02*
X008282Y020767D01*
X008926Y021161D02*
X009184Y021161D01*
X009181Y021207D02*
X009193Y021015D01*
X009588Y020205D01*
X009732Y020077D01*
X009914Y020014D01*
X010107Y020026D01*
X010280Y020111D01*
X010407Y020255D01*
X010470Y020437D01*
X010459Y020611D01*
X011699Y021851D01*
X011757Y021990D01*
X011757Y022123D01*
X012110Y022123D01*
X012186Y022200D01*
X012186Y022504D01*
X012110Y022580D01*
X010703Y022580D01*
X010627Y022504D01*
X010627Y022200D01*
X010703Y022123D01*
X010897Y022123D01*
X010112Y021339D01*
X010063Y021440D01*
X009919Y021567D01*
X009737Y021630D01*
X009544Y021618D01*
X009371Y021534D01*
X009244Y021389D01*
X009181Y021207D01*
X009199Y021260D02*
X002521Y021260D01*
X002422Y021358D02*
X009233Y021358D01*
X009303Y021457D02*
X002357Y021457D01*
X002357Y021555D02*
X009415Y021555D01*
X009190Y021063D02*
X009095Y021063D01*
X009182Y020964D02*
X009217Y020964D01*
X009231Y020866D02*
X009265Y020866D01*
X009279Y020767D02*
X009313Y020767D01*
X009327Y020669D02*
X009361Y020669D01*
X009375Y020570D02*
X009410Y020570D01*
X009423Y020472D02*
X009458Y020472D01*
X009471Y020373D02*
X009506Y020373D01*
X009519Y020275D02*
X009554Y020275D01*
X009560Y020176D02*
X009620Y020176D01*
X009566Y020078D02*
X009731Y020078D01*
X009565Y019979D02*
X010036Y019979D01*
X010212Y020078D02*
X010237Y020078D01*
X010338Y020176D02*
X010439Y020176D01*
X010414Y020275D02*
X010640Y020275D01*
X010448Y020373D02*
X010842Y020373D01*
X011043Y020472D02*
X010468Y020472D01*
X010462Y020570D02*
X011244Y020570D01*
X011446Y020669D02*
X010517Y020669D01*
X010615Y020767D02*
X011647Y020767D01*
X011849Y020866D02*
X010714Y020866D01*
X010812Y020964D02*
X012050Y020964D01*
X012252Y021063D02*
X010911Y021063D01*
X011009Y021161D02*
X012453Y021161D01*
X012655Y021260D02*
X011108Y021260D01*
X011206Y021358D02*
X012856Y021358D01*
X013058Y021457D02*
X011305Y021457D01*
X011403Y021555D02*
X013077Y021555D01*
X013077Y021654D02*
X011502Y021654D01*
X011600Y021752D02*
X013077Y021752D01*
X013077Y021851D02*
X011699Y021851D01*
X011740Y021949D02*
X013077Y021949D01*
X013077Y022048D02*
X011757Y022048D01*
X012133Y022146D02*
X013077Y022146D01*
X013077Y022245D02*
X012186Y022245D01*
X012186Y022343D02*
X013077Y022343D01*
X013077Y022442D02*
X012683Y022442D01*
X012680Y022441D02*
X012850Y022511D01*
X012980Y022641D01*
X013050Y022811D01*
X013050Y022995D01*
X012980Y023165D01*
X012850Y023295D01*
X012680Y023366D01*
X012496Y023366D01*
X012326Y023295D01*
X012196Y023165D01*
X012125Y022995D01*
X012125Y022811D01*
X012196Y022641D01*
X012326Y022511D01*
X012496Y022441D01*
X012680Y022441D01*
X012493Y022442D02*
X012186Y022442D01*
X012150Y022540D02*
X012297Y022540D01*
X012198Y022639D02*
X007982Y022639D01*
X008014Y022717D02*
X007872Y022372D01*
X007608Y022108D01*
X007263Y021966D01*
X006890Y021966D01*
X006546Y022108D01*
X006282Y022372D01*
X006139Y022717D01*
X006139Y023090D01*
X006282Y023434D01*
X006546Y023698D01*
X006890Y023840D01*
X007263Y023840D01*
X007608Y023698D01*
X007872Y023434D01*
X008014Y023090D01*
X008014Y022717D01*
X008014Y022737D02*
X012156Y022737D01*
X012125Y022836D02*
X008014Y022836D01*
X008014Y022934D02*
X012125Y022934D01*
X012141Y023033D02*
X008014Y023033D01*
X007997Y023131D02*
X012182Y023131D01*
X012114Y023230D02*
X012260Y023230D01*
X012186Y023328D02*
X012406Y023328D01*
X012186Y023427D02*
X013077Y023427D01*
X013077Y023525D02*
X012186Y023525D01*
X012169Y023624D02*
X013077Y023624D01*
X013077Y023722D02*
X011729Y023722D01*
X011757Y023821D02*
X013077Y023821D01*
X013077Y023919D02*
X011757Y023919D01*
X011725Y024018D02*
X013077Y024018D01*
X013077Y024116D02*
X011664Y024116D01*
X011566Y024215D02*
X012984Y024215D01*
X012795Y024313D02*
X011467Y024313D01*
X011369Y024412D02*
X012607Y024412D01*
X012418Y024510D02*
X011270Y024510D01*
X011172Y024609D02*
X012230Y024609D01*
X012042Y024707D02*
X011073Y024707D01*
X010975Y024806D02*
X011853Y024806D01*
X011665Y024904D02*
X010876Y024904D01*
X010778Y025003D02*
X011476Y025003D01*
X011288Y025101D02*
X010679Y025101D01*
X010581Y025200D02*
X011099Y025200D01*
X010911Y025298D02*
X010482Y025298D01*
X010384Y025397D02*
X010722Y025397D01*
X010534Y025495D02*
X010285Y025495D01*
X010346Y025594D02*
X010187Y025594D01*
X010157Y025692D02*
X010088Y025692D01*
X009780Y025889D02*
X006576Y025889D01*
X006576Y025988D02*
X009592Y025988D01*
X009403Y026086D02*
X006576Y026086D01*
X006557Y026185D02*
X009215Y026185D01*
X009027Y026283D02*
X003461Y026283D01*
X003344Y026185D02*
X005036Y026185D01*
X005017Y026086D02*
X003228Y026086D01*
X003112Y025988D02*
X005017Y025988D01*
X005017Y025889D02*
X002995Y025889D01*
X003577Y026382D02*
X008838Y026382D01*
X009703Y025003D02*
X006576Y025003D01*
X006576Y025101D02*
X006665Y025101D01*
X006576Y024904D02*
X009801Y024904D01*
X009900Y024806D02*
X006576Y024806D01*
X006525Y024707D02*
X009998Y024707D01*
X010097Y024609D02*
X002557Y024609D01*
X002655Y024707D02*
X005068Y024707D01*
X005017Y024806D02*
X002754Y024806D01*
X002852Y024904D02*
X005017Y024904D01*
X005017Y025003D02*
X002951Y025003D01*
X002458Y024510D02*
X010195Y024510D01*
X010294Y024412D02*
X002360Y024412D01*
X002357Y024313D02*
X010392Y024313D01*
X010491Y024215D02*
X002357Y024215D01*
X002357Y024116D02*
X010589Y024116D01*
X010688Y024018D02*
X002357Y024018D01*
X002357Y023919D02*
X010786Y023919D01*
X010885Y023821D02*
X007311Y023821D01*
X007549Y023722D02*
X010983Y023722D01*
X010644Y023624D02*
X007682Y023624D01*
X007780Y023525D02*
X010627Y023525D01*
X010627Y023427D02*
X007875Y023427D01*
X007915Y023328D02*
X010627Y023328D01*
X010699Y023230D02*
X007956Y023230D01*
X007941Y022540D02*
X010663Y022540D01*
X010627Y022442D02*
X007900Y022442D01*
X007843Y022343D02*
X010627Y022343D01*
X010627Y022245D02*
X007744Y022245D01*
X007646Y022146D02*
X010681Y022146D01*
X010821Y022048D02*
X007461Y022048D01*
X006692Y022048D02*
X002354Y022048D01*
X002357Y021949D02*
X010723Y021949D01*
X010624Y021851D02*
X002357Y021851D01*
X002357Y021752D02*
X010526Y021752D01*
X010427Y021654D02*
X002357Y021654D01*
X002684Y022146D02*
X006508Y022146D01*
X006409Y022245D02*
X002738Y022245D01*
X002738Y022343D02*
X006311Y022343D01*
X006253Y022442D02*
X002738Y022442D01*
X002701Y022540D02*
X006213Y022540D01*
X006172Y022639D02*
X001077Y022639D01*
X001077Y022737D02*
X006139Y022737D01*
X006139Y022836D02*
X001077Y022836D01*
X001077Y022934D02*
X006139Y022934D01*
X006139Y023033D02*
X001077Y023033D01*
X001077Y023131D02*
X006157Y023131D01*
X006198Y023230D02*
X002665Y023230D01*
X002738Y023328D02*
X006238Y023328D01*
X006279Y023427D02*
X002738Y023427D01*
X002738Y023525D02*
X006373Y023525D01*
X006472Y023624D02*
X002720Y023624D01*
X002328Y023821D02*
X006843Y023821D01*
X006605Y023722D02*
X002270Y023722D01*
X001683Y023722D02*
X001077Y023722D01*
X001077Y023624D02*
X001196Y023624D01*
X001178Y023525D02*
X001077Y023525D01*
X001077Y023427D02*
X001178Y023427D01*
X001178Y023328D02*
X001077Y023328D01*
X001077Y023230D02*
X001251Y023230D01*
X001214Y022540D02*
X001077Y022540D01*
X001077Y022442D02*
X001178Y022442D01*
X001178Y022343D02*
X001077Y022343D01*
X001077Y022245D02*
X001178Y022245D01*
X001232Y022146D02*
X001077Y022146D01*
X001077Y022048D02*
X001599Y022048D01*
X001597Y021949D02*
X001077Y021949D01*
X001077Y021851D02*
X001597Y021851D01*
X001597Y021752D02*
X001077Y021752D01*
X001077Y021654D02*
X001597Y021654D01*
X001597Y021555D02*
X001089Y021555D01*
X001200Y021457D02*
X001597Y021457D01*
X001597Y021358D02*
X001312Y021358D01*
X001423Y021260D02*
X001597Y021260D01*
X001609Y021161D02*
X001534Y021161D01*
X001646Y021063D02*
X001650Y021063D01*
X001626Y023821D02*
X001077Y023821D01*
X001077Y023919D02*
X001597Y023919D01*
X001597Y024018D02*
X001077Y024018D01*
X001077Y024116D02*
X001597Y024116D01*
X001597Y024215D02*
X001077Y024215D01*
X001133Y024313D02*
X001597Y024313D01*
X001597Y024412D02*
X001249Y024412D01*
X001365Y024510D02*
X001597Y024510D01*
X001597Y024609D02*
X001482Y024609D01*
X001598Y024707D02*
X001624Y024707D01*
X004989Y025101D02*
X005017Y025101D01*
X005474Y025101D02*
X006119Y025101D01*
X006119Y025003D02*
X005474Y025003D01*
X005474Y024904D02*
X006119Y024904D01*
X006119Y024806D02*
X005474Y024806D01*
X005422Y024707D02*
X006171Y024707D01*
X006119Y025200D02*
X005474Y025200D01*
X005474Y025298D02*
X006119Y025298D01*
X006119Y025397D02*
X005474Y025397D01*
X005474Y025495D02*
X006119Y025495D01*
X006119Y025594D02*
X005474Y025594D01*
X005474Y025692D02*
X006119Y025692D01*
X006119Y025791D02*
X005474Y025791D01*
X005474Y025889D02*
X006119Y025889D01*
X006119Y025988D02*
X005474Y025988D01*
X005474Y026086D02*
X006119Y026086D01*
X006138Y026185D02*
X005455Y026185D01*
X005459Y021063D02*
X006135Y021063D01*
X006119Y020964D02*
X005474Y020964D01*
X005474Y020866D02*
X006119Y020866D01*
X006119Y020767D02*
X005474Y020767D01*
X005474Y020669D02*
X006119Y020669D01*
X006119Y020570D02*
X005474Y020570D01*
X005474Y020472D02*
X006119Y020472D01*
X006119Y020373D02*
X005474Y020373D01*
X005474Y020275D02*
X006119Y020275D01*
X006119Y020176D02*
X005474Y020176D01*
X005474Y020078D02*
X006119Y020078D01*
X009165Y019585D02*
X009230Y019585D01*
X009391Y019684D02*
X009431Y019684D01*
X009478Y019782D02*
X009633Y019782D01*
X009531Y019881D02*
X009834Y019881D01*
X010103Y021358D02*
X010132Y021358D01*
X010044Y021457D02*
X010230Y021457D01*
X010329Y021555D02*
X009933Y021555D01*
X012770Y023328D02*
X013077Y023328D01*
X013077Y023230D02*
X012915Y023230D01*
X012994Y023131D02*
X013077Y023131D01*
X013077Y023033D02*
X013035Y023033D01*
X013050Y022934D02*
X013077Y022934D01*
X013077Y022836D02*
X013050Y022836D01*
X013077Y022737D02*
X013020Y022737D01*
X012978Y022639D02*
X013077Y022639D01*
X013077Y022540D02*
X012879Y022540D01*
X013982Y022146D02*
X015544Y022146D01*
X015643Y022048D02*
X013982Y022048D01*
X013982Y023624D02*
X019922Y023624D01*
X019922Y023722D02*
X013982Y023722D01*
X013982Y023821D02*
X019922Y023821D01*
X019922Y023919D02*
X013982Y023919D01*
X013982Y024018D02*
X019922Y024018D01*
X019922Y024116D02*
X013982Y024116D01*
X013982Y024215D02*
X018262Y024215D01*
X019331Y024707D02*
X019922Y024707D01*
X019922Y024609D02*
X019732Y024609D01*
X019746Y024510D02*
X019922Y024510D01*
X019922Y024412D02*
X019746Y024412D01*
X019746Y024313D02*
X019922Y024313D01*
X019922Y024215D02*
X019672Y024215D01*
X019922Y024806D02*
X019347Y024806D01*
X019343Y024904D02*
X019922Y024904D01*
X019922Y025003D02*
X019303Y025003D01*
X019223Y025101D02*
X019922Y025101D01*
X019922Y025200D02*
X019125Y025200D01*
X019026Y025298D02*
X019922Y025298D01*
X019922Y025397D02*
X018928Y025397D01*
X019713Y023525D02*
X019922Y023525D01*
X019922Y023427D02*
X019746Y023427D01*
X019746Y023328D02*
X019922Y023328D01*
X019922Y023230D02*
X019746Y023230D01*
X019691Y023131D02*
X019922Y023131D01*
X019922Y023033D02*
X019357Y023033D01*
X019357Y022934D02*
X019922Y022934D01*
X019922Y022836D02*
X019357Y022836D01*
X019357Y022737D02*
X019922Y022737D01*
X019922Y022639D02*
X019357Y022639D01*
X019357Y022540D02*
X019922Y022540D01*
X019922Y022442D02*
X019357Y022442D01*
X019357Y022343D02*
X019922Y022343D01*
X019922Y022245D02*
X019357Y022245D01*
X019357Y022146D02*
X019922Y022146D01*
X019922Y022048D02*
X019357Y022048D01*
X019357Y021949D02*
X019922Y021949D01*
X019922Y021851D02*
X019705Y021851D01*
X019758Y021752D02*
X019922Y021752D01*
X019922Y021654D02*
X019758Y021654D01*
X019758Y021555D02*
X019922Y021555D01*
X019922Y021457D02*
X019758Y021457D01*
X019758Y021358D02*
X019922Y021358D01*
X019922Y021260D02*
X019758Y021260D01*
X019758Y021161D02*
X019922Y021161D01*
X019922Y021063D02*
X019758Y021063D01*
X019046Y020373D02*
X019010Y020373D01*
X019010Y020275D02*
X019084Y020275D01*
X019102Y020176D02*
X018992Y020176D01*
X018959Y020078D02*
X019515Y020078D01*
X019672Y019979D02*
X019006Y019979D01*
X019006Y019881D02*
X019828Y019881D01*
X019922Y019782D02*
X019006Y019782D01*
X019006Y019684D02*
X019922Y019684D01*
X019922Y019585D02*
X019006Y019585D01*
X019013Y019487D02*
X019132Y019487D01*
X019373Y019487D02*
X019470Y019487D01*
X019470Y019517D02*
X019470Y019199D01*
X019768Y019199D01*
X019768Y019387D01*
X019758Y019425D01*
X019738Y019459D01*
X019710Y019487D01*
X019676Y019507D01*
X019638Y019517D01*
X019470Y019517D01*
X019470Y019388D02*
X019373Y019388D01*
X019373Y019290D02*
X019470Y019290D01*
X019470Y019191D02*
X019922Y019191D01*
X019922Y019093D02*
X019768Y019093D01*
X019768Y019102D02*
X019470Y019102D01*
X019470Y018784D01*
X019638Y018784D01*
X019676Y018794D01*
X019710Y018814D01*
X019738Y018842D01*
X019758Y018876D01*
X019768Y018914D01*
X019768Y019102D01*
X019768Y018994D02*
X019922Y018994D01*
X019922Y018896D02*
X019763Y018896D01*
X019682Y018797D02*
X019922Y018797D01*
X019922Y018699D02*
X019000Y018699D01*
X019013Y018600D02*
X019922Y018600D01*
X019922Y018502D02*
X019013Y018502D01*
X019013Y018403D02*
X019922Y018403D01*
X019922Y018305D02*
X019013Y018305D01*
X019013Y018206D02*
X019922Y018206D01*
X019922Y018108D02*
X018361Y018108D01*
X018513Y018797D02*
X019161Y018797D01*
X019080Y018896D02*
X019079Y018896D01*
X019373Y018896D02*
X019470Y018896D01*
X019470Y018994D02*
X019373Y018994D01*
X019373Y019093D02*
X019470Y019093D01*
X019470Y018797D02*
X019373Y018797D01*
X019768Y019290D02*
X019922Y019290D01*
X019922Y019388D02*
X019768Y019388D01*
X019711Y019487D02*
X019922Y019487D01*
X019922Y018009D02*
X019013Y018009D01*
X019013Y017911D02*
X019922Y017911D01*
X019922Y017812D02*
X019013Y017812D01*
X019013Y017714D02*
X019922Y017714D01*
X019922Y017615D02*
X019257Y017615D01*
X019256Y017517D02*
X019922Y017517D01*
X017201Y015842D02*
X017196Y015842D01*
X017201Y015744D02*
X017072Y015744D01*
X017201Y015645D02*
X016763Y015645D01*
X016763Y015547D02*
X017201Y015547D01*
X017201Y015448D02*
X016763Y015448D01*
X016713Y015350D02*
X017201Y015350D01*
X016934Y015251D02*
X016781Y015251D01*
X016783Y015153D02*
X016897Y015153D01*
X016882Y015744D02*
X016763Y015744D01*
X017306Y014365D02*
X017312Y014365D01*
X015179Y014069D02*
X015037Y014069D01*
X014859Y014069D02*
X014834Y014069D01*
X014834Y013971D02*
X014859Y013971D01*
X015052Y015448D02*
X015230Y015448D01*
X015617Y017714D02*
X015622Y017714D01*
X015617Y017812D02*
X015637Y017812D01*
X015637Y017911D02*
X015617Y017911D01*
X015617Y018009D02*
X015637Y018009D01*
X015637Y018108D02*
X015617Y018108D01*
X015617Y018206D02*
X015637Y018206D01*
X015637Y018305D02*
X015617Y018305D01*
X015617Y018403D02*
X015637Y018403D01*
X015637Y018502D02*
X015617Y018502D01*
X015137Y018502D02*
X014984Y018502D01*
X014930Y018403D02*
X015137Y018403D01*
X015137Y018305D02*
X014964Y018305D01*
X016117Y018305D02*
X016137Y018305D01*
X016137Y018403D02*
X016117Y018403D01*
X016117Y018502D02*
X016137Y018502D01*
X017117Y020176D02*
X017184Y020176D01*
X017208Y020275D02*
X017328Y020275D01*
X017328Y020373D02*
X017257Y020373D01*
X017360Y020472D02*
X017395Y020472D01*
X017100Y021260D02*
X017003Y021260D01*
X017003Y021358D02*
X017100Y021358D01*
X017100Y021457D02*
X017003Y021457D01*
X017100Y021555D02*
X018356Y021555D01*
X017100Y021654D02*
X017003Y021654D01*
X017003Y021752D02*
X017100Y021752D01*
X017100Y021851D02*
X017003Y021851D01*
X016714Y021851D02*
X016709Y021851D01*
X016747Y021260D02*
X016659Y021260D01*
X010326Y014365D02*
X010195Y014365D01*
X010138Y014463D02*
X010097Y014463D01*
X012226Y012099D02*
X012520Y012099D01*
X012331Y012001D02*
X012184Y012001D01*
X016357Y011114D02*
X018172Y011114D01*
X018171Y011016D02*
X016357Y011016D01*
X016357Y010917D02*
X018171Y010917D01*
X018171Y010819D02*
X016357Y010819D01*
X016357Y010720D02*
X018171Y010720D01*
X018170Y010622D02*
X016357Y010622D01*
X016357Y010523D02*
X018170Y010523D01*
X018170Y010425D02*
X016357Y010425D01*
X016357Y010326D02*
X018170Y010326D01*
X018169Y010228D02*
X016357Y010228D01*
X016357Y010129D02*
X018169Y010129D01*
X018169Y010031D02*
X016357Y010031D01*
X016357Y009932D02*
X018169Y009932D01*
X018169Y009834D02*
X016357Y009834D01*
X016357Y009735D02*
X018168Y009735D01*
X018168Y009637D02*
X016357Y009637D01*
X016357Y009538D02*
X018168Y009538D01*
X018168Y009440D02*
X016357Y009440D01*
X016357Y009341D02*
X018167Y009341D01*
X019357Y009341D02*
X019922Y009341D01*
X019922Y009440D02*
X019357Y009440D01*
X019357Y009538D02*
X019922Y009538D01*
X019922Y009637D02*
X019357Y009637D01*
X019357Y009735D02*
X019922Y009735D01*
X019922Y009834D02*
X019357Y009834D01*
X019357Y009932D02*
X019922Y009932D01*
X019922Y010031D02*
X019357Y010031D01*
X019357Y010129D02*
X019922Y010129D01*
X019922Y010228D02*
X019357Y010228D01*
X019357Y010326D02*
X019922Y010326D01*
X019922Y010425D02*
X019357Y010425D01*
X019357Y010523D02*
X019922Y010523D01*
X019922Y010622D02*
X019357Y010622D01*
X019357Y010720D02*
X019922Y010720D01*
X019922Y010819D02*
X019357Y010819D01*
X019357Y010917D02*
X019922Y010917D01*
X019922Y011016D02*
X019357Y011016D01*
X019357Y011114D02*
X019922Y011114D01*
D34*
X015837Y017120D03*
X016167Y018820D03*
X015377Y020780D03*
X017717Y021080D03*
X018237Y017760D03*
X012824Y012824D03*
X012824Y010462D03*
X008885Y011606D03*
X008116Y010106D03*
X007115Y008297D03*
X004556Y008297D03*
X003816Y010106D03*
X005216Y011606D03*
X003716Y013106D03*
X004556Y014990D03*
X007115Y014990D03*
X008216Y013206D03*
X007076Y019557D03*
X008077Y021366D03*
X008845Y022866D03*
X008177Y024466D03*
X007076Y026250D03*
X004517Y026250D03*
X003677Y024366D03*
X005177Y022866D03*
X003777Y021366D03*
X004517Y019557D03*
X001269Y021722D03*
X001269Y024084D03*
X001308Y012824D03*
X001308Y010462D03*
X012785Y021722D03*
X012785Y024084D03*
D35*
X014807Y022600D02*
X014817Y022610D01*
X015377Y022610D01*
X015877Y022110D01*
X015877Y019930D01*
X016377Y019930D02*
X016377Y020755D01*
X016382Y020760D01*
X016382Y021580D01*
X017047Y020756D02*
X017051Y020760D01*
X017047Y020756D02*
X017047Y020410D01*
X016877Y020240D01*
X016877Y019930D01*
X017257Y019930D01*
X016877Y019930D02*
X016867Y019920D01*
X016867Y019430D01*
X016747Y019310D01*
X015197Y019310D01*
X015037Y019470D01*
X015037Y019850D01*
X014832Y020055D01*
X014627Y020055D01*
X014627Y019386D02*
X014601Y019360D01*
X014397Y019360D01*
X014267Y019220D01*
X014267Y017470D01*
X014462Y017285D01*
X014462Y017210D01*
X014462Y016380D01*
X014947Y015685D02*
X015577Y015685D01*
X016407Y015685D01*
X016417Y015695D01*
X016417Y016490D01*
X016347Y016490D01*
X016417Y016500D01*
X016347Y016860D02*
X015867Y016700D01*
X015487Y016880D02*
X015487Y017250D01*
X015857Y017660D01*
X015857Y018050D01*
X015877Y018070D01*
X016377Y018070D01*
X016397Y018050D01*
X016397Y017610D01*
X016457Y017550D01*
X016597Y017550D01*
X016747Y017400D01*
X016747Y016810D01*
X017067Y016490D01*
X016977Y016400D01*
X016977Y015980D01*
X017067Y016490D02*
X017367Y016490D01*
X017367Y016860D02*
X017127Y016860D01*
X016967Y017010D01*
X016967Y017500D01*
X016887Y017590D01*
X016887Y018060D01*
X016877Y018070D01*
X016897Y018090D01*
X016897Y018580D01*
X017001Y018685D01*
X017597Y018685D01*
X018177Y018850D02*
X018177Y019691D01*
X017734Y020154D01*
X018187Y020543D02*
X018683Y020543D01*
X018687Y020539D01*
X018687Y020100D01*
X018540Y019954D01*
X018600Y019780D01*
X018537Y019717D01*
X018537Y019480D01*
X018762Y019255D01*
X018752Y019150D01*
X018177Y018850D02*
X018562Y018435D01*
X018667Y018435D01*
X018667Y017766D02*
X018252Y017766D01*
X018237Y017750D01*
X018667Y017766D02*
X018661Y017336D01*
X018497Y017220D01*
X018162Y016620D02*
X018157Y016615D01*
X018157Y016250D01*
X017646Y015739D01*
X017646Y015710D01*
X017527Y015592D01*
X017527Y015100D01*
X017327Y014900D01*
X017137Y014900D01*
X017877Y014900D02*
X018541Y014900D01*
X018647Y014795D01*
X018761Y014850D01*
X018162Y016620D02*
X017902Y016860D01*
X017367Y016860D01*
X017367Y017230D02*
X017867Y017230D01*
X016347Y017230D02*
X015947Y017230D01*
X015837Y017120D01*
X015487Y016880D02*
X015131Y016485D01*
X015131Y016380D01*
X014947Y015685D02*
X014947Y015680D01*
X015577Y015016D02*
X015532Y014971D01*
X015532Y014350D01*
X015131Y017210D02*
X015131Y017255D01*
X015377Y017500D01*
X015377Y018070D01*
X015372Y018066D01*
X014637Y018066D01*
X015361Y018055D02*
X015377Y018070D01*
X018187Y020543D02*
X018187Y020570D01*
D36*
X015297Y013690D03*
D37*
X015227Y025140D03*
X018377Y025110D03*
M02*
