G75*
G70*
%OFA0B0*%
%FSLAX24Y24*%
%IPPOS*%
%LPD*%
%AMOC8*
5,1,8,0,0,1.08239X$1,22.5*
%
%ADD10C,0.0030*%
%ADD11C,0.0040*%
%ADD12C,0.0709*%
%ADD13R,0.1299X0.0512*%
%ADD14R,0.0197X0.0354*%
%ADD15R,0.1299X0.0197*%
%ADD16R,0.0750X0.4250*%
%ADD17C,0.0100*%
%ADD18C,0.0396*%
%ADD19C,0.0120*%
%ADD20C,0.0160*%
%ADD21C,0.0240*%
%ADD22C,0.0500*%
%ADD23R,0.0500X0.0500*%
D10*
X010799Y012645D02*
X011021Y012537D01*
X010910Y012591D02*
X011072Y012924D01*
X011129Y012759D01*
X011265Y012761D02*
X011379Y012431D01*
X011296Y012403D01*
X011185Y012457D01*
X011157Y012539D01*
X011265Y012761D01*
X011348Y012790D01*
X011458Y012736D01*
X011487Y012653D01*
X011379Y012431D01*
X011461Y012322D02*
X011683Y012214D01*
X011569Y012544D01*
X011596Y012600D01*
X011679Y012628D01*
X011790Y012574D01*
X011818Y012492D01*
X011954Y012494D02*
X011792Y012161D01*
X012014Y012053D02*
X012176Y012386D01*
X012011Y012329D01*
X011954Y012494D01*
X012285Y012332D02*
X012507Y012224D01*
X012345Y011891D01*
X012123Y011999D01*
X012315Y012112D02*
X012426Y012058D01*
X010825Y012976D02*
X010796Y013058D01*
X010685Y013113D01*
X010603Y013084D01*
X010576Y013029D01*
X010604Y012946D01*
X010522Y012918D01*
X010495Y012862D01*
X010523Y012780D01*
X010634Y012726D01*
X010717Y012754D01*
X010660Y012919D02*
X010604Y012946D01*
X010386Y012915D02*
X010272Y013246D01*
X010164Y013024D01*
X010192Y012941D01*
X010303Y012887D01*
X010386Y012915D01*
X010494Y013137D01*
X010465Y013220D01*
X010354Y013274D01*
X010272Y013246D01*
X010190Y013354D02*
X009968Y013463D01*
X009941Y013407D01*
X010055Y013077D01*
X010027Y013021D01*
X009696Y013183D02*
X009475Y013291D01*
X009585Y013237D02*
X009748Y013570D01*
X009805Y013405D01*
X009447Y013511D02*
X009225Y013619D01*
X009361Y013758D02*
X009447Y013511D01*
X009361Y013758D02*
X009199Y013426D01*
X012305Y023190D02*
X012083Y023299D01*
X011974Y023352D02*
X012137Y023685D01*
X011972Y023628D01*
X011915Y023793D01*
X011752Y023460D01*
X011643Y023513D02*
X011530Y023843D01*
X011557Y023899D01*
X011639Y023927D01*
X011750Y023873D01*
X011779Y023791D01*
X011643Y023513D02*
X011421Y023622D01*
X011339Y023730D02*
X011226Y024060D01*
X011117Y023839D01*
X011146Y023756D01*
X011257Y023702D01*
X011339Y023730D01*
X011448Y023952D01*
X011419Y024035D01*
X011308Y024089D01*
X011226Y024060D01*
X011089Y024058D02*
X011033Y024223D01*
X010870Y023890D01*
X010981Y023836D02*
X010759Y023945D01*
X010677Y024053D02*
X010595Y024025D01*
X010484Y024079D01*
X010455Y024161D01*
X010482Y024217D01*
X010565Y024245D01*
X010620Y024218D01*
X010565Y024245D02*
X010537Y024328D01*
X010564Y024383D01*
X010646Y024412D01*
X010757Y024358D01*
X010785Y024275D01*
X010454Y024437D02*
X010426Y024519D01*
X010315Y024573D01*
X010233Y024545D01*
X010346Y024215D01*
X010264Y024186D01*
X010153Y024240D01*
X010124Y024323D01*
X010233Y024545D01*
X010150Y024653D02*
X009929Y024762D01*
X009901Y024706D01*
X010015Y024376D01*
X009988Y024321D01*
X010346Y024215D02*
X010454Y024437D01*
X009765Y024704D02*
X009708Y024869D01*
X009546Y024536D01*
X009657Y024482D02*
X009435Y024590D01*
X009407Y024810D02*
X009185Y024918D01*
X009160Y024725D02*
X009322Y025058D01*
X009407Y024810D01*
X012246Y023632D02*
X012468Y023523D01*
X012305Y023190D01*
X012387Y023357D02*
X012276Y023411D01*
D11*
X014239Y021012D02*
X014399Y021012D01*
X014399Y021065D02*
X014399Y020958D01*
X014399Y020889D02*
X014399Y020835D01*
X014399Y020862D02*
X014239Y020862D01*
X014239Y020835D02*
X014239Y020889D01*
X014319Y020705D02*
X014319Y020651D01*
X014239Y020651D02*
X014399Y020651D01*
X014399Y020758D01*
X014539Y020758D02*
X014539Y020651D01*
X014539Y020705D02*
X014699Y020705D01*
X014646Y020651D01*
X014673Y020574D02*
X014566Y020467D01*
X014539Y020467D01*
X014566Y020390D02*
X014539Y020363D01*
X014539Y020310D01*
X014566Y020283D01*
X014673Y020390D01*
X014566Y020390D01*
X014673Y020390D02*
X014699Y020363D01*
X014699Y020310D01*
X014673Y020283D01*
X014566Y020283D01*
X014566Y020206D02*
X014539Y020179D01*
X014539Y020125D01*
X014566Y020099D01*
X014619Y020152D02*
X014619Y020179D01*
X014593Y020206D01*
X014566Y020206D01*
X014619Y020179D02*
X014646Y020206D01*
X014673Y020206D01*
X014699Y020179D01*
X014699Y020125D01*
X014673Y020099D01*
X014699Y019968D02*
X014539Y019968D01*
X014539Y019915D02*
X014539Y020021D01*
X014399Y020021D02*
X014399Y019915D01*
X014239Y019915D01*
X014239Y020021D01*
X014319Y019968D02*
X014319Y019915D01*
X014319Y019837D02*
X014293Y019811D01*
X014293Y019730D01*
X014239Y019730D02*
X014399Y019730D01*
X014399Y019811D01*
X014373Y019837D01*
X014319Y019837D01*
X014293Y019784D02*
X014239Y019837D01*
X014399Y020099D02*
X014399Y020206D01*
X014399Y020152D02*
X014239Y020152D01*
X014239Y020283D02*
X014399Y020283D01*
X014399Y020363D01*
X014373Y020390D01*
X014319Y020390D01*
X014293Y020363D01*
X014293Y020283D01*
X014293Y020336D02*
X014239Y020390D01*
X014266Y020467D02*
X014239Y020494D01*
X014239Y020547D01*
X014266Y020574D01*
X014373Y020574D01*
X014399Y020547D01*
X014399Y020494D01*
X014373Y020467D01*
X014266Y020467D01*
X014673Y020574D02*
X014699Y020574D01*
X014699Y020467D01*
X014619Y020835D02*
X014619Y020915D01*
X014593Y020942D01*
X014566Y020942D01*
X014539Y020915D01*
X014539Y020862D01*
X014566Y020835D01*
X014619Y020835D01*
X014673Y020889D01*
X014699Y020942D01*
X014699Y019968D02*
X014646Y019915D01*
X014673Y019837D02*
X014566Y019730D01*
X014539Y019757D01*
X014539Y019811D01*
X014566Y019837D01*
X014673Y019837D01*
X014699Y019811D01*
X014699Y019757D01*
X014673Y019730D01*
X014566Y019730D01*
X014539Y019653D02*
X014539Y019546D01*
X014646Y019653D01*
X014673Y019653D01*
X014699Y019626D01*
X014699Y019573D01*
X014673Y019546D01*
X014699Y019285D02*
X014539Y019285D01*
X014539Y019178D02*
X014699Y019178D01*
X014646Y019231D01*
X014699Y019285D01*
X014699Y019101D02*
X014539Y019101D01*
X014593Y019047D01*
X014539Y018994D01*
X014699Y018994D01*
X014699Y018916D02*
X014699Y018810D01*
X014539Y018810D01*
X014539Y018916D01*
X014619Y018863D02*
X014619Y018810D01*
X014399Y018810D02*
X014399Y018890D01*
X014373Y018916D01*
X014346Y018916D01*
X014319Y018890D01*
X014319Y018810D01*
X014239Y018810D02*
X014399Y018810D01*
X014319Y018890D02*
X014293Y018916D01*
X014266Y018916D01*
X014239Y018890D01*
X014239Y018810D01*
X014266Y018994D02*
X014239Y019021D01*
X014239Y019074D01*
X014266Y019101D01*
X014399Y019101D01*
X014399Y019178D02*
X014239Y019178D01*
X014239Y019285D01*
X014239Y019362D02*
X014239Y019442D01*
X014266Y019469D01*
X014293Y019469D01*
X014319Y019442D01*
X014319Y019362D01*
X014239Y019362D02*
X014399Y019362D01*
X014399Y019442D01*
X014373Y019469D01*
X014346Y019469D01*
X014319Y019442D01*
X014266Y018994D02*
X014399Y018994D01*
D12*
X009981Y019393D02*
X009670Y020030D01*
X008771Y019592D02*
X009082Y018955D01*
X009710Y008731D02*
X010020Y008094D01*
X009121Y007656D02*
X008811Y008293D01*
D13*
X014849Y024052D03*
X017869Y024002D03*
D14*
X017869Y023372D03*
X017869Y024632D03*
X014849Y024682D03*
X014849Y023422D03*
D15*
X014849Y023501D03*
X014849Y024604D03*
X017869Y024554D03*
X017869Y023451D03*
D16*
X018054Y011322D03*
X015054Y011322D03*
D17*
X015004Y011343D02*
X013954Y011343D01*
X013954Y011245D02*
X014529Y011245D01*
X014529Y011272D02*
X014529Y009377D01*
X013954Y009377D01*
X013954Y025567D01*
X014830Y025567D01*
X014819Y025556D01*
X014819Y025435D01*
X014493Y025126D01*
X014432Y024988D01*
X014427Y024837D01*
X014429Y024832D01*
X014146Y024832D01*
X014070Y024756D01*
X014070Y024451D01*
X014146Y024375D01*
X015553Y024375D01*
X015629Y024451D01*
X015629Y024756D01*
X015553Y024832D01*
X015288Y024832D01*
X015331Y024872D01*
X015503Y024872D01*
X015579Y024949D01*
X015579Y025556D01*
X015568Y025567D01*
X018010Y025567D01*
X017969Y025526D01*
X017969Y025510D01*
X017897Y025438D01*
X017547Y025088D01*
X017489Y024948D01*
X017489Y024797D01*
X017495Y024782D01*
X017166Y024782D01*
X017090Y024706D01*
X017090Y024401D01*
X017166Y024325D01*
X018573Y024325D01*
X018649Y024401D01*
X018649Y024706D01*
X018573Y024782D01*
X018316Y024782D01*
X018377Y024842D01*
X018653Y024842D01*
X018729Y024919D01*
X018729Y025526D01*
X018688Y025567D01*
X019894Y025567D01*
X019894Y014038D01*
X017516Y014052D01*
X017500Y009377D01*
X015579Y009377D01*
X015579Y011272D01*
X015104Y011272D01*
X015104Y011372D01*
X015579Y011372D01*
X015579Y013467D01*
X015569Y013505D01*
X015549Y013539D01*
X015521Y013567D01*
X015487Y013587D01*
X015449Y013597D01*
X015104Y013597D01*
X015104Y011372D01*
X015004Y011372D01*
X015004Y011272D01*
X014529Y011272D01*
X014529Y011372D02*
X015004Y011372D01*
X015004Y013597D01*
X014660Y013597D01*
X014621Y013587D01*
X014587Y013567D01*
X014559Y013539D01*
X014540Y013505D01*
X014529Y013467D01*
X014529Y011372D01*
X014529Y011442D02*
X013954Y011442D01*
X013954Y011540D02*
X014529Y011540D01*
X014529Y011639D02*
X013954Y011639D01*
X013954Y011737D02*
X014529Y011737D01*
X014529Y011836D02*
X013954Y011836D01*
X013954Y011934D02*
X014529Y011934D01*
X014529Y012033D02*
X013954Y012033D01*
X013954Y012131D02*
X014529Y012131D01*
X014529Y012230D02*
X013954Y012230D01*
X013954Y012328D02*
X014529Y012328D01*
X014529Y012427D02*
X013954Y012427D01*
X013954Y012525D02*
X014529Y012525D01*
X014529Y012624D02*
X013954Y012624D01*
X013954Y012722D02*
X014529Y012722D01*
X014529Y012821D02*
X013954Y012821D01*
X013954Y012919D02*
X014529Y012919D01*
X014529Y013018D02*
X013954Y013018D01*
X013954Y013116D02*
X014529Y013116D01*
X014529Y013215D02*
X013954Y013215D01*
X013954Y013313D02*
X014529Y013313D01*
X014529Y013412D02*
X013954Y013412D01*
X013954Y013510D02*
X014542Y013510D01*
X015004Y013510D02*
X015104Y013510D01*
X015104Y013412D02*
X015004Y013412D01*
X015004Y013313D02*
X015104Y013313D01*
X015104Y013215D02*
X015004Y013215D01*
X015004Y013116D02*
X015104Y013116D01*
X015104Y013018D02*
X015004Y013018D01*
X015004Y012919D02*
X015104Y012919D01*
X015104Y012821D02*
X015004Y012821D01*
X015004Y012722D02*
X015104Y012722D01*
X015104Y012624D02*
X015004Y012624D01*
X015004Y012525D02*
X015104Y012525D01*
X015104Y012427D02*
X015004Y012427D01*
X015004Y012328D02*
X015104Y012328D01*
X015104Y012230D02*
X015004Y012230D01*
X015004Y012131D02*
X015104Y012131D01*
X015104Y012033D02*
X015004Y012033D01*
X015004Y011934D02*
X015104Y011934D01*
X015104Y011836D02*
X015004Y011836D01*
X015004Y011737D02*
X015104Y011737D01*
X015104Y011639D02*
X015004Y011639D01*
X015004Y011540D02*
X015104Y011540D01*
X015104Y011442D02*
X015004Y011442D01*
X015104Y011343D02*
X017507Y011343D01*
X017507Y011245D02*
X015579Y011245D01*
X015579Y011146D02*
X017506Y011146D01*
X017506Y011048D02*
X015579Y011048D01*
X015579Y010949D02*
X017506Y010949D01*
X017505Y010851D02*
X015579Y010851D01*
X015579Y010752D02*
X017505Y010752D01*
X017505Y010654D02*
X015579Y010654D01*
X015579Y010555D02*
X017504Y010555D01*
X017504Y010457D02*
X015579Y010457D01*
X015579Y010358D02*
X017504Y010358D01*
X017503Y010260D02*
X015579Y010260D01*
X015579Y010161D02*
X017503Y010161D01*
X017503Y010063D02*
X015579Y010063D01*
X015579Y009964D02*
X017502Y009964D01*
X017502Y009866D02*
X015579Y009866D01*
X015579Y009767D02*
X017502Y009767D01*
X017501Y009669D02*
X015579Y009669D01*
X015579Y009570D02*
X017501Y009570D01*
X017501Y009472D02*
X015579Y009472D01*
X014529Y009472D02*
X013954Y009472D01*
X013954Y009570D02*
X014529Y009570D01*
X014529Y009669D02*
X013954Y009669D01*
X013954Y009767D02*
X014529Y009767D01*
X014529Y009866D02*
X013954Y009866D01*
X013954Y009964D02*
X014529Y009964D01*
X014529Y010063D02*
X013954Y010063D01*
X013954Y010161D02*
X014529Y010161D01*
X014529Y010260D02*
X013954Y010260D01*
X013954Y010358D02*
X014529Y010358D01*
X014529Y010457D02*
X013954Y010457D01*
X013954Y010555D02*
X014529Y010555D01*
X014529Y010654D02*
X013954Y010654D01*
X013954Y010752D02*
X014529Y010752D01*
X014529Y010851D02*
X013954Y010851D01*
X013954Y010949D02*
X014529Y010949D01*
X014529Y011048D02*
X013954Y011048D01*
X013954Y011146D02*
X014529Y011146D01*
X015579Y011442D02*
X017507Y011442D01*
X017508Y011540D02*
X015579Y011540D01*
X015579Y011639D02*
X017508Y011639D01*
X017508Y011737D02*
X015579Y011737D01*
X015579Y011836D02*
X017509Y011836D01*
X017509Y011934D02*
X015579Y011934D01*
X015579Y012033D02*
X017509Y012033D01*
X017510Y012131D02*
X015579Y012131D01*
X015579Y012230D02*
X017510Y012230D01*
X017510Y012328D02*
X015579Y012328D01*
X015579Y012427D02*
X017511Y012427D01*
X017511Y012525D02*
X015579Y012525D01*
X015579Y012624D02*
X017511Y012624D01*
X017512Y012722D02*
X015579Y012722D01*
X015579Y012821D02*
X017512Y012821D01*
X017512Y012919D02*
X015579Y012919D01*
X015579Y013018D02*
X017513Y013018D01*
X017513Y013116D02*
X015579Y013116D01*
X015579Y013215D02*
X017513Y013215D01*
X017514Y013313D02*
X015579Y013313D01*
X015579Y013412D02*
X017514Y013412D01*
X017515Y013510D02*
X015566Y013510D01*
X013954Y013609D02*
X017515Y013609D01*
X017515Y013707D02*
X013954Y013707D01*
X013954Y013806D02*
X017516Y013806D01*
X017516Y013904D02*
X013954Y013904D01*
X013954Y014003D02*
X017516Y014003D01*
X019894Y014101D02*
X013954Y014101D01*
X013954Y014200D02*
X019894Y014200D01*
X019894Y014298D02*
X013954Y014298D01*
X013954Y014397D02*
X019894Y014397D01*
X019894Y014495D02*
X013954Y014495D01*
X013954Y014594D02*
X019894Y014594D01*
X019894Y014692D02*
X013954Y014692D01*
X013954Y014791D02*
X019894Y014791D01*
X019894Y014889D02*
X013954Y014889D01*
X013954Y014988D02*
X019894Y014988D01*
X019894Y015086D02*
X013954Y015086D01*
X013954Y015185D02*
X019894Y015185D01*
X019894Y015283D02*
X013954Y015283D01*
X013954Y015382D02*
X019894Y015382D01*
X019894Y015480D02*
X013954Y015480D01*
X013954Y015579D02*
X019894Y015579D01*
X019894Y015677D02*
X013954Y015677D01*
X013954Y015776D02*
X019894Y015776D01*
X019894Y015874D02*
X013954Y015874D01*
X013954Y015973D02*
X019894Y015973D01*
X019894Y016071D02*
X013954Y016071D01*
X013954Y016170D02*
X019894Y016170D01*
X019894Y016268D02*
X013954Y016268D01*
X013954Y016367D02*
X019894Y016367D01*
X019894Y016465D02*
X013954Y016465D01*
X013954Y016564D02*
X019894Y016564D01*
X019894Y016662D02*
X013954Y016662D01*
X013954Y016761D02*
X019894Y016761D01*
X019894Y016859D02*
X013954Y016859D01*
X013954Y016958D02*
X015620Y016958D01*
X015623Y016954D02*
X015744Y016904D01*
X015875Y016904D01*
X015995Y016954D01*
X016087Y017047D01*
X016137Y017167D01*
X016137Y017263D01*
X016536Y017662D01*
X017955Y017662D01*
X018023Y017594D01*
X018144Y017544D01*
X018275Y017544D01*
X018395Y017594D01*
X018487Y017687D01*
X018537Y017807D01*
X018537Y017938D01*
X018487Y018058D01*
X018395Y018151D01*
X018275Y018200D01*
X018144Y018200D01*
X018023Y018151D01*
X017955Y018082D01*
X016362Y018082D01*
X015840Y017560D01*
X015744Y017560D01*
X015623Y017511D01*
X015531Y017418D01*
X015481Y017298D01*
X015481Y017167D01*
X015531Y017047D01*
X015623Y016954D01*
X015527Y017056D02*
X013954Y017056D01*
X013954Y017155D02*
X015486Y017155D01*
X015481Y017253D02*
X013954Y017253D01*
X013954Y017352D02*
X015504Y017352D01*
X015563Y017450D02*
X013954Y017450D01*
X013954Y017549D02*
X015716Y017549D01*
X015927Y017647D02*
X013954Y017647D01*
X013954Y017746D02*
X016026Y017746D01*
X016124Y017844D02*
X013954Y017844D01*
X013954Y017943D02*
X016223Y017943D01*
X016321Y018041D02*
X013954Y018041D01*
X013954Y018140D02*
X018013Y018140D01*
X018406Y018140D02*
X019894Y018140D01*
X019894Y018238D02*
X013954Y018238D01*
X013954Y018337D02*
X019894Y018337D01*
X019894Y018435D02*
X013954Y018435D01*
X013954Y018534D02*
X019894Y018534D01*
X019894Y018632D02*
X013954Y018632D01*
X013954Y018731D02*
X014106Y018731D01*
X014089Y018748D02*
X014177Y018660D01*
X014462Y018660D01*
X014469Y018668D01*
X014477Y018660D01*
X014762Y018660D01*
X014849Y018748D01*
X014849Y019116D01*
X014849Y019116D01*
X014849Y019179D01*
X014849Y019285D01*
X014849Y019347D01*
X014767Y019429D01*
X014849Y019511D01*
X014849Y019689D01*
X014846Y019692D01*
X014849Y019695D01*
X014849Y019873D01*
X014833Y019889D01*
X014849Y019906D01*
X014849Y019969D01*
X014849Y020030D01*
X014849Y020030D01*
X014849Y020030D01*
X014833Y020047D01*
X014849Y020063D01*
X014849Y020241D01*
X014846Y020244D01*
X014849Y020248D01*
X014849Y020636D01*
X014846Y020639D01*
X014849Y020643D01*
X014849Y020705D01*
X014849Y020767D01*
X014806Y020810D01*
X014823Y020827D01*
X014823Y020853D01*
X014861Y020931D01*
X014822Y021049D01*
X014711Y021104D01*
X014660Y021087D01*
X014655Y021092D01*
X014549Y021092D01*
X014549Y021127D01*
X014462Y021215D01*
X014337Y021215D01*
X014284Y021162D01*
X014177Y021162D01*
X014089Y021074D01*
X014089Y020773D01*
X014119Y020743D01*
X014089Y020713D01*
X014089Y020221D01*
X014093Y020218D01*
X014089Y020214D01*
X014089Y020090D01*
X014093Y020087D01*
X014089Y020084D01*
X014089Y019668D01*
X014171Y019586D01*
X014089Y019504D01*
X014089Y018958D01*
X014093Y018955D01*
X014089Y018952D01*
X014089Y018748D01*
X014089Y018829D02*
X013954Y018829D01*
X013954Y018928D02*
X014089Y018928D01*
X014089Y019026D02*
X013954Y019026D01*
X013954Y019125D02*
X014089Y019125D01*
X014089Y019223D02*
X013954Y019223D01*
X013954Y019322D02*
X014089Y019322D01*
X014089Y019420D02*
X013954Y019420D01*
X013954Y019519D02*
X014104Y019519D01*
X014140Y019617D02*
X013954Y019617D01*
X013954Y019716D02*
X014089Y019716D01*
X014089Y019814D02*
X013954Y019814D01*
X013954Y019913D02*
X014089Y019913D01*
X014089Y020011D02*
X013954Y020011D01*
X013954Y020110D02*
X014089Y020110D01*
X014089Y020208D02*
X013954Y020208D01*
X013954Y020307D02*
X014089Y020307D01*
X014089Y020405D02*
X013954Y020405D01*
X013954Y020504D02*
X014089Y020504D01*
X014089Y020602D02*
X013954Y020602D01*
X013954Y020701D02*
X014089Y020701D01*
X014089Y020799D02*
X013954Y020799D01*
X013954Y020898D02*
X014089Y020898D01*
X014089Y020996D02*
X013954Y020996D01*
X013954Y021095D02*
X014110Y021095D01*
X013954Y021193D02*
X014316Y021193D01*
X014483Y021193D02*
X019894Y021193D01*
X019894Y021095D02*
X014730Y021095D01*
X014683Y021095D02*
X014549Y021095D01*
X014840Y020996D02*
X019894Y020996D01*
X019894Y020898D02*
X014845Y020898D01*
X014817Y020799D02*
X019894Y020799D01*
X019894Y020701D02*
X014849Y020701D01*
X014849Y020767D02*
X014849Y020767D01*
X014849Y020767D01*
X014849Y020602D02*
X019894Y020602D01*
X019894Y020504D02*
X014849Y020504D01*
X014849Y020405D02*
X019894Y020405D01*
X019894Y020307D02*
X014849Y020307D01*
X014849Y020208D02*
X019894Y020208D01*
X019894Y020110D02*
X014849Y020110D01*
X014849Y020011D02*
X019894Y020011D01*
X019894Y019913D02*
X014849Y019913D01*
X014849Y019814D02*
X019894Y019814D01*
X019894Y019716D02*
X014849Y019716D01*
X014849Y019617D02*
X019894Y019617D01*
X019894Y019519D02*
X014849Y019519D01*
X014776Y019420D02*
X019894Y019420D01*
X019894Y019322D02*
X014849Y019322D01*
X014849Y019347D02*
X014849Y019347D01*
X014849Y019347D01*
X014849Y019223D02*
X019894Y019223D01*
X019894Y019125D02*
X014849Y019125D01*
X014849Y019026D02*
X019894Y019026D01*
X019894Y018928D02*
X014849Y018928D01*
X014849Y018829D02*
X019894Y018829D01*
X019894Y018731D02*
X014833Y018731D01*
X016226Y017352D02*
X019894Y017352D01*
X019894Y017450D02*
X016324Y017450D01*
X016423Y017549D02*
X018133Y017549D01*
X018285Y017549D02*
X019894Y017549D01*
X019894Y017647D02*
X018448Y017647D01*
X018512Y017746D02*
X019894Y017746D01*
X019894Y017844D02*
X018537Y017844D01*
X018535Y017943D02*
X019894Y017943D01*
X019894Y018041D02*
X018494Y018041D01*
X017970Y017647D02*
X016521Y017647D01*
X016137Y017253D02*
X019894Y017253D01*
X019894Y017155D02*
X016132Y017155D01*
X016091Y017056D02*
X019894Y017056D01*
X019894Y016958D02*
X015999Y016958D01*
X013200Y020326D02*
X008610Y018030D01*
X003597Y018030D01*
X000952Y020298D01*
X000952Y023287D01*
X003597Y025554D01*
X008610Y025554D01*
X009227Y025246D01*
X008940Y024657D01*
X008935Y024641D01*
X008932Y024624D01*
X008931Y024607D01*
X008932Y024590D01*
X008935Y024574D01*
X008941Y024558D01*
X008948Y024542D01*
X002417Y024542D01*
X002532Y024641D02*
X008935Y024641D01*
X008948Y024542D02*
X008958Y024528D01*
X008969Y024515D01*
X008982Y024504D01*
X008996Y024495D01*
X012324Y022872D01*
X012341Y022866D01*
X012357Y022863D01*
X012374Y022862D01*
X012391Y022863D01*
X012408Y022866D01*
X012424Y022872D01*
X012439Y022880D01*
X012453Y022889D01*
X012466Y022900D01*
X012477Y022913D01*
X012487Y022927D01*
X012757Y023481D01*
X013200Y023259D01*
X013200Y020326D01*
X013162Y020307D02*
X010074Y020307D01*
X010063Y020329D02*
X009919Y020457D01*
X009737Y020519D01*
X009544Y020508D01*
X009371Y020423D01*
X009244Y020279D01*
X009181Y020097D01*
X009193Y019904D01*
X009588Y019094D01*
X009732Y018967D01*
X009914Y018904D01*
X010107Y018916D01*
X010280Y019000D01*
X010407Y019144D01*
X010470Y019327D01*
X010458Y019519D01*
X010063Y020329D01*
X009977Y020405D02*
X013200Y020405D01*
X013200Y020504D02*
X009782Y020504D01*
X009536Y020504D02*
X000952Y020504D01*
X000952Y020602D02*
X013200Y020602D01*
X013200Y020701D02*
X000952Y020701D01*
X000952Y020799D02*
X013200Y020799D01*
X013200Y020898D02*
X007366Y020898D01*
X007263Y020855D02*
X007608Y020998D01*
X007872Y021261D01*
X008014Y021606D01*
X008014Y021979D01*
X007872Y022323D01*
X007608Y022587D01*
X007263Y022730D01*
X006890Y022730D01*
X006546Y022587D01*
X006282Y022323D01*
X006139Y021979D01*
X006139Y021606D01*
X006282Y021261D01*
X006546Y020998D01*
X006890Y020855D01*
X007263Y020855D01*
X007604Y020996D02*
X013200Y020996D01*
X013200Y021095D02*
X007705Y021095D01*
X007803Y021193D02*
X013200Y021193D01*
X013200Y021292D02*
X007884Y021292D01*
X007925Y021390D02*
X012350Y021390D01*
X012326Y021400D02*
X012496Y021330D01*
X012680Y021330D01*
X012850Y021400D01*
X012980Y021530D01*
X013050Y021700D01*
X013050Y021884D01*
X012980Y022054D01*
X012850Y022185D01*
X012680Y022255D01*
X012496Y022255D01*
X012326Y022185D01*
X012196Y022054D01*
X012125Y021884D01*
X012125Y021700D01*
X012196Y021530D01*
X012326Y021400D01*
X012238Y021489D02*
X007966Y021489D01*
X008006Y021587D02*
X012172Y021587D01*
X012131Y021686D02*
X008014Y021686D01*
X008014Y021784D02*
X012125Y021784D01*
X012125Y021883D02*
X008014Y021883D01*
X008013Y021981D02*
X012165Y021981D01*
X012221Y022080D02*
X007972Y022080D01*
X007932Y022178D02*
X012320Y022178D01*
X012856Y022178D02*
X013200Y022178D01*
X013200Y022080D02*
X012955Y022080D01*
X013010Y021981D02*
X013200Y021981D01*
X013200Y021883D02*
X013050Y021883D01*
X013050Y021784D02*
X013200Y021784D01*
X013200Y021686D02*
X013044Y021686D01*
X013003Y021587D02*
X013200Y021587D01*
X013200Y021489D02*
X012938Y021489D01*
X012825Y021390D02*
X013200Y021390D01*
X013954Y021390D02*
X019894Y021390D01*
X019894Y021292D02*
X013954Y021292D01*
X013954Y021489D02*
X019894Y021489D01*
X019894Y021587D02*
X013954Y021587D01*
X013954Y021686D02*
X019894Y021686D01*
X019894Y021784D02*
X013954Y021784D01*
X013954Y021883D02*
X019894Y021883D01*
X019894Y021981D02*
X013954Y021981D01*
X013954Y022080D02*
X019894Y022080D01*
X019894Y022178D02*
X013954Y022178D01*
X013954Y022277D02*
X019894Y022277D01*
X019894Y022375D02*
X013954Y022375D01*
X013954Y022474D02*
X019894Y022474D01*
X019894Y022572D02*
X017887Y022572D01*
X017885Y022570D02*
X018191Y022877D01*
X018249Y023017D01*
X018249Y023168D01*
X018227Y023223D01*
X018573Y023223D01*
X018649Y023299D01*
X018649Y023603D01*
X018573Y023680D01*
X017166Y023680D01*
X017090Y023603D01*
X017090Y023299D01*
X017116Y023272D01*
X015267Y023272D01*
X015266Y023273D01*
X015553Y023273D01*
X015629Y023349D01*
X015629Y023653D01*
X015553Y023730D01*
X014146Y023730D01*
X014070Y023653D01*
X014070Y023349D01*
X014146Y023273D01*
X014431Y023273D01*
X014429Y023268D01*
X014429Y023117D01*
X014487Y022977D01*
X014787Y022677D01*
X014894Y022570D01*
X015034Y022512D01*
X017745Y022512D01*
X017885Y022570D01*
X017985Y022671D02*
X019894Y022671D01*
X019894Y022769D02*
X018084Y022769D01*
X018182Y022868D02*
X019894Y022868D01*
X019894Y022966D02*
X018228Y022966D01*
X018249Y023065D02*
X019894Y023065D01*
X019894Y023163D02*
X018249Y023163D01*
X018612Y023262D02*
X019894Y023262D01*
X019894Y023360D02*
X018649Y023360D01*
X018649Y023459D02*
X019894Y023459D01*
X019894Y023557D02*
X018649Y023557D01*
X018597Y023656D02*
X019894Y023656D01*
X019894Y023754D02*
X013954Y023754D01*
X013954Y023656D02*
X014072Y023656D01*
X014070Y023557D02*
X013954Y023557D01*
X013954Y023459D02*
X014070Y023459D01*
X014070Y023360D02*
X013954Y023360D01*
X013954Y023262D02*
X014429Y023262D01*
X014429Y023163D02*
X013954Y023163D01*
X013954Y023065D02*
X014451Y023065D01*
X014498Y022966D02*
X013954Y022966D01*
X013954Y022868D02*
X014597Y022868D01*
X014695Y022769D02*
X013954Y022769D01*
X013954Y022671D02*
X014794Y022671D01*
X014892Y022572D02*
X013954Y022572D01*
X013200Y022572D02*
X007623Y022572D01*
X007721Y022474D02*
X013200Y022474D01*
X013200Y022375D02*
X007820Y022375D01*
X007891Y022277D02*
X013200Y022277D01*
X013200Y022671D02*
X007406Y022671D01*
X006748Y022671D02*
X000952Y022671D01*
X000952Y022769D02*
X013200Y022769D01*
X013200Y022868D02*
X012412Y022868D01*
X012336Y022868D02*
X000952Y022868D01*
X000952Y022966D02*
X012130Y022966D01*
X011928Y023065D02*
X000952Y023065D01*
X000952Y023163D02*
X011726Y023163D01*
X011524Y023262D02*
X000952Y023262D01*
X001038Y023360D02*
X011322Y023360D01*
X011120Y023459D02*
X001153Y023459D01*
X001267Y023557D02*
X010918Y023557D01*
X010716Y023656D02*
X001382Y023656D01*
X001497Y023754D02*
X010515Y023754D01*
X010313Y023853D02*
X001612Y023853D01*
X001727Y023951D02*
X010111Y023951D01*
X009909Y024050D02*
X001842Y024050D01*
X001957Y024148D02*
X009707Y024148D01*
X009505Y024247D02*
X002072Y024247D01*
X002187Y024345D02*
X009303Y024345D01*
X009101Y024444D02*
X002302Y024444D01*
X002646Y024739D02*
X008980Y024739D01*
X009028Y024838D02*
X002761Y024838D01*
X002876Y024936D02*
X009076Y024936D01*
X009124Y025035D02*
X002991Y025035D01*
X003106Y025133D02*
X009172Y025133D01*
X009220Y025232D02*
X003221Y025232D01*
X003336Y025330D02*
X009058Y025330D01*
X008861Y025429D02*
X003451Y025429D01*
X003566Y025527D02*
X008664Y025527D01*
X006531Y022572D02*
X000952Y022572D01*
X000952Y022474D02*
X006432Y022474D01*
X006334Y022375D02*
X000952Y022375D01*
X000952Y022277D02*
X006263Y022277D01*
X006222Y022178D02*
X000952Y022178D01*
X000952Y022080D02*
X006181Y022080D01*
X006140Y021981D02*
X000952Y021981D01*
X000952Y021883D02*
X006139Y021883D01*
X006139Y021784D02*
X000952Y021784D01*
X000952Y021686D02*
X006139Y021686D01*
X006147Y021587D02*
X000952Y021587D01*
X000952Y021489D02*
X006188Y021489D01*
X006229Y021390D02*
X000952Y021390D01*
X000952Y021292D02*
X006270Y021292D01*
X006350Y021193D02*
X000952Y021193D01*
X000952Y021095D02*
X006449Y021095D01*
X006550Y020996D02*
X000952Y020996D01*
X000952Y020898D02*
X006787Y020898D01*
X008345Y019840D02*
X008282Y019658D01*
X008294Y019466D01*
X008689Y018656D01*
X008833Y018528D01*
X009015Y018465D01*
X009208Y018477D01*
X009381Y018562D01*
X009509Y018706D01*
X009571Y018888D01*
X009560Y019081D01*
X009164Y019891D01*
X009020Y020018D01*
X008838Y020081D01*
X008646Y020069D01*
X008472Y019985D01*
X008345Y019840D01*
X008336Y019814D02*
X001516Y019814D01*
X001401Y019913D02*
X008409Y019913D01*
X008527Y020011D02*
X001287Y020011D01*
X001172Y020110D02*
X009185Y020110D01*
X009186Y020011D02*
X009028Y020011D01*
X009139Y019913D02*
X009192Y019913D01*
X009202Y019814D02*
X009237Y019814D01*
X009250Y019716D02*
X009285Y019716D01*
X009298Y019617D02*
X009333Y019617D01*
X009346Y019519D02*
X009381Y019519D01*
X009394Y019420D02*
X009429Y019420D01*
X009442Y019322D02*
X009477Y019322D01*
X009490Y019223D02*
X009525Y019223D01*
X009538Y019125D02*
X009573Y019125D01*
X009563Y019026D02*
X009665Y019026D01*
X009569Y018928D02*
X009845Y018928D01*
X010010Y018731D02*
X009517Y018731D01*
X009551Y018829D02*
X010207Y018829D01*
X010131Y018928D02*
X010404Y018928D01*
X010303Y019026D02*
X010601Y019026D01*
X010798Y019125D02*
X010390Y019125D01*
X010435Y019223D02*
X010995Y019223D01*
X011192Y019322D02*
X010468Y019322D01*
X010464Y019420D02*
X011389Y019420D01*
X011586Y019519D02*
X010458Y019519D01*
X010410Y019617D02*
X011783Y019617D01*
X011980Y019716D02*
X010362Y019716D01*
X010314Y019814D02*
X012177Y019814D01*
X012374Y019913D02*
X010266Y019913D01*
X010218Y020011D02*
X012571Y020011D01*
X012768Y020110D02*
X010170Y020110D01*
X010122Y020208D02*
X012965Y020208D01*
X013200Y022966D02*
X012506Y022966D01*
X012554Y023065D02*
X013200Y023065D01*
X013200Y023163D02*
X012602Y023163D01*
X012650Y023262D02*
X013195Y023262D01*
X012998Y023360D02*
X012698Y023360D01*
X012746Y023459D02*
X012801Y023459D01*
X013954Y023853D02*
X019894Y023853D01*
X019894Y023951D02*
X013954Y023951D01*
X013954Y024050D02*
X019894Y024050D01*
X019894Y024148D02*
X013954Y024148D01*
X013954Y024247D02*
X019894Y024247D01*
X019894Y024345D02*
X018593Y024345D01*
X018649Y024444D02*
X019894Y024444D01*
X019894Y024542D02*
X018649Y024542D01*
X018649Y024641D02*
X019894Y024641D01*
X019894Y024739D02*
X018615Y024739D01*
X018729Y024936D02*
X019894Y024936D01*
X019894Y024838D02*
X018372Y024838D01*
X018729Y025035D02*
X019894Y025035D01*
X019894Y025133D02*
X018729Y025133D01*
X018729Y025232D02*
X019894Y025232D01*
X019894Y025330D02*
X018729Y025330D01*
X018729Y025429D02*
X019894Y025429D01*
X019894Y025527D02*
X018728Y025527D01*
X017970Y025527D02*
X015579Y025527D01*
X015579Y025429D02*
X017888Y025429D01*
X017790Y025330D02*
X015579Y025330D01*
X015579Y025232D02*
X017691Y025232D01*
X017593Y025133D02*
X015579Y025133D01*
X015579Y025035D02*
X017525Y025035D01*
X017489Y024936D02*
X015567Y024936D01*
X015629Y024739D02*
X017123Y024739D01*
X017090Y024641D02*
X015629Y024641D01*
X015629Y024542D02*
X017090Y024542D01*
X017090Y024444D02*
X015621Y024444D01*
X015294Y024838D02*
X017489Y024838D01*
X017146Y024345D02*
X013954Y024345D01*
X013954Y024444D02*
X014077Y024444D01*
X014070Y024542D02*
X013954Y024542D01*
X013954Y024641D02*
X014070Y024641D01*
X014070Y024739D02*
X013954Y024739D01*
X013954Y024838D02*
X014427Y024838D01*
X014430Y024936D02*
X013954Y024936D01*
X013954Y025035D02*
X014452Y025035D01*
X014500Y025133D02*
X013954Y025133D01*
X013954Y025232D02*
X014605Y025232D01*
X014709Y025330D02*
X013954Y025330D01*
X013954Y025429D02*
X014813Y025429D01*
X014819Y025527D02*
X013954Y025527D01*
X015627Y023656D02*
X017142Y023656D01*
X017090Y023557D02*
X015629Y023557D01*
X015629Y023459D02*
X017090Y023459D01*
X017090Y023360D02*
X015629Y023360D01*
X009813Y018632D02*
X009443Y018632D01*
X009324Y018534D02*
X009616Y018534D01*
X009419Y018435D02*
X003125Y018435D01*
X003010Y018534D02*
X008827Y018534D01*
X008716Y018632D02*
X002895Y018632D01*
X002780Y018731D02*
X008652Y018731D01*
X008604Y018829D02*
X002666Y018829D01*
X002551Y018928D02*
X008556Y018928D01*
X008508Y019026D02*
X002436Y019026D01*
X002321Y019125D02*
X008460Y019125D01*
X008412Y019223D02*
X002206Y019223D01*
X002091Y019322D02*
X008364Y019322D01*
X008316Y019420D02*
X001976Y019420D01*
X001861Y019519D02*
X008291Y019519D01*
X008285Y019617D02*
X001746Y019617D01*
X001631Y019716D02*
X008302Y019716D01*
X009219Y020208D02*
X001057Y020208D01*
X000952Y020307D02*
X009268Y020307D01*
X009355Y020405D02*
X000952Y020405D01*
X003240Y018337D02*
X009222Y018337D01*
X009025Y018238D02*
X003355Y018238D01*
X003470Y018140D02*
X008828Y018140D01*
X008631Y018041D02*
X003585Y018041D01*
X003637Y014255D02*
X008649Y014255D01*
X009267Y013946D01*
X008980Y013358D01*
X008974Y013342D01*
X008971Y013325D01*
X008970Y013308D01*
X008971Y013291D01*
X008974Y013274D01*
X008980Y013258D01*
X008988Y013243D01*
X008997Y013229D01*
X009008Y013216D01*
X009021Y013205D01*
X009036Y013196D01*
X012364Y011572D01*
X012380Y011567D01*
X012397Y011564D01*
X012414Y011563D01*
X012431Y011564D01*
X012447Y011567D01*
X012463Y011573D01*
X012479Y011580D01*
X012493Y011590D01*
X012506Y011601D01*
X012517Y011614D01*
X012526Y011628D01*
X012796Y012182D01*
X013240Y011960D01*
X013240Y009027D01*
X008649Y006731D01*
X003637Y006731D01*
X000991Y008999D01*
X000991Y011988D01*
X003637Y014255D01*
X003572Y014200D02*
X008760Y014200D01*
X008957Y014101D02*
X003457Y014101D01*
X003342Y014003D02*
X009154Y014003D01*
X009246Y013904D02*
X003227Y013904D01*
X003112Y013806D02*
X009198Y013806D01*
X009150Y013707D02*
X002998Y013707D01*
X002883Y013609D02*
X009102Y013609D01*
X009054Y013510D02*
X002768Y013510D01*
X002653Y013412D02*
X009006Y013412D01*
X008970Y013313D02*
X002538Y013313D01*
X002423Y013215D02*
X009010Y013215D01*
X009198Y013116D02*
X002308Y013116D01*
X002193Y013018D02*
X009400Y013018D01*
X009602Y012919D02*
X002078Y012919D01*
X001963Y012821D02*
X009804Y012821D01*
X010006Y012722D02*
X001848Y012722D01*
X001733Y012624D02*
X010208Y012624D01*
X010410Y012525D02*
X001619Y012525D01*
X001504Y012427D02*
X010612Y012427D01*
X010814Y012328D02*
X001389Y012328D01*
X001274Y012230D02*
X011016Y012230D01*
X011218Y012131D02*
X001159Y012131D01*
X001044Y012033D02*
X011420Y012033D01*
X011622Y011934D02*
X000991Y011934D01*
X000991Y011836D02*
X011824Y011836D01*
X012026Y011737D02*
X000991Y011737D01*
X000991Y011639D02*
X012228Y011639D01*
X012531Y011639D02*
X013240Y011639D01*
X013240Y011737D02*
X012579Y011737D01*
X012627Y011836D02*
X013240Y011836D01*
X013240Y011934D02*
X012675Y011934D01*
X012723Y012033D02*
X013094Y012033D01*
X012897Y012131D02*
X012771Y012131D01*
X013240Y011540D02*
X000991Y011540D01*
X000991Y011442D02*
X013240Y011442D01*
X013240Y011343D02*
X007514Y011343D01*
X007647Y011288D02*
X007303Y011431D01*
X006930Y011431D01*
X006585Y011288D01*
X006322Y011024D01*
X006179Y010680D01*
X006179Y010307D01*
X006322Y009962D01*
X006585Y009699D01*
X006930Y009556D01*
X007303Y009556D01*
X007647Y009699D01*
X007911Y009962D01*
X008054Y010307D01*
X008054Y010680D01*
X007911Y011024D01*
X007647Y011288D01*
X007690Y011245D02*
X013240Y011245D01*
X013240Y011146D02*
X007789Y011146D01*
X007887Y011048D02*
X013240Y011048D01*
X013240Y010949D02*
X012735Y010949D01*
X012719Y010956D02*
X012535Y010956D01*
X012365Y010885D01*
X012235Y010755D01*
X012165Y010585D01*
X012165Y010401D01*
X012235Y010231D01*
X012365Y010101D01*
X012535Y010031D01*
X012719Y010031D01*
X012889Y010101D01*
X013019Y010231D01*
X013090Y010401D01*
X013090Y010585D01*
X013019Y010755D01*
X012889Y010885D01*
X012719Y010956D01*
X012520Y010949D02*
X007942Y010949D01*
X007983Y010851D02*
X012331Y010851D01*
X012234Y010752D02*
X008024Y010752D01*
X008054Y010654D02*
X012193Y010654D01*
X012165Y010555D02*
X008054Y010555D01*
X008054Y010457D02*
X012165Y010457D01*
X012183Y010358D02*
X008054Y010358D01*
X008034Y010260D02*
X012223Y010260D01*
X012305Y010161D02*
X007993Y010161D01*
X007953Y010063D02*
X012458Y010063D01*
X012796Y010063D02*
X013240Y010063D01*
X013240Y010161D02*
X012949Y010161D01*
X013031Y010260D02*
X013240Y010260D01*
X013240Y010358D02*
X013072Y010358D01*
X013090Y010457D02*
X013240Y010457D01*
X013240Y010555D02*
X013090Y010555D01*
X013061Y010654D02*
X013240Y010654D01*
X013240Y010752D02*
X013021Y010752D01*
X012924Y010851D02*
X013240Y010851D01*
X013240Y009964D02*
X007912Y009964D01*
X007814Y009866D02*
X013240Y009866D01*
X013240Y009767D02*
X007716Y009767D01*
X007575Y009669D02*
X013240Y009669D01*
X013240Y009570D02*
X007337Y009570D01*
X006895Y009570D02*
X000991Y009570D01*
X000991Y009472D02*
X013240Y009472D01*
X013240Y009373D02*
X000991Y009373D01*
X000991Y009275D02*
X013240Y009275D01*
X013240Y009176D02*
X009904Y009176D01*
X009958Y009157D02*
X009776Y009220D01*
X009584Y009208D01*
X009411Y009124D01*
X009283Y008980D01*
X009220Y008797D01*
X009232Y008605D01*
X009627Y007795D01*
X009771Y007667D01*
X009954Y007605D01*
X010146Y007616D01*
X010319Y007701D01*
X010447Y007845D01*
X010509Y008027D01*
X010498Y008220D01*
X010103Y009030D01*
X009958Y009157D01*
X010048Y009078D02*
X013240Y009078D01*
X013145Y008979D02*
X010127Y008979D01*
X010175Y008881D02*
X012948Y008881D01*
X012751Y008782D02*
X010223Y008782D01*
X010271Y008684D02*
X012554Y008684D01*
X012357Y008585D02*
X010319Y008585D01*
X010367Y008487D02*
X012160Y008487D01*
X011963Y008388D02*
X010416Y008388D01*
X010464Y008290D02*
X011766Y008290D01*
X011569Y008191D02*
X010499Y008191D01*
X010505Y008093D02*
X011372Y008093D01*
X011175Y007994D02*
X010498Y007994D01*
X010464Y007896D02*
X010978Y007896D01*
X010781Y007797D02*
X010404Y007797D01*
X010315Y007699D02*
X010584Y007699D01*
X010387Y007600D02*
X009610Y007600D01*
X009611Y007589D02*
X009599Y007781D01*
X009204Y008591D01*
X009059Y008719D01*
X008877Y008782D01*
X008685Y008770D01*
X008512Y008686D01*
X008384Y008541D01*
X008321Y008359D01*
X008333Y008167D01*
X008728Y007357D01*
X008873Y007229D01*
X009055Y007166D01*
X009247Y007178D01*
X009420Y007262D01*
X009548Y007407D01*
X009611Y007589D01*
X009581Y007502D02*
X010190Y007502D01*
X009993Y007403D02*
X009545Y007403D01*
X009458Y007305D02*
X009796Y007305D01*
X009599Y007206D02*
X009305Y007206D01*
X009402Y007108D02*
X003198Y007108D01*
X003313Y007009D02*
X009205Y007009D01*
X009008Y006911D02*
X003427Y006911D01*
X003542Y006812D02*
X008811Y006812D01*
X008939Y007206D02*
X003083Y007206D01*
X002968Y007305D02*
X008787Y007305D01*
X008706Y007403D02*
X002853Y007403D01*
X002738Y007502D02*
X008658Y007502D01*
X008609Y007600D02*
X002623Y007600D01*
X002508Y007699D02*
X008561Y007699D01*
X008513Y007797D02*
X002393Y007797D01*
X002278Y007896D02*
X008465Y007896D01*
X008417Y007994D02*
X002163Y007994D01*
X002048Y008093D02*
X008369Y008093D01*
X008332Y008191D02*
X001934Y008191D01*
X001819Y008290D02*
X008326Y008290D01*
X008331Y008388D02*
X001704Y008388D01*
X001589Y008487D02*
X008365Y008487D01*
X008423Y008585D02*
X001474Y008585D01*
X001359Y008684D02*
X008510Y008684D01*
X009099Y008684D02*
X009227Y008684D01*
X009221Y008782D02*
X001244Y008782D01*
X001129Y008881D02*
X009249Y008881D01*
X009283Y008979D02*
X001014Y008979D01*
X000991Y009078D02*
X009370Y009078D01*
X009518Y009176D02*
X000991Y009176D01*
X000991Y009669D02*
X006657Y009669D01*
X006517Y009767D02*
X000991Y009767D01*
X000991Y009866D02*
X006418Y009866D01*
X006321Y009964D02*
X000991Y009964D01*
X000991Y010063D02*
X006280Y010063D01*
X006239Y010161D02*
X000991Y010161D01*
X000991Y010260D02*
X006198Y010260D01*
X006179Y010358D02*
X000991Y010358D01*
X000991Y010457D02*
X006179Y010457D01*
X006179Y010555D02*
X000991Y010555D01*
X000991Y010654D02*
X006179Y010654D01*
X006209Y010752D02*
X000991Y010752D01*
X000991Y010851D02*
X006250Y010851D01*
X006290Y010949D02*
X000991Y010949D01*
X000991Y011048D02*
X006345Y011048D01*
X006444Y011146D02*
X000991Y011146D01*
X000991Y011245D02*
X006542Y011245D01*
X006719Y011343D02*
X000991Y011343D01*
X009207Y008585D02*
X009242Y008585D01*
X009255Y008487D02*
X009290Y008487D01*
X009303Y008388D02*
X009338Y008388D01*
X009351Y008290D02*
X009386Y008290D01*
X009399Y008191D02*
X009434Y008191D01*
X009447Y008093D02*
X009482Y008093D01*
X009495Y007994D02*
X009530Y007994D01*
X009543Y007896D02*
X009578Y007896D01*
X009591Y007797D02*
X009626Y007797D01*
X009604Y007699D02*
X009736Y007699D01*
D18*
X008116Y008956D03*
X008885Y010456D03*
X008216Y012056D03*
X007115Y013840D03*
X004556Y013840D03*
X003716Y011956D03*
X005216Y010456D03*
X003816Y008956D03*
X004556Y007147D03*
X007115Y007147D03*
X012824Y009312D03*
X014299Y010252D03*
X012824Y011674D03*
X016819Y010282D03*
X019549Y009722D03*
X019549Y011347D03*
X019549Y012972D03*
X015809Y017232D03*
X016139Y018932D03*
X015349Y020892D03*
X012785Y020611D03*
X012785Y022974D03*
X008845Y021755D03*
X008077Y020255D03*
X007076Y018446D03*
X004517Y018446D03*
X003777Y020255D03*
X005177Y021755D03*
X003677Y023255D03*
X004517Y025139D03*
X007076Y025139D03*
X008177Y023355D03*
X001269Y022974D03*
X001269Y020611D03*
X001308Y011674D03*
X001308Y009312D03*
X016779Y023992D03*
X017999Y022032D03*
X018209Y017872D03*
D19*
X017689Y013762D02*
X017689Y013607D01*
X017994Y013607D01*
X017994Y011382D01*
X018114Y011382D01*
X018589Y011382D01*
X018589Y013468D01*
X019884Y013468D01*
X019884Y013350D02*
X018589Y013350D01*
X018589Y013468D02*
X018578Y013509D01*
X018557Y013546D01*
X018528Y013575D01*
X018491Y013596D01*
X018450Y013607D01*
X018114Y013607D01*
X018114Y011382D01*
X018114Y011262D01*
X018589Y011262D01*
X018589Y009387D01*
X019884Y009387D01*
X019884Y013762D01*
X017689Y013762D01*
X017689Y013705D02*
X019884Y013705D01*
X019884Y013587D02*
X018508Y013587D01*
X018589Y013231D02*
X019884Y013231D01*
X019884Y013113D02*
X018589Y013113D01*
X018589Y012994D02*
X019884Y012994D01*
X019884Y012876D02*
X018589Y012876D01*
X018589Y012757D02*
X019884Y012757D01*
X019884Y012639D02*
X018589Y012639D01*
X018589Y012520D02*
X019884Y012520D01*
X019884Y012402D02*
X018589Y012402D01*
X018589Y012283D02*
X019884Y012283D01*
X019884Y012165D02*
X018589Y012165D01*
X018589Y012046D02*
X019884Y012046D01*
X019884Y011928D02*
X018589Y011928D01*
X018589Y011809D02*
X019884Y011809D01*
X019884Y011691D02*
X018589Y011691D01*
X018589Y011572D02*
X019884Y011572D01*
X019884Y011454D02*
X018589Y011454D01*
X018589Y011217D02*
X019884Y011217D01*
X019884Y011335D02*
X018114Y011335D01*
X018114Y011454D02*
X017994Y011454D01*
X017994Y011572D02*
X018114Y011572D01*
X018114Y011691D02*
X017994Y011691D01*
X017994Y011809D02*
X018114Y011809D01*
X018114Y011928D02*
X017994Y011928D01*
X017994Y012046D02*
X018114Y012046D01*
X018114Y012165D02*
X017994Y012165D01*
X017994Y012283D02*
X018114Y012283D01*
X018114Y012402D02*
X017994Y012402D01*
X017994Y012520D02*
X018114Y012520D01*
X018114Y012639D02*
X017994Y012639D01*
X017994Y012757D02*
X018114Y012757D01*
X018114Y012876D02*
X017994Y012876D01*
X017994Y012994D02*
X018114Y012994D01*
X018114Y013113D02*
X017994Y013113D01*
X017994Y013231D02*
X018114Y013231D01*
X018114Y013350D02*
X017994Y013350D01*
X017994Y013468D02*
X018114Y013468D01*
X018114Y013587D02*
X017994Y013587D01*
X018589Y011098D02*
X019884Y011098D01*
X019884Y010980D02*
X018589Y010980D01*
X018589Y010861D02*
X019884Y010861D01*
X019884Y010743D02*
X018589Y010743D01*
X018589Y010624D02*
X019884Y010624D01*
X019884Y010506D02*
X018589Y010506D01*
X018589Y010387D02*
X019884Y010387D01*
X019884Y010269D02*
X018589Y010269D01*
X018589Y010150D02*
X019884Y010150D01*
X019884Y010032D02*
X018589Y010032D01*
X018589Y009913D02*
X019884Y009913D01*
X019884Y009795D02*
X018589Y009795D01*
X018589Y009676D02*
X019884Y009676D01*
X019884Y009558D02*
X018589Y009558D01*
X018589Y009439D02*
X019884Y009439D01*
D20*
X000840Y008628D02*
X000840Y006580D01*
X003229Y006580D01*
X000840Y008628D01*
X000974Y008513D02*
X000974Y006580D01*
X000840Y006714D02*
X003073Y006714D01*
X002942Y006826D02*
X002942Y006580D01*
X002549Y006580D02*
X002549Y007164D01*
X002614Y007107D02*
X000840Y007107D01*
X000840Y007501D02*
X002155Y007501D01*
X002155Y006580D01*
X001761Y006580D02*
X001761Y007839D01*
X001695Y007895D02*
X000840Y007895D01*
X000840Y008289D02*
X001236Y008289D01*
X001367Y008176D02*
X001367Y006580D01*
X000840Y012517D02*
X000840Y018366D01*
X000856Y019824D01*
X002155Y018564D01*
X002155Y013657D01*
X002320Y013800D02*
X000840Y013800D01*
X000840Y013407D02*
X001866Y013407D01*
X001761Y013316D02*
X001761Y018946D01*
X001789Y018918D02*
X000846Y018918D01*
X000850Y019312D02*
X001383Y019312D01*
X001367Y019328D02*
X001367Y012974D01*
X001412Y013013D02*
X000840Y013013D01*
X000840Y012619D02*
X000958Y012619D01*
X000974Y012633D02*
X000974Y019709D01*
X000977Y019706D02*
X000854Y019706D01*
X000842Y018525D02*
X002202Y018525D01*
X002155Y018564D02*
X003533Y017422D01*
X008730Y017383D01*
X013375Y019785D01*
X013415Y012540D01*
X008887Y014785D01*
X003454Y014785D01*
X000840Y012517D01*
X000840Y014194D02*
X002773Y014194D01*
X002942Y014340D02*
X002942Y017912D01*
X003153Y017737D02*
X000840Y017737D01*
X000840Y017344D02*
X013389Y017344D01*
X013386Y017737D02*
X009415Y017737D01*
X009241Y017648D02*
X009241Y014609D01*
X009284Y014588D02*
X013404Y014588D01*
X013406Y014194D02*
X010079Y014194D01*
X010029Y014219D02*
X010029Y018055D01*
X010177Y018131D02*
X013384Y018131D01*
X013382Y018525D02*
X010938Y018525D01*
X010816Y018462D02*
X010816Y013828D01*
X010873Y013800D02*
X013408Y013800D01*
X013410Y013407D02*
X011667Y013407D01*
X011604Y013438D02*
X011604Y018869D01*
X011700Y018918D02*
X013380Y018918D01*
X013378Y019312D02*
X012461Y019312D01*
X012391Y019276D02*
X012391Y013048D01*
X012461Y013013D02*
X013412Y013013D01*
X013414Y012619D02*
X013256Y012619D01*
X013178Y012658D02*
X013178Y019683D01*
X013223Y019706D02*
X013376Y019706D01*
X012785Y019479D02*
X012785Y012853D01*
X011997Y013243D02*
X011997Y019072D01*
X011210Y018665D02*
X011210Y013633D01*
X010423Y014024D02*
X010423Y018258D01*
X009635Y017851D02*
X009635Y014414D01*
X008848Y014785D02*
X008848Y017444D01*
X008454Y017385D02*
X008454Y014785D01*
X008060Y014785D02*
X008060Y017388D01*
X007667Y017391D02*
X007667Y014785D01*
X007273Y014785D02*
X007273Y017394D01*
X006879Y017397D02*
X006879Y014785D01*
X006486Y014785D02*
X006486Y017400D01*
X006092Y017403D02*
X006092Y014785D01*
X005698Y014785D02*
X005698Y017406D01*
X005304Y017409D02*
X005304Y014785D01*
X004911Y014785D02*
X004911Y017412D01*
X004517Y017415D02*
X004517Y014785D01*
X004123Y014785D02*
X004123Y017418D01*
X003730Y017421D02*
X003730Y014785D01*
X003336Y014682D02*
X003336Y017585D01*
X002677Y018131D02*
X000840Y018131D01*
X000840Y016950D02*
X013391Y016950D01*
X013393Y016556D02*
X000840Y016556D01*
X000840Y016163D02*
X013395Y016163D01*
X013397Y015769D02*
X000840Y015769D01*
X000840Y015375D02*
X013399Y015375D01*
X013401Y014981D02*
X000840Y014981D01*
X000840Y014588D02*
X003227Y014588D01*
X002549Y013999D02*
X002549Y018238D01*
X000840Y023691D02*
X000840Y025745D01*
X003236Y025745D01*
X000840Y023691D01*
X000974Y023806D02*
X000974Y025745D01*
X000840Y025611D02*
X003080Y025611D01*
X002942Y025493D02*
X002942Y025745D01*
X002549Y025745D02*
X002549Y025156D01*
X002621Y025218D02*
X000840Y025218D01*
X000840Y024824D02*
X002161Y024824D01*
X002155Y024818D02*
X002155Y025745D01*
X001761Y025745D02*
X001761Y024481D01*
X001702Y024430D02*
X000840Y024430D01*
X000840Y024037D02*
X001243Y024037D01*
X001367Y024143D02*
X001367Y025745D01*
X009132Y025745D02*
X013572Y025745D01*
X013572Y023564D01*
X009132Y025745D01*
X009241Y025745D02*
X009241Y025691D01*
X009405Y025611D02*
X013572Y025611D01*
X013572Y025218D02*
X010206Y025218D01*
X010029Y025305D02*
X010029Y025745D01*
X010423Y025745D02*
X010423Y025111D01*
X010816Y024918D02*
X010816Y025745D01*
X011210Y025745D02*
X011210Y024724D01*
X011007Y024824D02*
X013572Y024824D01*
X013572Y024430D02*
X011809Y024430D01*
X011997Y024338D02*
X011997Y025745D01*
X011604Y025745D02*
X011604Y024531D01*
X012391Y024144D02*
X012391Y025745D01*
X012785Y025745D02*
X012785Y023951D01*
X012610Y024037D02*
X013572Y024037D01*
X013572Y023643D02*
X013412Y023643D01*
X013178Y023757D02*
X013178Y025745D01*
X009635Y025745D02*
X009635Y025498D01*
X016449Y017872D02*
X015809Y017232D01*
X016449Y017872D02*
X018209Y017872D01*
X018297Y008918D02*
X018297Y006589D01*
X017903Y006588D02*
X017903Y008918D01*
X017509Y008918D02*
X017509Y006586D01*
X017115Y006585D02*
X017115Y008918D01*
X016722Y008918D02*
X016722Y006584D01*
X016328Y006582D02*
X016328Y008918D01*
X015934Y008918D02*
X015934Y006581D01*
X015741Y006580D02*
X009252Y006580D01*
X014163Y008918D01*
X020005Y008918D01*
X020005Y006596D01*
X015741Y006580D01*
X015541Y006580D02*
X015541Y008918D01*
X015147Y008918D02*
X015147Y006580D01*
X014753Y006580D02*
X014753Y008918D01*
X014360Y008918D02*
X014360Y006580D01*
X013966Y006580D02*
X013966Y008825D01*
X013667Y008682D02*
X020005Y008682D01*
X019871Y008918D02*
X019871Y006595D01*
X020005Y006714D02*
X009533Y006714D01*
X009635Y006762D02*
X009635Y006580D01*
X010029Y006580D02*
X010029Y006950D01*
X010360Y007107D02*
X020005Y007107D01*
X020005Y007501D02*
X011186Y007501D01*
X011210Y007512D02*
X011210Y006580D01*
X011604Y006580D02*
X011604Y007700D01*
X011997Y007887D02*
X011997Y006580D01*
X012391Y006580D02*
X012391Y008075D01*
X012785Y008262D02*
X012785Y006580D01*
X013178Y006580D02*
X013178Y008450D01*
X012840Y008289D02*
X020005Y008289D01*
X020005Y007895D02*
X012013Y007895D01*
X010816Y007325D02*
X010816Y006580D01*
X010423Y006580D02*
X010423Y007137D01*
X013572Y006580D02*
X013572Y008637D01*
X018690Y008918D02*
X018690Y006591D01*
X019084Y006592D02*
X019084Y008918D01*
X019478Y008918D02*
X019478Y006594D01*
D21*
X017869Y023092D02*
X017869Y023372D01*
X017869Y024632D02*
X017869Y024872D01*
X014849Y024682D02*
X014809Y024902D01*
X014849Y023422D02*
X014809Y023192D01*
D22*
X015109Y022892D01*
X017669Y022892D01*
X017869Y023092D01*
X017869Y024872D02*
X018219Y025222D01*
X018349Y025222D01*
X015199Y025252D02*
X015179Y025252D01*
X014809Y024902D01*
D23*
X015199Y025252D03*
X018349Y025222D03*
M02*
