G75*
G70*
%OFA0B0*%
%FSLAX24Y24*%
%IPPOS*%
%LPD*%
%AMOC8*
5,1,8,0,0,1.08239X$1,22.5*
%
%ADD10C,0.1655*%
%ADD11C,0.0705*%
%ADD12R,0.1379X0.0592*%
%ADD13R,0.0277X0.0434*%
%ADD14R,0.0592X0.1379*%
%ADD15R,0.0434X0.0277*%
%ADD16C,0.0789*%
%ADD17R,0.0300X0.0600*%
%ADD18R,0.0710X0.0789*%
%ADD19R,0.0790X0.0710*%
%ADD20R,0.0220X0.0285*%
%ADD21R,0.0225X0.0285*%
%ADD22R,0.0580X0.0300*%
%ADD23R,0.0513X0.0474*%
%ADD24R,0.0474X0.0513*%
%ADD25C,0.0330*%
%ADD26R,0.0631X0.0474*%
%ADD27R,0.0300X0.0860*%
%ADD28R,0.0830X0.4330*%
%ADD29C,0.1340*%
%ADD30C,0.0476*%
%ADD31R,0.0476X0.0476*%
%ADD32R,0.0580X0.0580*%
D10*
X007116Y011643D03*
X007077Y022903D03*
D11*
X012588Y022903D03*
X012627Y011643D03*
D12*
X011446Y011643D03*
X001997Y011643D03*
X001958Y022903D03*
X011407Y022903D03*
X015707Y023940D03*
X018967Y023890D03*
D13*
X018967Y023261D03*
X018967Y024520D03*
X015707Y024570D03*
X015707Y023311D03*
X011407Y023533D03*
X011407Y022273D03*
X011446Y012273D03*
X011446Y011013D03*
X001997Y011013D03*
X001997Y012273D03*
X001958Y022273D03*
X001958Y023533D03*
D14*
X005797Y025462D03*
X005797Y020344D03*
X005836Y014202D03*
X005836Y009084D03*
D15*
X006466Y009084D03*
X005206Y009084D03*
X005206Y014202D03*
X006466Y014202D03*
X006426Y020344D03*
X005167Y020344D03*
X005167Y025462D03*
X006426Y025462D03*
D16*
X009670Y021141D02*
X009981Y020504D01*
X009082Y020065D02*
X008771Y020702D01*
X009710Y009881D02*
X010020Y009244D01*
X009121Y008806D02*
X008811Y009443D01*
D17*
X017137Y013980D03*
X017507Y013980D03*
X017877Y013980D03*
X017877Y014900D03*
X017137Y014900D03*
D18*
X017646Y015710D03*
X018748Y015710D03*
D19*
X014807Y021481D03*
X014807Y022600D03*
D20*
X019057Y021340D03*
D21*
X019428Y020565D03*
X018685Y020565D03*
D22*
X017367Y017230D03*
X017367Y016860D03*
X017367Y016490D03*
X016347Y016490D03*
X016347Y016860D03*
X016347Y017230D03*
D23*
X015131Y016380D03*
X015577Y015685D03*
X015577Y015016D03*
X016417Y015026D03*
X016417Y015695D03*
X018162Y016620D03*
X018831Y016620D03*
X018667Y017766D03*
X018667Y018435D03*
X014627Y019386D03*
X014627Y020055D03*
X014462Y016380D03*
D24*
X014462Y017210D03*
X015131Y017210D03*
X014637Y018066D03*
X014637Y018735D03*
X016382Y020760D03*
X017051Y020760D03*
X017051Y021580D03*
X016382Y021580D03*
X017597Y018685D03*
X017597Y018016D03*
X018752Y019150D03*
X019421Y019150D03*
X018647Y014795D03*
X018647Y014126D03*
X016201Y014350D03*
X015532Y014350D03*
D25*
X014847Y013870D03*
X014947Y015680D03*
X016977Y015980D03*
X017527Y015100D03*
X018497Y017220D03*
X017867Y017230D03*
X017257Y019930D03*
X018187Y020570D03*
D26*
X017734Y020154D03*
X017734Y019406D03*
X018600Y019780D03*
D27*
X016877Y019930D03*
X016377Y019930D03*
X015877Y019930D03*
X015377Y019930D03*
X015377Y018070D03*
X015877Y018070D03*
X016377Y018070D03*
X016877Y018070D03*
D28*
X015832Y011210D03*
X018832Y011210D03*
D29*
X016957Y012710D03*
D30*
X004556Y008297D03*
X003816Y010106D03*
X005216Y011606D03*
X003716Y013106D03*
X004556Y014990D03*
X007115Y014990D03*
X008216Y013206D03*
X008885Y011606D03*
X008116Y010106D03*
X007115Y008297D03*
X012824Y010462D03*
X012824Y012824D03*
X015837Y017120D03*
X016167Y018820D03*
X015377Y020780D03*
X017717Y021080D03*
X018237Y017760D03*
X012785Y021722D03*
X012785Y024084D03*
X008845Y022866D03*
X008077Y021366D03*
X007076Y019557D03*
X004517Y019557D03*
X003777Y021366D03*
X005177Y022866D03*
X003677Y024366D03*
X004517Y026250D03*
X007076Y026250D03*
X008177Y024466D03*
X001269Y024084D03*
X001269Y021722D03*
X001308Y012824D03*
X001308Y010462D03*
D31*
X015297Y013690D03*
D32*
X015227Y025140D03*
X018377Y025110D03*
M02*
