G75*
G70*
%OFA0B0*%
%FSLAX24Y24*%
%IPPOS*%
%LPD*%
%AMOC8*
5,1,8,0,0,1.08239X$1,22.5*
%
%ADD10C,0.0050*%
%ADD11C,0.0010*%
%ADD12C,0.0000*%
%ADD13C,0.0160*%
%ADD14C,0.0040*%
%ADD15C,0.0080*%
D10*
X000816Y008918D02*
X003572Y006556D01*
X008690Y006556D01*
X013415Y008918D01*
X013415Y012068D01*
X008690Y014430D01*
X003572Y014430D01*
X000816Y012068D01*
X000816Y008918D01*
X003533Y017855D02*
X008651Y017855D01*
X013375Y020218D01*
X013375Y023367D01*
X008651Y025729D01*
X003533Y025729D01*
X000777Y023367D01*
X000777Y020218D01*
X003533Y017855D01*
D11*
X004117Y018846D02*
X004917Y018046D01*
X004117Y018046D02*
X004917Y018846D01*
X004177Y019855D02*
X003377Y020655D01*
X003377Y019855D02*
X004177Y020655D01*
X005577Y021355D02*
X004777Y022155D01*
X004777Y021355D02*
X005577Y022155D01*
X006687Y021792D02*
X006689Y021831D01*
X006695Y021869D01*
X006704Y021907D01*
X006718Y021943D01*
X006734Y021979D01*
X006755Y022012D01*
X006778Y022043D01*
X006805Y022071D01*
X006834Y022097D01*
X006865Y022120D01*
X006899Y022139D01*
X006935Y022155D01*
X006971Y022167D01*
X007009Y022176D01*
X007048Y022181D01*
X007087Y022182D01*
X007125Y022179D01*
X007164Y022172D01*
X007201Y022162D01*
X007237Y022147D01*
X007272Y022130D01*
X007305Y022109D01*
X007335Y022084D01*
X007363Y022057D01*
X007388Y022027D01*
X007410Y021995D01*
X007428Y021961D01*
X007443Y021925D01*
X007455Y021888D01*
X007463Y021850D01*
X007467Y021811D01*
X007467Y021773D01*
X007463Y021734D01*
X007455Y021696D01*
X007443Y021659D01*
X007428Y021623D01*
X007410Y021589D01*
X007388Y021557D01*
X007363Y021527D01*
X007335Y021500D01*
X007305Y021475D01*
X007272Y021454D01*
X007237Y021437D01*
X007201Y021422D01*
X007164Y021412D01*
X007125Y021405D01*
X007087Y021402D01*
X007048Y021403D01*
X007009Y021408D01*
X006971Y021417D01*
X006935Y021429D01*
X006899Y021445D01*
X006865Y021464D01*
X006834Y021487D01*
X006805Y021513D01*
X006778Y021541D01*
X006755Y021572D01*
X006734Y021605D01*
X006718Y021641D01*
X006704Y021677D01*
X006695Y021715D01*
X006689Y021753D01*
X006687Y021792D01*
X006677Y021392D02*
X007477Y022192D01*
X008577Y022955D02*
X007777Y023755D01*
X007777Y022955D02*
X008577Y023755D01*
X007476Y024739D02*
X006676Y025539D01*
X006676Y024739D02*
X007476Y025539D01*
X004917Y024739D02*
X004117Y025539D01*
X004117Y024739D02*
X004917Y025539D01*
X003277Y023655D02*
X004077Y022855D01*
X003277Y022855D02*
X004077Y023655D01*
X001669Y022574D02*
X000869Y023374D01*
X000869Y022574D02*
X001669Y023374D01*
X000869Y021011D02*
X001669Y020211D01*
X000869Y020211D02*
X001669Y021011D01*
X006676Y018846D02*
X007476Y018046D01*
X006676Y018046D02*
X007476Y018846D01*
X008527Y019273D02*
X009327Y019273D01*
X008927Y018873D01*
X008927Y019673D01*
X008527Y019273D01*
X008477Y019855D02*
X007677Y020655D01*
X007677Y019855D02*
X008477Y020655D01*
X009245Y021355D02*
X008445Y022155D01*
X008445Y021355D02*
X009245Y022155D01*
X009425Y019712D02*
X010225Y019712D01*
X009825Y019312D01*
X009825Y020112D01*
X009425Y019712D01*
X012385Y021011D02*
X013185Y020211D01*
X012385Y020211D02*
X013185Y021011D01*
X012198Y021792D02*
X012200Y021831D01*
X012206Y021869D01*
X012215Y021907D01*
X012229Y021943D01*
X012245Y021979D01*
X012266Y022012D01*
X012289Y022043D01*
X012316Y022071D01*
X012345Y022097D01*
X012376Y022120D01*
X012410Y022139D01*
X012446Y022155D01*
X012482Y022167D01*
X012520Y022176D01*
X012559Y022181D01*
X012598Y022182D01*
X012636Y022179D01*
X012675Y022172D01*
X012712Y022162D01*
X012748Y022147D01*
X012783Y022130D01*
X012816Y022109D01*
X012846Y022084D01*
X012874Y022057D01*
X012899Y022027D01*
X012921Y021995D01*
X012939Y021961D01*
X012954Y021925D01*
X012966Y021888D01*
X012974Y021850D01*
X012978Y021811D01*
X012978Y021773D01*
X012974Y021734D01*
X012966Y021696D01*
X012954Y021659D01*
X012939Y021623D01*
X012921Y021589D01*
X012899Y021557D01*
X012874Y021527D01*
X012846Y021500D01*
X012816Y021475D01*
X012783Y021454D01*
X012748Y021437D01*
X012712Y021422D01*
X012675Y021412D01*
X012636Y021405D01*
X012598Y021402D01*
X012559Y021403D01*
X012520Y021408D01*
X012482Y021417D01*
X012446Y021429D01*
X012410Y021445D01*
X012376Y021464D01*
X012345Y021487D01*
X012316Y021513D01*
X012289Y021541D01*
X012266Y021572D01*
X012245Y021605D01*
X012229Y021641D01*
X012215Y021677D01*
X012206Y021715D01*
X012200Y021753D01*
X012198Y021792D01*
X012188Y021392D02*
X012988Y022192D01*
X013185Y022574D02*
X012385Y023374D01*
X012385Y022574D02*
X013185Y023374D01*
X014799Y025652D02*
X015599Y024852D01*
X014799Y024852D02*
X015599Y025652D01*
X016379Y024392D02*
X017179Y023592D01*
X016379Y023592D02*
X017179Y024392D01*
X017949Y025622D02*
X018749Y024822D01*
X017949Y024822D02*
X018749Y025622D01*
X020049Y025722D02*
X013799Y025722D01*
X013799Y009222D01*
X020049Y009222D01*
X020049Y025722D01*
X017599Y022432D02*
X018399Y021632D01*
X017599Y021632D02*
X018399Y022432D01*
X015749Y020492D02*
X014949Y021292D01*
X014949Y020492D02*
X015749Y021292D01*
X015739Y019332D02*
X016539Y018532D01*
X015739Y018532D02*
X016539Y019332D01*
X017809Y018272D02*
X018609Y017472D01*
X017809Y017472D02*
X018609Y018272D01*
X016209Y016832D02*
X015409Y017632D01*
X015409Y016832D02*
X016209Y017632D01*
X019149Y013372D02*
X019949Y012572D01*
X019149Y012572D02*
X019949Y013372D01*
X019149Y011747D02*
X019949Y010947D01*
X019149Y010947D02*
X019949Y011747D01*
X019149Y010122D02*
X019949Y009322D01*
X019149Y009322D02*
X019949Y010122D01*
X017219Y009882D02*
X016419Y010682D01*
X016419Y009882D02*
X017219Y010682D01*
X014699Y009852D02*
X013899Y010652D01*
X013899Y009852D02*
X014699Y010652D01*
X013224Y011274D02*
X012424Y012074D01*
X012424Y011274D02*
X013224Y012074D01*
X012237Y010493D02*
X012239Y010532D01*
X012245Y010570D01*
X012254Y010608D01*
X012268Y010644D01*
X012284Y010680D01*
X012305Y010713D01*
X012328Y010744D01*
X012355Y010772D01*
X012384Y010798D01*
X012415Y010821D01*
X012449Y010840D01*
X012485Y010856D01*
X012521Y010868D01*
X012559Y010877D01*
X012598Y010882D01*
X012637Y010883D01*
X012675Y010880D01*
X012714Y010873D01*
X012751Y010863D01*
X012787Y010848D01*
X012822Y010831D01*
X012855Y010810D01*
X012885Y010785D01*
X012913Y010758D01*
X012938Y010728D01*
X012960Y010696D01*
X012978Y010662D01*
X012993Y010626D01*
X013005Y010589D01*
X013013Y010551D01*
X013017Y010512D01*
X013017Y010474D01*
X013013Y010435D01*
X013005Y010397D01*
X012993Y010360D01*
X012978Y010324D01*
X012960Y010290D01*
X012938Y010258D01*
X012913Y010228D01*
X012885Y010201D01*
X012855Y010176D01*
X012822Y010155D01*
X012787Y010138D01*
X012751Y010123D01*
X012714Y010113D01*
X012675Y010106D01*
X012637Y010103D01*
X012598Y010104D01*
X012559Y010109D01*
X012521Y010118D01*
X012485Y010130D01*
X012449Y010146D01*
X012415Y010165D01*
X012384Y010188D01*
X012355Y010214D01*
X012328Y010242D01*
X012305Y010273D01*
X012284Y010306D01*
X012268Y010342D01*
X012254Y010378D01*
X012245Y010416D01*
X012239Y010454D01*
X012237Y010493D01*
X012227Y010093D02*
X013027Y010893D01*
X012424Y009712D02*
X013224Y008912D01*
X012424Y008912D02*
X013224Y009712D01*
X010265Y008412D02*
X009465Y008412D01*
X009865Y008012D02*
X010265Y008412D01*
X009865Y008012D02*
X009865Y008812D01*
X009465Y008412D01*
X009366Y007974D02*
X008566Y007974D01*
X008966Y007574D02*
X009366Y007974D01*
X008966Y007574D02*
X008966Y008374D01*
X008566Y007974D01*
X008516Y008556D02*
X007716Y009356D01*
X007716Y008556D02*
X008516Y009356D01*
X009285Y010056D02*
X008485Y010856D01*
X008485Y010056D02*
X009285Y010856D01*
X008616Y011656D02*
X007816Y012456D01*
X007816Y011656D02*
X008616Y012456D01*
X007515Y013440D02*
X006715Y014240D01*
X006715Y013440D02*
X007515Y014240D01*
X004956Y013440D02*
X004156Y014240D01*
X004156Y013440D02*
X004956Y014240D01*
X003316Y012356D02*
X004116Y011556D01*
X003316Y011556D02*
X004116Y012356D01*
X004816Y010856D02*
X005616Y010056D01*
X004816Y010056D02*
X005616Y010856D01*
X006726Y010493D02*
X006728Y010532D01*
X006734Y010570D01*
X006743Y010608D01*
X006757Y010644D01*
X006773Y010680D01*
X006794Y010713D01*
X006817Y010744D01*
X006844Y010772D01*
X006873Y010798D01*
X006904Y010821D01*
X006938Y010840D01*
X006974Y010856D01*
X007010Y010868D01*
X007048Y010877D01*
X007087Y010882D01*
X007126Y010883D01*
X007164Y010880D01*
X007203Y010873D01*
X007240Y010863D01*
X007276Y010848D01*
X007311Y010831D01*
X007344Y010810D01*
X007374Y010785D01*
X007402Y010758D01*
X007427Y010728D01*
X007449Y010696D01*
X007467Y010662D01*
X007482Y010626D01*
X007494Y010589D01*
X007502Y010551D01*
X007506Y010512D01*
X007506Y010474D01*
X007502Y010435D01*
X007494Y010397D01*
X007482Y010360D01*
X007467Y010324D01*
X007449Y010290D01*
X007427Y010258D01*
X007402Y010228D01*
X007374Y010201D01*
X007344Y010176D01*
X007311Y010155D01*
X007276Y010138D01*
X007240Y010123D01*
X007203Y010113D01*
X007164Y010106D01*
X007126Y010103D01*
X007087Y010104D01*
X007048Y010109D01*
X007010Y010118D01*
X006974Y010130D01*
X006938Y010146D01*
X006904Y010165D01*
X006873Y010188D01*
X006844Y010214D01*
X006817Y010242D01*
X006794Y010273D01*
X006773Y010306D01*
X006757Y010342D01*
X006743Y010378D01*
X006734Y010416D01*
X006728Y010454D01*
X006726Y010493D01*
X006716Y010093D02*
X007516Y010893D01*
X006715Y007547D02*
X007515Y006747D01*
X006715Y006747D02*
X007515Y007547D01*
X004956Y006747D02*
X004156Y007547D01*
X004156Y006747D02*
X004956Y007547D01*
X004216Y008556D02*
X003416Y009356D01*
X003416Y008556D02*
X004216Y009356D01*
X001708Y008912D02*
X000908Y009712D01*
X000908Y008912D02*
X001708Y009712D01*
X001708Y011274D02*
X000908Y012074D01*
X000908Y011274D02*
X001708Y012074D01*
D12*
X006329Y010493D02*
X006331Y010549D01*
X006337Y010604D01*
X006347Y010658D01*
X006360Y010712D01*
X006378Y010765D01*
X006399Y010816D01*
X006423Y010866D01*
X006451Y010914D01*
X006483Y010960D01*
X006517Y011004D01*
X006555Y011045D01*
X006595Y011083D01*
X006638Y011118D01*
X006683Y011150D01*
X006731Y011179D01*
X006780Y011205D01*
X006831Y011227D01*
X006883Y011245D01*
X006937Y011259D01*
X006992Y011270D01*
X007047Y011277D01*
X007102Y011280D01*
X007158Y011279D01*
X007213Y011274D01*
X007268Y011265D01*
X007322Y011253D01*
X007375Y011236D01*
X007427Y011216D01*
X007477Y011192D01*
X007525Y011165D01*
X007572Y011135D01*
X007616Y011101D01*
X007658Y011064D01*
X007696Y011024D01*
X007733Y010982D01*
X007766Y010937D01*
X007795Y010891D01*
X007822Y010842D01*
X007844Y010791D01*
X007864Y010739D01*
X007879Y010685D01*
X007891Y010631D01*
X007899Y010576D01*
X007903Y010521D01*
X007903Y010465D01*
X007899Y010410D01*
X007891Y010355D01*
X007879Y010301D01*
X007864Y010247D01*
X007844Y010195D01*
X007822Y010144D01*
X007795Y010095D01*
X007766Y010049D01*
X007733Y010004D01*
X007696Y009962D01*
X007658Y009922D01*
X007616Y009885D01*
X007572Y009851D01*
X007525Y009821D01*
X007477Y009794D01*
X007427Y009770D01*
X007375Y009750D01*
X007322Y009733D01*
X007268Y009721D01*
X007213Y009712D01*
X007158Y009707D01*
X007102Y009706D01*
X007047Y009709D01*
X006992Y009716D01*
X006937Y009727D01*
X006883Y009741D01*
X006831Y009759D01*
X006780Y009781D01*
X006731Y009807D01*
X006683Y009836D01*
X006638Y009868D01*
X006595Y009903D01*
X006555Y009941D01*
X006517Y009982D01*
X006483Y010026D01*
X006451Y010072D01*
X006423Y010120D01*
X006399Y010170D01*
X006378Y010221D01*
X006360Y010274D01*
X006347Y010328D01*
X006337Y010382D01*
X006331Y010437D01*
X006329Y010493D01*
X012314Y010493D02*
X012316Y010528D01*
X012322Y010563D01*
X012332Y010596D01*
X012345Y010629D01*
X012362Y010660D01*
X012382Y010688D01*
X012406Y010714D01*
X012432Y010738D01*
X012460Y010758D01*
X012491Y010775D01*
X012524Y010788D01*
X012557Y010798D01*
X012592Y010804D01*
X012627Y010806D01*
X012662Y010804D01*
X012697Y010798D01*
X012730Y010788D01*
X012763Y010775D01*
X012794Y010758D01*
X012822Y010738D01*
X012848Y010714D01*
X012872Y010688D01*
X012892Y010660D01*
X012909Y010629D01*
X012922Y010596D01*
X012932Y010563D01*
X012938Y010528D01*
X012940Y010493D01*
X012938Y010458D01*
X012932Y010423D01*
X012922Y010390D01*
X012909Y010357D01*
X012892Y010326D01*
X012872Y010298D01*
X012848Y010272D01*
X012822Y010248D01*
X012794Y010228D01*
X012763Y010211D01*
X012730Y010198D01*
X012697Y010188D01*
X012662Y010182D01*
X012627Y010180D01*
X012592Y010182D01*
X012557Y010188D01*
X012524Y010198D01*
X012491Y010211D01*
X012460Y010228D01*
X012432Y010248D01*
X012406Y010272D01*
X012382Y010298D01*
X012362Y010326D01*
X012345Y010357D01*
X012332Y010390D01*
X012322Y010423D01*
X012316Y010458D01*
X012314Y010493D01*
X012275Y021792D02*
X012277Y021827D01*
X012283Y021862D01*
X012293Y021895D01*
X012306Y021928D01*
X012323Y021959D01*
X012343Y021987D01*
X012367Y022013D01*
X012393Y022037D01*
X012421Y022057D01*
X012452Y022074D01*
X012485Y022087D01*
X012518Y022097D01*
X012553Y022103D01*
X012588Y022105D01*
X012623Y022103D01*
X012658Y022097D01*
X012691Y022087D01*
X012724Y022074D01*
X012755Y022057D01*
X012783Y022037D01*
X012809Y022013D01*
X012833Y021987D01*
X012853Y021959D01*
X012870Y021928D01*
X012883Y021895D01*
X012893Y021862D01*
X012899Y021827D01*
X012901Y021792D01*
X012899Y021757D01*
X012893Y021722D01*
X012883Y021689D01*
X012870Y021656D01*
X012853Y021625D01*
X012833Y021597D01*
X012809Y021571D01*
X012783Y021547D01*
X012755Y021527D01*
X012724Y021510D01*
X012691Y021497D01*
X012658Y021487D01*
X012623Y021481D01*
X012588Y021479D01*
X012553Y021481D01*
X012518Y021487D01*
X012485Y021497D01*
X012452Y021510D01*
X012421Y021527D01*
X012393Y021547D01*
X012367Y021571D01*
X012343Y021597D01*
X012323Y021625D01*
X012306Y021656D01*
X012293Y021689D01*
X012283Y021722D01*
X012277Y021757D01*
X012275Y021792D01*
X006290Y021792D02*
X006292Y021848D01*
X006298Y021903D01*
X006308Y021957D01*
X006321Y022011D01*
X006339Y022064D01*
X006360Y022115D01*
X006384Y022165D01*
X006412Y022213D01*
X006444Y022259D01*
X006478Y022303D01*
X006516Y022344D01*
X006556Y022382D01*
X006599Y022417D01*
X006644Y022449D01*
X006692Y022478D01*
X006741Y022504D01*
X006792Y022526D01*
X006844Y022544D01*
X006898Y022558D01*
X006953Y022569D01*
X007008Y022576D01*
X007063Y022579D01*
X007119Y022578D01*
X007174Y022573D01*
X007229Y022564D01*
X007283Y022552D01*
X007336Y022535D01*
X007388Y022515D01*
X007438Y022491D01*
X007486Y022464D01*
X007533Y022434D01*
X007577Y022400D01*
X007619Y022363D01*
X007657Y022323D01*
X007694Y022281D01*
X007727Y022236D01*
X007756Y022190D01*
X007783Y022141D01*
X007805Y022090D01*
X007825Y022038D01*
X007840Y021984D01*
X007852Y021930D01*
X007860Y021875D01*
X007864Y021820D01*
X007864Y021764D01*
X007860Y021709D01*
X007852Y021654D01*
X007840Y021600D01*
X007825Y021546D01*
X007805Y021494D01*
X007783Y021443D01*
X007756Y021394D01*
X007727Y021348D01*
X007694Y021303D01*
X007657Y021261D01*
X007619Y021221D01*
X007577Y021184D01*
X007533Y021150D01*
X007486Y021120D01*
X007438Y021093D01*
X007388Y021069D01*
X007336Y021049D01*
X007283Y021032D01*
X007229Y021020D01*
X007174Y021011D01*
X007119Y021006D01*
X007063Y021005D01*
X007008Y021008D01*
X006953Y021015D01*
X006898Y021026D01*
X006844Y021040D01*
X006792Y021058D01*
X006741Y021080D01*
X006692Y021106D01*
X006644Y021135D01*
X006599Y021167D01*
X006556Y021202D01*
X006516Y021240D01*
X006478Y021281D01*
X006444Y021325D01*
X006412Y021371D01*
X006384Y021419D01*
X006360Y021469D01*
X006339Y021520D01*
X006321Y021573D01*
X006308Y021627D01*
X006298Y021681D01*
X006292Y021736D01*
X006290Y021792D01*
D13*
X000580Y026005D02*
X000580Y006320D01*
X020265Y006320D01*
X020265Y026005D01*
X000580Y026005D01*
D14*
X001269Y023174D02*
X001269Y022774D01*
X001069Y022974D02*
X001469Y022974D01*
X003477Y023255D02*
X003877Y023255D01*
X003677Y023455D02*
X003677Y023055D01*
X004977Y021755D02*
X005377Y021755D01*
X005177Y021955D02*
X005177Y021555D01*
X003977Y020255D02*
X003577Y020255D01*
X003777Y020455D02*
X003777Y020055D01*
X004517Y018646D02*
X004517Y018246D01*
X004317Y018446D02*
X004717Y018446D01*
X006876Y018446D02*
X007276Y018446D01*
X007076Y018646D02*
X007076Y018246D01*
X008727Y019073D02*
X009127Y019473D01*
X008727Y019473D02*
X009127Y019073D01*
X009625Y019512D02*
X010025Y019912D01*
X009625Y019912D02*
X010025Y019512D01*
X008277Y020255D02*
X007877Y020255D01*
X008077Y020455D02*
X008077Y020055D01*
X008845Y021555D02*
X008845Y021955D01*
X008645Y021755D02*
X009045Y021755D01*
X008177Y023155D02*
X008177Y023555D01*
X007977Y023355D02*
X008377Y023355D01*
X007077Y021992D02*
X006877Y021792D01*
X007077Y021592D01*
X007277Y021792D01*
X007077Y021992D01*
X007077Y021792D01*
X007076Y024939D02*
X007076Y025339D01*
X006876Y025139D02*
X007276Y025139D01*
X004717Y025139D02*
X004317Y025139D01*
X004517Y025339D02*
X004517Y024939D01*
X001269Y020811D02*
X001269Y020411D01*
X001069Y020611D02*
X001469Y020611D01*
X004556Y014040D02*
X004556Y013640D01*
X004356Y013840D02*
X004756Y013840D01*
X003716Y012156D02*
X003716Y011756D01*
X003516Y011956D02*
X003916Y011956D01*
X005216Y010656D02*
X005216Y010256D01*
X005016Y010456D02*
X005416Y010456D01*
X006916Y010493D02*
X007116Y010693D01*
X007316Y010493D01*
X007116Y010293D01*
X006916Y010493D01*
X007116Y010493D02*
X007116Y010693D01*
X008216Y011856D02*
X008216Y012256D01*
X008016Y012056D02*
X008416Y012056D01*
X008885Y010656D02*
X008885Y010256D01*
X008685Y010456D02*
X009085Y010456D01*
X008116Y009156D02*
X008116Y008756D01*
X007916Y008956D02*
X008316Y008956D01*
X008766Y008174D02*
X009166Y007774D01*
X009166Y008174D02*
X008766Y007774D01*
X009665Y008212D02*
X010065Y008612D01*
X009665Y008612D02*
X010065Y008212D01*
X010500Y005890D02*
X010500Y004740D01*
X007400Y004740D01*
X007400Y003590D01*
X007400Y002440D01*
X007400Y001290D01*
X007400Y000140D01*
X010500Y000140D01*
X012800Y000140D01*
X017400Y000140D01*
X017400Y001290D01*
X017400Y002440D01*
X017400Y003590D01*
X017400Y004740D01*
X017400Y005890D01*
X016573Y005641D02*
X016573Y004980D01*
X016243Y004980D01*
X016133Y005090D01*
X016133Y005310D01*
X016243Y005420D01*
X016573Y005420D01*
X015929Y005310D02*
X015929Y005200D01*
X015488Y005200D01*
X015488Y005090D02*
X015488Y005310D01*
X015599Y005420D01*
X015819Y005420D01*
X015929Y005310D01*
X015819Y004980D02*
X015599Y004980D01*
X015488Y005090D01*
X015279Y004980D02*
X015169Y005090D01*
X015169Y005530D01*
X015059Y005420D02*
X015279Y005420D01*
X014855Y005310D02*
X014855Y004980D01*
X014524Y004980D01*
X014414Y005090D01*
X014524Y005200D01*
X014855Y005200D01*
X014855Y005310D02*
X014745Y005420D01*
X014524Y005420D01*
X014095Y005641D02*
X014095Y004980D01*
X013985Y004980D02*
X014205Y004980D01*
X013780Y005310D02*
X013670Y005200D01*
X013340Y005200D01*
X013340Y004980D02*
X013340Y005641D01*
X013670Y005641D01*
X013780Y005530D01*
X013780Y005310D01*
X013985Y005641D02*
X014095Y005641D01*
X014230Y004491D02*
X014230Y004380D01*
X014450Y004160D01*
X014450Y003830D01*
X014450Y004160D02*
X014670Y004380D01*
X014670Y004491D01*
X014875Y004491D02*
X014875Y003830D01*
X015315Y003830D01*
X015519Y003940D02*
X015629Y003830D01*
X015849Y003830D01*
X015959Y003940D01*
X015959Y004050D01*
X015849Y004160D01*
X015629Y004160D01*
X015519Y004270D01*
X015519Y004380D01*
X015629Y004491D01*
X015849Y004491D01*
X015959Y004380D01*
X015315Y004491D02*
X014875Y004491D01*
X014875Y004160D02*
X015095Y004160D01*
X015315Y003341D02*
X014875Y003341D01*
X014875Y002680D01*
X015315Y002680D01*
X015519Y002790D02*
X015629Y002680D01*
X015849Y002680D01*
X015959Y002790D01*
X015959Y002900D01*
X015849Y003010D01*
X015629Y003010D01*
X015519Y003120D01*
X015519Y003230D01*
X015629Y003341D01*
X015849Y003341D01*
X015959Y003230D01*
X015095Y003010D02*
X014875Y003010D01*
X014670Y003230D02*
X014670Y003341D01*
X014670Y003230D02*
X014450Y003010D01*
X014450Y002680D01*
X014450Y003010D02*
X014230Y003230D01*
X014230Y003341D01*
X014230Y002191D02*
X014670Y001530D01*
X014670Y002191D01*
X014875Y002080D02*
X014875Y001640D01*
X014985Y001530D01*
X015205Y001530D01*
X015315Y001640D01*
X015315Y002080D01*
X015205Y002191D01*
X014985Y002191D01*
X014875Y002080D01*
X015519Y002191D02*
X015959Y002191D01*
X015739Y002191D02*
X015739Y001530D01*
X015739Y001041D02*
X015739Y000380D01*
X015315Y000490D02*
X015315Y000930D01*
X015205Y001041D01*
X014985Y001041D01*
X014875Y000930D01*
X014875Y000490D01*
X014985Y000380D01*
X015205Y000380D01*
X015315Y000490D01*
X015519Y001041D02*
X015959Y001041D01*
X017400Y001290D02*
X012800Y001290D01*
X012800Y000140D01*
X011810Y000380D02*
X011370Y000380D01*
X011810Y000820D01*
X011810Y000930D01*
X011700Y001041D01*
X011480Y001041D01*
X011370Y000930D01*
X011370Y001530D02*
X011810Y001970D01*
X011810Y002080D01*
X011700Y002191D01*
X011480Y002191D01*
X011370Y002080D01*
X011370Y001530D02*
X011810Y001530D01*
X012800Y001290D02*
X012800Y002440D01*
X017400Y002440D01*
X017400Y003590D02*
X012800Y003590D01*
X012800Y002440D01*
X010500Y002440D01*
X010500Y001290D01*
X010500Y000140D01*
X009832Y000490D02*
X009832Y000930D01*
X009391Y000490D01*
X009501Y000380D01*
X009722Y000380D01*
X009832Y000490D01*
X009832Y000930D02*
X009722Y001041D01*
X009501Y001041D01*
X009391Y000930D01*
X009391Y000490D01*
X009187Y000490D02*
X009077Y000380D01*
X008857Y000380D01*
X008747Y000490D01*
X009187Y000930D01*
X009187Y000490D01*
X008747Y000490D02*
X008747Y000930D01*
X008857Y001041D01*
X009077Y001041D01*
X009187Y000930D01*
X009077Y001530D02*
X008857Y001530D01*
X008747Y001640D01*
X008535Y001640D02*
X008535Y001530D01*
X008425Y001530D01*
X008425Y001640D01*
X008535Y001640D01*
X008747Y001860D02*
X008967Y001970D01*
X009077Y001970D01*
X009187Y001860D01*
X009187Y001640D01*
X009077Y001530D01*
X009391Y001640D02*
X009501Y001530D01*
X009722Y001530D01*
X009832Y001640D01*
X009832Y002080D01*
X009722Y002191D01*
X009501Y002191D01*
X009391Y002080D01*
X009391Y001970D01*
X009501Y001860D01*
X009832Y001860D01*
X009187Y002191D02*
X008747Y002191D01*
X008747Y001860D01*
X008220Y001530D02*
X007780Y001530D01*
X008000Y001530D02*
X008000Y002191D01*
X007780Y001970D01*
X007400Y002440D02*
X010500Y002440D01*
X010500Y003590D01*
X012800Y003590D01*
X012800Y004740D01*
X017400Y004740D01*
X014230Y002191D02*
X014230Y001530D01*
X014230Y001041D02*
X014670Y000380D01*
X014670Y001041D01*
X014230Y001041D02*
X014230Y000380D01*
X012800Y001290D02*
X010500Y001290D01*
X007400Y001290D01*
X004300Y001290D01*
X004300Y000140D01*
X007400Y000140D01*
X007780Y000710D02*
X008220Y000710D01*
X008425Y000490D02*
X008535Y000490D01*
X008535Y000380D01*
X008425Y000380D01*
X008425Y000490D01*
X008110Y000380D02*
X008110Y001041D01*
X007780Y000710D01*
X006709Y000930D02*
X006269Y000490D01*
X006269Y000380D01*
X006065Y000490D02*
X005955Y000380D01*
X005735Y000380D01*
X005625Y000490D01*
X005625Y000710D02*
X005845Y000820D01*
X005955Y000820D01*
X006065Y000710D01*
X006065Y000490D01*
X005625Y000710D02*
X005625Y001041D01*
X006065Y001041D01*
X006269Y001041D02*
X006709Y001041D01*
X006709Y000930D01*
X006255Y001530D02*
X006035Y001530D01*
X005925Y001640D01*
X005720Y001640D02*
X005610Y001530D01*
X005390Y001530D01*
X005280Y001640D01*
X005280Y001860D01*
X005610Y001860D01*
X005720Y001750D01*
X005720Y001640D01*
X005925Y002080D02*
X006035Y002191D01*
X006255Y002191D01*
X006365Y002080D01*
X006365Y001970D01*
X006255Y001860D01*
X006365Y001750D01*
X006365Y001640D01*
X006255Y001530D01*
X006255Y001860D02*
X006145Y001860D01*
X005720Y002191D02*
X005500Y002080D01*
X005280Y001860D01*
X005610Y002680D02*
X005610Y003341D01*
X005280Y003010D01*
X005720Y003010D01*
X005925Y002790D02*
X005925Y002680D01*
X005925Y002790D02*
X006365Y003230D01*
X006365Y003341D01*
X005925Y003341D01*
X005720Y003830D02*
X005280Y003830D01*
X005720Y004270D01*
X005720Y004380D01*
X005610Y004491D01*
X005390Y004491D01*
X005280Y004380D01*
X005325Y004980D02*
X005545Y004980D01*
X005435Y004980D02*
X005435Y005420D01*
X005325Y005420D01*
X005435Y005641D02*
X005435Y005751D01*
X005120Y005641D02*
X005120Y004980D01*
X004900Y005420D02*
X005120Y005641D01*
X004900Y005420D02*
X004680Y005641D01*
X004680Y004980D01*
X004300Y004740D02*
X004300Y003590D01*
X004300Y002440D01*
X004300Y001290D01*
X002800Y001290D01*
X002800Y000140D01*
X004300Y000140D01*
X003710Y000710D02*
X003270Y000710D01*
X003600Y001041D01*
X003600Y000380D01*
X002800Y000140D02*
X000500Y000140D01*
X001450Y000710D02*
X001650Y000910D01*
X001850Y000710D01*
X001650Y000510D01*
X001450Y000710D01*
X001650Y000710D02*
X001650Y000910D01*
X001450Y001660D02*
X001450Y002060D01*
X001650Y002060D01*
X001850Y002060D01*
X001850Y001660D01*
X001450Y001660D01*
X001650Y001860D02*
X001650Y002060D01*
X001450Y002810D02*
X001850Y003210D01*
X001450Y003210D02*
X001850Y002810D01*
X002800Y002440D02*
X002800Y001290D01*
X000500Y001290D01*
X000500Y002440D02*
X002800Y002440D01*
X004300Y002440D01*
X007400Y002440D01*
X007780Y002680D02*
X008220Y002680D01*
X008425Y002680D02*
X008535Y002680D01*
X008535Y002790D01*
X008425Y002790D01*
X008425Y002680D01*
X008000Y002680D02*
X008000Y003341D01*
X007780Y003120D01*
X007400Y003590D02*
X010500Y003590D01*
X010500Y004740D01*
X012800Y004740D01*
X012800Y005890D01*
X012295Y005420D02*
X012295Y004870D01*
X012185Y004760D01*
X012074Y004760D01*
X011964Y004980D02*
X012295Y004980D01*
X011964Y004980D02*
X011854Y005090D01*
X011854Y005420D01*
X011645Y005420D02*
X011425Y005420D01*
X011535Y005530D02*
X011535Y005090D01*
X011645Y004980D01*
X011220Y004980D02*
X011000Y005200D01*
X010890Y004980D02*
X010780Y005090D01*
X010780Y005530D01*
X010890Y005641D01*
X011110Y005641D01*
X011220Y005530D01*
X011220Y005090D01*
X011110Y004980D01*
X010890Y004980D01*
X011410Y004491D02*
X011080Y004160D01*
X011520Y004160D01*
X011725Y004270D02*
X011945Y004491D01*
X011945Y003830D01*
X011725Y003830D02*
X012165Y003830D01*
X011700Y003341D02*
X011370Y003010D01*
X011810Y003010D01*
X011700Y002680D02*
X011700Y003341D01*
X011410Y003830D02*
X011410Y004491D01*
X009832Y004380D02*
X009832Y003940D01*
X009722Y003830D01*
X009501Y003830D01*
X009391Y003940D01*
X009832Y004380D01*
X009722Y004491D01*
X009501Y004491D01*
X009391Y004380D01*
X009391Y003940D01*
X009187Y003940D02*
X009187Y004050D01*
X009077Y004160D01*
X008747Y004160D01*
X008747Y003940D01*
X008857Y003830D01*
X009077Y003830D01*
X009187Y003940D01*
X008967Y004380D02*
X008747Y004160D01*
X008535Y003940D02*
X008535Y003830D01*
X008425Y003830D01*
X008425Y003940D01*
X008535Y003940D01*
X008220Y003940D02*
X008220Y004380D01*
X007780Y003940D01*
X007890Y003830D01*
X008110Y003830D01*
X008220Y003940D01*
X008220Y004380D02*
X008110Y004491D01*
X007890Y004491D01*
X007780Y004380D01*
X007780Y003940D01*
X007400Y003590D02*
X004300Y003590D01*
X002800Y003590D01*
X002800Y002440D01*
X003270Y002680D02*
X003710Y003120D01*
X003710Y003230D01*
X003600Y003341D01*
X003380Y003341D01*
X003270Y003230D01*
X003270Y002680D02*
X003710Y002680D01*
X003600Y002191D02*
X003380Y002191D01*
X003270Y002080D01*
X003490Y001860D02*
X003600Y001860D01*
X003710Y001750D01*
X003710Y001640D01*
X003600Y001530D01*
X003380Y001530D01*
X003270Y001640D01*
X003600Y001860D02*
X003710Y001970D01*
X003710Y002080D01*
X003600Y002191D01*
X002800Y003590D02*
X002800Y004740D01*
X004300Y004740D01*
X007400Y004740D01*
X007400Y005890D01*
X006624Y005420D02*
X006294Y005420D01*
X006184Y005310D01*
X006294Y005200D01*
X006514Y005200D01*
X006624Y005090D01*
X006514Y004980D01*
X006184Y004980D01*
X005974Y004980D02*
X005754Y004980D01*
X005864Y004980D02*
X005864Y005641D01*
X005754Y005641D01*
X006255Y004491D02*
X005925Y004160D01*
X006365Y004160D01*
X006255Y003830D02*
X006255Y004491D01*
X004300Y004740D02*
X004300Y005890D01*
X003955Y005530D02*
X003955Y005420D01*
X003845Y005310D01*
X003735Y005310D01*
X003625Y005420D01*
X003625Y005530D01*
X003735Y005641D01*
X003845Y005641D01*
X003955Y005530D01*
X003420Y005641D02*
X003420Y004980D01*
X002980Y005641D01*
X002980Y004980D01*
X002800Y004740D02*
X002800Y005890D01*
X002399Y005420D02*
X002509Y005310D01*
X002509Y004980D01*
X002289Y004980D02*
X002289Y005310D01*
X002399Y005420D01*
X002289Y005310D02*
X002179Y005420D01*
X002069Y005420D01*
X002069Y004980D01*
X001865Y004980D02*
X001535Y004980D01*
X001425Y005090D01*
X001425Y005420D01*
X001220Y005530D02*
X001110Y005641D01*
X000890Y005641D01*
X000780Y005530D01*
X000780Y005420D01*
X000890Y005310D01*
X001110Y005310D01*
X001220Y005200D01*
X001220Y005090D01*
X001110Y004980D01*
X000890Y004980D01*
X000780Y005090D01*
X000500Y004740D02*
X000500Y005890D01*
X000500Y004740D02*
X002800Y004740D01*
X003270Y004270D02*
X003490Y004491D01*
X003490Y003830D01*
X003270Y003830D02*
X003710Y003830D01*
X002800Y003590D02*
X000500Y003590D01*
X001450Y004160D02*
X001850Y004160D01*
X001650Y004360D02*
X001650Y003960D01*
X001645Y004760D02*
X001755Y004760D01*
X001865Y004870D01*
X001865Y005420D01*
X004356Y007147D02*
X004756Y007147D01*
X004556Y007347D02*
X004556Y006947D01*
X003816Y008756D02*
X003816Y009156D01*
X003616Y008956D02*
X004016Y008956D01*
X001508Y009312D02*
X001108Y009312D01*
X001308Y009512D02*
X001308Y009112D01*
X001308Y011474D02*
X001308Y011874D01*
X001108Y011674D02*
X001508Y011674D01*
X006915Y013840D02*
X007315Y013840D01*
X007115Y014040D02*
X007115Y013640D01*
X012427Y010693D02*
X012427Y010293D01*
X012827Y010293D01*
X012827Y010693D01*
X012627Y010693D01*
X012427Y010693D01*
X012627Y010693D02*
X012627Y010493D01*
X012824Y011474D02*
X012824Y011874D01*
X012624Y011674D02*
X013024Y011674D01*
X014099Y010252D02*
X014499Y010252D01*
X014299Y010452D02*
X014299Y010052D01*
X013024Y009312D02*
X012624Y009312D01*
X012824Y009512D02*
X012824Y009112D01*
X009465Y005641D02*
X009465Y004980D01*
X009245Y005420D02*
X009465Y005641D01*
X009245Y005420D02*
X009025Y005641D01*
X009025Y004980D01*
X008820Y004980D02*
X008820Y005641D01*
X008600Y005420D01*
X008380Y005641D01*
X008380Y004980D01*
X008967Y004380D02*
X009187Y004491D01*
X009077Y003341D02*
X008857Y003341D01*
X008747Y003230D01*
X009077Y003341D02*
X009187Y003230D01*
X009187Y003120D01*
X008747Y002680D01*
X009187Y002680D01*
X009391Y002790D02*
X009832Y003230D01*
X009832Y002790D01*
X009722Y002680D01*
X009501Y002680D01*
X009391Y002790D01*
X009391Y003230D01*
X009501Y003341D01*
X009722Y003341D01*
X009832Y003230D01*
X007115Y006947D02*
X007115Y007347D01*
X006915Y007147D02*
X007315Y007147D01*
X005200Y001041D02*
X004980Y000820D01*
X005200Y001041D02*
X005200Y000380D01*
X004980Y000380D02*
X005420Y000380D01*
X016619Y010282D02*
X017019Y010282D01*
X016819Y010482D02*
X016819Y010082D01*
X019349Y009722D02*
X019749Y009722D01*
X019549Y009922D02*
X019549Y009522D01*
X019549Y011147D02*
X019549Y011547D01*
X019349Y011347D02*
X019749Y011347D01*
X019549Y012772D02*
X019549Y013172D01*
X019349Y012972D02*
X019749Y012972D01*
X015809Y017032D02*
X015809Y017432D01*
X015609Y017232D02*
X016009Y017232D01*
X016139Y018732D02*
X016139Y019132D01*
X015939Y018932D02*
X016339Y018932D01*
X018009Y017872D02*
X018409Y017872D01*
X018209Y018072D02*
X018209Y017672D01*
X015349Y020692D02*
X015349Y021092D01*
X015149Y020892D02*
X015549Y020892D01*
X017799Y022032D02*
X018199Y022032D01*
X017999Y022232D02*
X017999Y021832D01*
X016779Y023792D02*
X016779Y024192D01*
X016579Y023992D02*
X016979Y023992D01*
X018149Y025222D02*
X018549Y025222D01*
X018349Y025422D02*
X018349Y025022D01*
X015399Y025252D02*
X014999Y025252D01*
X015199Y025452D02*
X015199Y025052D01*
X012985Y022974D02*
X012585Y022974D01*
X012785Y023174D02*
X012785Y022774D01*
X012788Y021992D02*
X012788Y021592D01*
X012388Y021592D01*
X012388Y021992D01*
X012588Y021992D01*
X012788Y021992D01*
X012588Y021992D02*
X012588Y021792D01*
X012785Y020811D02*
X012785Y020411D01*
X012585Y020611D02*
X012985Y020611D01*
D15*
X000500Y005890D02*
X000500Y000140D01*
X017400Y000140D01*
X017400Y005890D01*
X000500Y005890D01*
M02*
