G75*
G70*
%OFA0B0*%
%FSLAX24Y24*%
%IPPOS*%
%LPD*%
%AMOC8*
5,1,8,0,0,1.08239X$1,22.5*
%
%ADD10C,0.0040*%
%ADD11R,0.1299X0.0512*%
%ADD12R,0.0197X0.0354*%
%ADD13R,0.1299X0.0197*%
%ADD14R,0.0512X0.1299*%
%ADD15R,0.0354X0.0197*%
%ADD16R,0.0197X0.1299*%
%ADD17C,0.0709*%
%ADD18R,0.0220X0.0520*%
%ADD19R,0.0630X0.0709*%
%ADD20R,0.0710X0.0630*%
%ADD21R,0.1142X0.0807*%
%ADD22R,0.0394X0.0591*%
%ADD23R,0.0500X0.0220*%
%ADD24R,0.0433X0.0394*%
%ADD25R,0.0394X0.0433*%
%ADD26C,0.0250*%
%ADD27R,0.0551X0.0394*%
%ADD28R,0.0220X0.0780*%
%ADD29C,0.0120*%
%ADD30R,0.0750X0.4250*%
%ADD31C,0.0240*%
%ADD32C,0.0500*%
%ADD33C,0.0100*%
%ADD34C,0.0396*%
%ADD35C,0.0160*%
%ADD36R,0.0500X0.0500*%
D10*
X001385Y014647D02*
X001539Y014647D01*
X001616Y014724D01*
X001616Y015107D01*
X001769Y015031D02*
X001769Y014954D01*
X001846Y014877D01*
X001999Y014877D01*
X002076Y014801D01*
X002076Y014724D01*
X001999Y014647D01*
X001846Y014647D01*
X001769Y014724D01*
X001769Y015031D02*
X001846Y015107D01*
X001999Y015107D01*
X002076Y015031D01*
X002229Y014954D02*
X002383Y015107D01*
X002536Y014954D01*
X002536Y014647D01*
X002536Y014877D02*
X002229Y014877D01*
X002229Y014954D02*
X002229Y014647D01*
X002229Y015397D02*
X002229Y015704D01*
X002229Y015551D02*
X002383Y015704D01*
X002460Y015704D01*
X002613Y015704D02*
X002613Y015474D01*
X002690Y015397D01*
X002767Y015474D01*
X002843Y015397D01*
X002920Y015474D01*
X002920Y015704D01*
X003073Y015704D02*
X003150Y015704D01*
X003150Y015397D01*
X003073Y015397D02*
X003227Y015397D01*
X003380Y015474D02*
X003457Y015397D01*
X003687Y015397D01*
X003841Y015397D02*
X003841Y015857D01*
X003687Y015704D02*
X003457Y015704D01*
X003380Y015627D01*
X003380Y015474D01*
X003150Y015857D02*
X003150Y015934D01*
X003227Y016147D02*
X003150Y016224D01*
X003150Y016377D01*
X003227Y016454D01*
X003380Y016454D01*
X003457Y016377D01*
X003457Y016301D01*
X003150Y016301D01*
X002997Y016301D02*
X002997Y016607D01*
X002997Y016301D02*
X002843Y016147D01*
X002690Y016301D01*
X002690Y016607D01*
X002767Y016897D02*
X002536Y016897D01*
X002460Y016974D01*
X002460Y017127D01*
X002536Y017204D01*
X002767Y017204D01*
X002229Y017204D02*
X002229Y016897D01*
X002153Y016897D02*
X002306Y016897D01*
X002229Y017204D02*
X002153Y017204D01*
X001999Y017204D02*
X001923Y017204D01*
X001769Y017051D01*
X001769Y017204D02*
X001769Y016897D01*
X001616Y016897D02*
X001309Y016897D01*
X001309Y017357D01*
X001616Y017357D01*
X001462Y017127D02*
X001309Y017127D01*
X001385Y016607D02*
X001309Y016531D01*
X001309Y016454D01*
X001385Y016377D01*
X001616Y016377D01*
X001616Y016224D02*
X001616Y016531D01*
X001539Y016607D01*
X001385Y016607D01*
X001769Y016607D02*
X002076Y016607D01*
X002076Y016531D01*
X001769Y016224D01*
X001769Y016147D01*
X001616Y016224D02*
X001539Y016147D01*
X001385Y016147D01*
X001309Y016224D01*
X001309Y015857D02*
X001309Y015397D01*
X001462Y015551D01*
X001616Y015397D01*
X001616Y015857D01*
X001846Y015704D02*
X001999Y015704D01*
X002076Y015627D01*
X002076Y015397D01*
X001846Y015397D01*
X001769Y015474D01*
X001846Y015551D01*
X002076Y015551D01*
X001309Y015107D02*
X001309Y014724D01*
X001385Y014647D01*
X003227Y016147D02*
X003380Y016147D01*
X003611Y016147D02*
X003611Y016454D01*
X003611Y016301D02*
X003764Y016454D01*
X003841Y016454D01*
X003994Y016454D02*
X003994Y016147D01*
X003994Y016454D02*
X004224Y016454D01*
X004301Y016377D01*
X004301Y016147D01*
X004455Y016224D02*
X004455Y016377D01*
X004531Y016454D01*
X004685Y016454D01*
X004762Y016377D01*
X004762Y016224D01*
X004685Y016147D01*
X004531Y016147D01*
X004455Y016224D01*
X004915Y016147D02*
X004915Y016454D01*
X005145Y016454D01*
X005222Y016377D01*
X005222Y016147D01*
X005222Y015857D02*
X004992Y015857D01*
X004992Y015397D01*
X004992Y015551D02*
X005222Y015551D01*
X005299Y015627D01*
X005299Y015781D01*
X005222Y015857D01*
X005452Y015857D02*
X005606Y015857D01*
X005529Y015857D02*
X005529Y015397D01*
X005452Y015397D02*
X005606Y015397D01*
X005299Y015397D02*
X005145Y015551D01*
X004378Y015474D02*
X004378Y015397D01*
X004301Y015397D01*
X004301Y015474D01*
X004378Y015474D01*
X004378Y015397D02*
X004224Y015244D01*
X004071Y015397D02*
X003841Y015551D01*
X004071Y015704D01*
X004071Y016897D02*
X004148Y016974D01*
X004148Y017127D01*
X004071Y017204D01*
X003918Y017204D01*
X003841Y017127D01*
X003841Y016974D01*
X003918Y016897D01*
X004071Y016897D01*
X004301Y016897D02*
X004301Y017204D01*
X004301Y017051D02*
X004455Y017204D01*
X004531Y017204D01*
X004685Y017204D02*
X004685Y016897D01*
X004685Y017051D02*
X004838Y017204D01*
X004915Y017204D01*
X005069Y017204D02*
X005145Y017204D01*
X005145Y016897D01*
X005069Y016897D02*
X005222Y016897D01*
X005375Y016897D02*
X005606Y016897D01*
X005682Y016974D01*
X005606Y017051D01*
X005452Y017051D01*
X005375Y017127D01*
X005452Y017204D01*
X005682Y017204D01*
X005836Y017127D02*
X005836Y016974D01*
X005913Y016897D01*
X006066Y016897D01*
X006143Y016974D01*
X006143Y017127D01*
X006066Y017204D01*
X005913Y017204D01*
X005836Y017127D01*
X006296Y017204D02*
X006296Y016897D01*
X006296Y017204D02*
X006526Y017204D01*
X006603Y017127D01*
X006603Y016897D01*
X006373Y016531D02*
X006373Y016224D01*
X006450Y016147D01*
X006450Y015857D02*
X006526Y015781D01*
X006220Y015474D01*
X006296Y015397D01*
X006450Y015397D01*
X006526Y015474D01*
X006526Y015781D01*
X006450Y015857D02*
X006296Y015857D01*
X006220Y015781D01*
X006220Y015474D01*
X006680Y015397D02*
X006987Y015704D01*
X006987Y015781D01*
X006910Y015857D01*
X006757Y015857D01*
X006680Y015781D01*
X006680Y015397D02*
X006987Y015397D01*
X007140Y015474D02*
X007140Y015551D01*
X007217Y015627D01*
X007370Y015627D01*
X007447Y015551D01*
X007447Y015474D01*
X007370Y015397D01*
X007217Y015397D01*
X007140Y015474D01*
X007217Y015627D02*
X007140Y015704D01*
X007140Y015781D01*
X007217Y015857D01*
X007370Y015857D01*
X007447Y015781D01*
X007447Y015704D01*
X007370Y015627D01*
X007601Y015551D02*
X007677Y015627D01*
X007831Y015627D01*
X007908Y015551D01*
X007908Y015474D01*
X007831Y015397D01*
X007677Y015397D01*
X007601Y015474D01*
X007601Y015551D01*
X007677Y015627D02*
X007601Y015704D01*
X007601Y015781D01*
X007677Y015857D01*
X007831Y015857D01*
X007908Y015781D01*
X007908Y015704D01*
X007831Y015627D01*
X008061Y015704D02*
X008061Y015781D01*
X008138Y015857D01*
X008291Y015857D01*
X008368Y015781D01*
X008368Y015474D01*
X008291Y015397D01*
X008138Y015397D01*
X008061Y015474D01*
X008138Y015627D02*
X008368Y015627D01*
X008138Y015627D02*
X008061Y015704D01*
X006450Y016454D02*
X006296Y016454D01*
X006143Y016531D02*
X006066Y016607D01*
X005913Y016607D01*
X005836Y016531D01*
X005836Y016454D01*
X005913Y016377D01*
X006066Y016377D01*
X006143Y016301D01*
X006143Y016224D01*
X006066Y016147D01*
X005913Y016147D01*
X005836Y016224D01*
X005145Y017357D02*
X005145Y017434D01*
X003687Y017357D02*
X003687Y016897D01*
X003534Y017204D02*
X003687Y017357D01*
X003534Y017204D02*
X003380Y017357D01*
X003380Y016897D01*
X002229Y017357D02*
X002229Y017434D01*
D11*
X001958Y021792D03*
X011407Y021792D03*
X015679Y024052D03*
X018939Y024002D03*
X011446Y010493D03*
X001997Y010493D03*
D12*
X001997Y011123D03*
X001997Y009863D03*
X011446Y009863D03*
X011446Y011123D03*
X011407Y021163D03*
X011407Y022422D03*
X015679Y023422D03*
X015679Y024682D03*
X018939Y024632D03*
X018939Y023372D03*
X001958Y022422D03*
X001958Y021163D03*
D13*
X001958Y021241D03*
X001958Y022344D03*
X011407Y022344D03*
X011407Y021241D03*
X015679Y023501D03*
X015679Y024604D03*
X018939Y024554D03*
X018939Y023451D03*
X011446Y011044D03*
X011446Y009942D03*
X001997Y009942D03*
X001997Y011044D03*
D14*
X005836Y013052D03*
X005836Y007934D03*
X005797Y019233D03*
X005797Y024351D03*
D15*
X005167Y024351D03*
X006426Y024351D03*
X006426Y019233D03*
X005167Y019233D03*
X005206Y013052D03*
X006466Y013052D03*
X006466Y007934D03*
X005206Y007934D03*
D16*
X005285Y007934D03*
X006387Y007934D03*
X006387Y013052D03*
X005285Y013052D03*
X005245Y019233D03*
X006348Y019233D03*
X006348Y024351D03*
X005245Y024351D03*
D17*
X008771Y019592D02*
X009082Y018955D01*
X009981Y019393D02*
X009670Y020030D01*
X009710Y008731D02*
X010020Y008094D01*
X009121Y007656D02*
X008811Y008293D01*
D18*
X017109Y014092D03*
X017479Y014092D03*
X017849Y014092D03*
X017849Y015012D03*
X017109Y015012D03*
D19*
X017618Y015822D03*
X018720Y015822D03*
D20*
X014779Y021593D03*
X014779Y022712D03*
D21*
X019029Y021452D03*
D22*
X018655Y020655D03*
X019403Y020655D03*
D23*
X017339Y017342D03*
X017339Y016972D03*
X017339Y016602D03*
X016319Y016602D03*
X016319Y016972D03*
X016319Y017342D03*
D24*
X015104Y016492D03*
X015549Y015797D03*
X015549Y015128D03*
X016389Y015138D03*
X016389Y015807D03*
X018135Y016732D03*
X018804Y016732D03*
X018639Y017878D03*
X018639Y018547D03*
X014599Y019498D03*
X014599Y020167D03*
X014435Y016492D03*
D25*
X014435Y017322D03*
X015104Y017322D03*
X014609Y018178D03*
X014609Y018847D03*
X016355Y020872D03*
X017024Y020872D03*
X017024Y021692D03*
X016355Y021692D03*
X018725Y019262D03*
X019394Y019262D03*
X017569Y018797D03*
X017569Y018128D03*
X018619Y014907D03*
X018619Y014238D03*
X016174Y014462D03*
X015505Y014462D03*
D26*
X014819Y013982D03*
X014919Y015792D03*
X016949Y016092D03*
X017499Y015212D03*
X017839Y017342D03*
X018469Y017332D03*
X017229Y020042D03*
X018159Y020682D03*
D27*
X017706Y020266D03*
X017706Y019518D03*
X018572Y019892D03*
D28*
X016849Y020042D03*
X016349Y020042D03*
X015849Y020042D03*
X015349Y020042D03*
X015349Y018182D03*
X015849Y018182D03*
X016349Y018182D03*
X016849Y018182D03*
D29*
X015339Y014612D02*
X015339Y014312D01*
X015239Y014362D01*
X015239Y014562D01*
X015339Y014612D01*
X015339Y014535D02*
X015239Y014535D01*
X015239Y014416D02*
X015339Y014416D01*
D30*
X015804Y011322D03*
X018804Y011322D03*
D31*
X011446Y011123D02*
X011416Y011153D01*
X011416Y011456D01*
X011446Y009863D02*
X011416Y009833D01*
X011416Y009656D01*
X006816Y013056D02*
X006812Y013052D01*
X006466Y013052D01*
X005206Y013052D02*
X005202Y013056D01*
X004916Y013056D01*
X002016Y011556D02*
X002016Y011142D01*
X001997Y011123D01*
X001997Y009863D02*
X001997Y009575D01*
X002016Y009556D01*
X004816Y007956D02*
X005184Y007956D01*
X005206Y007934D01*
X006466Y007934D02*
X006694Y007934D01*
X006716Y007956D01*
X006655Y019233D02*
X006426Y019233D01*
X006655Y019233D02*
X006677Y019255D01*
X005167Y019233D02*
X005145Y019255D01*
X004777Y019255D01*
X001977Y020855D02*
X001958Y020874D01*
X001958Y021163D01*
X001958Y022422D02*
X001977Y022441D01*
X001977Y022855D01*
X004877Y024355D02*
X005163Y024355D01*
X005167Y024351D01*
X006426Y024351D02*
X006773Y024351D01*
X006777Y024355D01*
X011377Y022755D02*
X011377Y022452D01*
X011407Y022422D01*
X011407Y021163D02*
X011377Y021133D01*
X011377Y020955D01*
X015679Y023032D02*
X015679Y023422D01*
X015679Y024682D02*
X015679Y024922D01*
X018939Y024932D02*
X018939Y024632D01*
X018939Y023372D02*
X018939Y023142D01*
X018949Y023132D01*
D32*
X018949Y021532D01*
X019029Y021452D01*
X018939Y024932D02*
X018649Y025222D01*
X018349Y025222D01*
X015679Y024922D02*
X015329Y025242D01*
X015199Y025252D01*
X015679Y023032D02*
X015359Y022712D01*
X014779Y022712D01*
X011377Y022755D02*
X009777Y024355D01*
X006777Y024355D01*
X004877Y024355D02*
X002877Y024355D01*
X001977Y023455D01*
X001977Y022855D01*
X001977Y020855D02*
X001977Y020155D01*
X002877Y019255D01*
X004777Y019255D01*
X006677Y019255D02*
X008909Y019255D01*
X008927Y019273D01*
X009825Y019712D02*
X010133Y019712D01*
X011377Y020955D01*
X009816Y013056D02*
X006816Y013056D01*
X004916Y013056D02*
X002916Y013056D01*
X002016Y012156D01*
X002016Y011556D01*
X002016Y009556D02*
X002016Y008856D01*
X002916Y007956D01*
X004816Y007956D01*
X006716Y007956D02*
X008948Y007956D01*
X008966Y007974D01*
X009865Y008412D02*
X010172Y008412D01*
X011416Y009656D01*
X011416Y011456D02*
X009816Y013056D01*
D33*
X010097Y013313D02*
X010138Y013313D01*
X010138Y013271D02*
X010052Y013358D01*
X013116Y011756D01*
X013116Y009056D01*
X008616Y006856D01*
X003716Y006856D01*
X002902Y007576D01*
X004892Y007576D01*
X005031Y007634D01*
X005056Y007659D01*
X005056Y007231D01*
X005132Y007155D01*
X005437Y007155D01*
X005513Y007231D01*
X005513Y008638D01*
X005437Y008714D01*
X005132Y008714D01*
X005056Y008638D01*
X005056Y008254D01*
X005031Y008278D01*
X004892Y008336D01*
X003074Y008336D01*
X002396Y009014D01*
X002396Y009632D01*
X002362Y009714D01*
X002701Y009714D01*
X002777Y009790D01*
X002777Y010094D01*
X002701Y010170D01*
X001294Y010170D01*
X001218Y010094D01*
X001218Y009790D01*
X001294Y009714D01*
X001670Y009714D01*
X001636Y009632D01*
X001636Y008781D01*
X001691Y008647D01*
X001116Y009156D01*
X001116Y011856D01*
X001677Y012331D01*
X001636Y012232D01*
X001636Y011481D01*
X001694Y011341D01*
X001762Y011273D01*
X001294Y011273D01*
X001218Y011197D01*
X001218Y010892D01*
X001294Y010816D01*
X002701Y010816D01*
X002777Y010892D01*
X002777Y011197D01*
X002701Y011273D01*
X002270Y011273D01*
X002338Y011341D01*
X002396Y011481D01*
X002396Y011999D01*
X003074Y012676D01*
X004992Y012676D01*
X005056Y012703D01*
X005056Y012349D01*
X005132Y012273D01*
X005437Y012273D01*
X005513Y012349D01*
X005513Y013756D01*
X005437Y013832D01*
X005132Y013832D01*
X005056Y013756D01*
X005056Y013410D01*
X004992Y013436D01*
X002983Y013436D01*
X003716Y014056D01*
X008716Y014056D01*
X009942Y013415D01*
X009892Y013436D01*
X006741Y013436D01*
X006616Y013384D01*
X006616Y013756D01*
X006539Y013832D01*
X006235Y013832D01*
X006159Y013756D01*
X006159Y012349D01*
X006235Y012273D01*
X006539Y012273D01*
X006616Y012349D01*
X006616Y012728D01*
X006741Y012676D01*
X009659Y012676D01*
X011062Y011273D01*
X010743Y011273D01*
X010667Y011197D01*
X010667Y010892D01*
X010743Y010816D01*
X012150Y010816D01*
X012226Y010892D01*
X012226Y011197D01*
X012150Y011273D01*
X011752Y011273D01*
X011796Y011381D01*
X011796Y011532D01*
X011738Y011671D01*
X010138Y013271D01*
X010195Y013215D02*
X010326Y013215D01*
X010294Y013116D02*
X010514Y013116D01*
X010392Y013018D02*
X010703Y013018D01*
X010891Y012919D02*
X010491Y012919D01*
X010589Y012821D02*
X011080Y012821D01*
X011268Y012722D02*
X010688Y012722D01*
X010786Y012624D02*
X011457Y012624D01*
X011645Y012525D02*
X010885Y012525D01*
X010983Y012427D02*
X011834Y012427D01*
X012022Y012328D02*
X011082Y012328D01*
X011180Y012230D02*
X012210Y012230D01*
X012399Y012131D02*
X011279Y012131D01*
X011377Y012033D02*
X012587Y012033D01*
X012776Y011934D02*
X011476Y011934D01*
X011574Y011836D02*
X012964Y011836D01*
X013116Y011737D02*
X011673Y011737D01*
X011752Y011639D02*
X013116Y011639D01*
X013116Y011540D02*
X011793Y011540D01*
X011796Y011442D02*
X013116Y011442D01*
X013116Y011343D02*
X011781Y011343D01*
X012178Y011245D02*
X013116Y011245D01*
X013116Y011146D02*
X012226Y011146D01*
X012226Y011048D02*
X013116Y011048D01*
X013116Y010949D02*
X012735Y010949D01*
X012719Y010956D02*
X012535Y010956D01*
X012365Y010885D01*
X012235Y010755D01*
X012165Y010585D01*
X012165Y010401D01*
X012235Y010231D01*
X012365Y010101D01*
X012535Y010031D01*
X012719Y010031D01*
X012889Y010101D01*
X013019Y010231D01*
X013090Y010401D01*
X013090Y010585D01*
X013019Y010755D01*
X012889Y010885D01*
X012719Y010956D01*
X012520Y010949D02*
X012226Y010949D01*
X012184Y010851D02*
X012331Y010851D01*
X012234Y010752D02*
X008024Y010752D01*
X008054Y010680D02*
X007911Y011024D01*
X007647Y011288D01*
X007303Y011431D01*
X006930Y011431D01*
X006585Y011288D01*
X006322Y011024D01*
X006179Y010680D01*
X006179Y010307D01*
X006322Y009962D01*
X006585Y009699D01*
X006930Y009556D01*
X007303Y009556D01*
X007647Y009699D01*
X007911Y009962D01*
X008054Y010307D01*
X008054Y010680D01*
X008054Y010654D02*
X012193Y010654D01*
X012165Y010555D02*
X008054Y010555D01*
X008054Y010457D02*
X012165Y010457D01*
X012183Y010358D02*
X008054Y010358D01*
X008034Y010260D02*
X012223Y010260D01*
X012150Y010170D02*
X010743Y010170D01*
X010667Y010094D01*
X010667Y009790D01*
X010743Y009714D01*
X010936Y009714D01*
X010152Y008929D01*
X010103Y009030D01*
X009958Y009157D01*
X009776Y009220D01*
X009584Y009208D01*
X009411Y009124D01*
X009283Y008980D01*
X009220Y008797D01*
X009232Y008605D01*
X009627Y007795D01*
X009771Y007667D01*
X009954Y007605D01*
X010146Y007616D01*
X010319Y007701D01*
X010447Y007845D01*
X010509Y008027D01*
X010499Y008201D01*
X011738Y009441D01*
X011796Y009581D01*
X011796Y009714D01*
X012150Y009714D01*
X012226Y009790D01*
X012226Y010094D01*
X012150Y010170D01*
X012159Y010161D02*
X012305Y010161D01*
X012226Y010063D02*
X012458Y010063D01*
X012226Y009964D02*
X013116Y009964D01*
X013116Y009866D02*
X012226Y009866D01*
X012203Y009767D02*
X013116Y009767D01*
X013116Y009669D02*
X011796Y009669D01*
X011792Y009570D02*
X013116Y009570D01*
X013116Y009472D02*
X011751Y009472D01*
X011671Y009373D02*
X013116Y009373D01*
X013116Y009275D02*
X011572Y009275D01*
X011474Y009176D02*
X013116Y009176D01*
X013116Y009078D02*
X011375Y009078D01*
X011277Y008979D02*
X012959Y008979D01*
X012757Y008881D02*
X011178Y008881D01*
X011080Y008782D02*
X012556Y008782D01*
X012354Y008684D02*
X010981Y008684D01*
X010883Y008585D02*
X012153Y008585D01*
X011951Y008487D02*
X010784Y008487D01*
X010686Y008388D02*
X011750Y008388D01*
X011548Y008290D02*
X010587Y008290D01*
X010499Y008191D02*
X011347Y008191D01*
X011145Y008093D02*
X010505Y008093D01*
X010498Y007994D02*
X010944Y007994D01*
X010742Y007896D02*
X010464Y007896D01*
X010404Y007797D02*
X010541Y007797D01*
X010339Y007699D02*
X010315Y007699D01*
X010138Y007600D02*
X009610Y007600D01*
X009611Y007589D02*
X009599Y007781D01*
X009204Y008591D01*
X009059Y008719D01*
X008877Y008782D01*
X008685Y008770D01*
X008512Y008686D01*
X008384Y008541D01*
X008321Y008359D01*
X008323Y008336D01*
X006641Y008336D01*
X006616Y008326D01*
X006616Y008638D01*
X006539Y008714D01*
X006235Y008714D01*
X006159Y008638D01*
X006159Y007231D01*
X006235Y007155D01*
X006539Y007155D01*
X006616Y007231D01*
X006616Y007587D01*
X006641Y007576D01*
X008621Y007576D01*
X008728Y007357D01*
X008873Y007229D01*
X009055Y007166D01*
X009247Y007178D01*
X009420Y007262D01*
X009548Y007407D01*
X009611Y007589D01*
X009581Y007502D02*
X009937Y007502D01*
X009735Y007403D02*
X009545Y007403D01*
X009534Y007305D02*
X009458Y007305D01*
X009332Y007206D02*
X009305Y007206D01*
X009131Y007108D02*
X003432Y007108D01*
X003321Y007206D02*
X005081Y007206D01*
X005056Y007305D02*
X003209Y007305D01*
X003098Y007403D02*
X005056Y007403D01*
X005056Y007502D02*
X002987Y007502D01*
X003543Y007009D02*
X008929Y007009D01*
X008939Y007206D02*
X006591Y007206D01*
X006616Y007305D02*
X008787Y007305D01*
X008706Y007403D02*
X006616Y007403D01*
X006616Y007502D02*
X008658Y007502D01*
X008728Y006911D02*
X003655Y006911D01*
X004950Y007600D02*
X005056Y007600D01*
X005513Y007600D02*
X006159Y007600D01*
X006159Y007502D02*
X005513Y007502D01*
X005513Y007403D02*
X006159Y007403D01*
X006159Y007305D02*
X005513Y007305D01*
X005489Y007206D02*
X006183Y007206D01*
X006159Y007699D02*
X005513Y007699D01*
X005513Y007797D02*
X006159Y007797D01*
X006159Y007896D02*
X005513Y007896D01*
X005513Y007994D02*
X006159Y007994D01*
X006159Y008093D02*
X005513Y008093D01*
X005513Y008191D02*
X006159Y008191D01*
X006159Y008290D02*
X005513Y008290D01*
X005513Y008388D02*
X006159Y008388D01*
X006159Y008487D02*
X005513Y008487D01*
X005513Y008585D02*
X006159Y008585D01*
X006205Y008684D02*
X005467Y008684D01*
X005102Y008684D02*
X002726Y008684D01*
X002628Y008782D02*
X009221Y008782D01*
X009227Y008684D02*
X009099Y008684D01*
X009207Y008585D02*
X009242Y008585D01*
X009255Y008487D02*
X009290Y008487D01*
X009303Y008388D02*
X009338Y008388D01*
X009351Y008290D02*
X009386Y008290D01*
X009399Y008191D02*
X009434Y008191D01*
X009447Y008093D02*
X009482Y008093D01*
X009495Y007994D02*
X009530Y007994D01*
X009543Y007896D02*
X009578Y007896D01*
X009591Y007797D02*
X009626Y007797D01*
X009604Y007699D02*
X009736Y007699D01*
X009249Y008881D02*
X002529Y008881D01*
X002431Y008979D02*
X009283Y008979D01*
X009370Y009078D02*
X002396Y009078D01*
X002396Y009176D02*
X009518Y009176D01*
X009904Y009176D02*
X010399Y009176D01*
X010300Y009078D02*
X010048Y009078D01*
X010127Y008979D02*
X010202Y008979D01*
X010497Y009275D02*
X002396Y009275D01*
X002396Y009373D02*
X010596Y009373D01*
X010694Y009472D02*
X002396Y009472D01*
X002396Y009570D02*
X006895Y009570D01*
X006657Y009669D02*
X002381Y009669D01*
X002754Y009767D02*
X006517Y009767D01*
X006418Y009866D02*
X002777Y009866D01*
X002777Y009964D02*
X006321Y009964D01*
X006280Y010063D02*
X002777Y010063D01*
X002710Y010161D02*
X006239Y010161D01*
X006198Y010260D02*
X001116Y010260D01*
X001116Y010358D02*
X006179Y010358D01*
X006179Y010457D02*
X001116Y010457D01*
X001116Y010555D02*
X006179Y010555D01*
X006179Y010654D02*
X001116Y010654D01*
X001116Y010752D02*
X006209Y010752D01*
X006250Y010851D02*
X002736Y010851D01*
X002777Y010949D02*
X006290Y010949D01*
X006345Y011048D02*
X002777Y011048D01*
X002777Y011146D02*
X006444Y011146D01*
X006542Y011245D02*
X002729Y011245D01*
X002380Y011442D02*
X010893Y011442D01*
X010795Y011540D02*
X002396Y011540D01*
X002396Y011639D02*
X010696Y011639D01*
X010598Y011737D02*
X002396Y011737D01*
X002396Y011836D02*
X010499Y011836D01*
X010401Y011934D02*
X002396Y011934D01*
X002430Y012033D02*
X010302Y012033D01*
X010204Y012131D02*
X002529Y012131D01*
X002627Y012230D02*
X010105Y012230D01*
X010007Y012328D02*
X006595Y012328D01*
X006616Y012427D02*
X009908Y012427D01*
X009810Y012525D02*
X006616Y012525D01*
X006616Y012624D02*
X009711Y012624D01*
X009761Y013510D02*
X006616Y013510D01*
X006616Y013412D02*
X006681Y013412D01*
X006616Y013609D02*
X009572Y013609D01*
X009384Y013707D02*
X006616Y013707D01*
X006566Y013806D02*
X009195Y013806D01*
X009007Y013904D02*
X003537Y013904D01*
X003653Y014003D02*
X008819Y014003D01*
X006630Y012722D02*
X006616Y012722D01*
X006159Y012722D02*
X005513Y012722D01*
X005513Y012624D02*
X006159Y012624D01*
X006159Y012525D02*
X005513Y012525D01*
X005513Y012427D02*
X006159Y012427D01*
X006179Y012328D02*
X005493Y012328D01*
X005077Y012328D02*
X002726Y012328D01*
X002824Y012427D02*
X005056Y012427D01*
X005056Y012525D02*
X002923Y012525D01*
X003021Y012624D02*
X005056Y012624D01*
X005513Y012821D02*
X006159Y012821D01*
X006159Y012919D02*
X005513Y012919D01*
X005513Y013018D02*
X006159Y013018D01*
X006159Y013116D02*
X005513Y013116D01*
X005513Y013215D02*
X006159Y013215D01*
X006159Y013313D02*
X005513Y013313D01*
X005513Y013412D02*
X006159Y013412D01*
X006159Y013510D02*
X005513Y013510D01*
X005513Y013609D02*
X006159Y013609D01*
X006159Y013707D02*
X005513Y013707D01*
X005463Y013806D02*
X006209Y013806D01*
X005106Y013806D02*
X003420Y013806D01*
X003304Y013707D02*
X005056Y013707D01*
X005056Y013609D02*
X003187Y013609D01*
X003071Y013510D02*
X005056Y013510D01*
X005051Y013412D02*
X005056Y013412D01*
X006719Y011343D02*
X002339Y011343D01*
X001693Y011343D02*
X001116Y011343D01*
X001116Y011245D02*
X001266Y011245D01*
X001218Y011146D02*
X001116Y011146D01*
X001116Y011048D02*
X001218Y011048D01*
X001218Y010949D02*
X001116Y010949D01*
X001116Y010851D02*
X001259Y010851D01*
X001116Y011442D02*
X001652Y011442D01*
X001636Y011540D02*
X001116Y011540D01*
X001116Y011639D02*
X001636Y011639D01*
X001636Y011737D02*
X001116Y011737D01*
X001116Y011836D02*
X001636Y011836D01*
X001636Y011934D02*
X001208Y011934D01*
X001325Y012033D02*
X001636Y012033D01*
X001636Y012131D02*
X001441Y012131D01*
X001558Y012230D02*
X001636Y012230D01*
X001674Y012328D02*
X001676Y012328D01*
X001285Y010161D02*
X001116Y010161D01*
X001116Y010063D02*
X001218Y010063D01*
X001218Y009964D02*
X001116Y009964D01*
X001116Y009866D02*
X001218Y009866D01*
X001240Y009767D02*
X001116Y009767D01*
X001116Y009669D02*
X001652Y009669D01*
X001636Y009570D02*
X001116Y009570D01*
X001116Y009472D02*
X001636Y009472D01*
X001636Y009373D02*
X001116Y009373D01*
X001116Y009275D02*
X001636Y009275D01*
X001636Y009176D02*
X001116Y009176D01*
X001205Y009078D02*
X001636Y009078D01*
X001636Y008979D02*
X001316Y008979D01*
X001428Y008881D02*
X001636Y008881D01*
X001636Y008782D02*
X001539Y008782D01*
X001650Y008684D02*
X001676Y008684D01*
X002825Y008585D02*
X005056Y008585D01*
X005056Y008487D02*
X002923Y008487D01*
X003022Y008388D02*
X005056Y008388D01*
X005056Y008290D02*
X005004Y008290D01*
X006569Y008684D02*
X008510Y008684D01*
X008423Y008585D02*
X006616Y008585D01*
X006616Y008487D02*
X008365Y008487D01*
X008331Y008388D02*
X006616Y008388D01*
X007337Y009570D02*
X010793Y009570D01*
X010891Y009669D02*
X007575Y009669D01*
X007716Y009767D02*
X010689Y009767D01*
X010667Y009866D02*
X007814Y009866D01*
X007912Y009964D02*
X010667Y009964D01*
X010667Y010063D02*
X007953Y010063D01*
X007993Y010161D02*
X010733Y010161D01*
X010708Y010851D02*
X007983Y010851D01*
X007942Y010949D02*
X010667Y010949D01*
X010667Y011048D02*
X007887Y011048D01*
X007789Y011146D02*
X010667Y011146D01*
X010715Y011245D02*
X007690Y011245D01*
X007514Y011343D02*
X010992Y011343D01*
X012796Y010063D02*
X013116Y010063D01*
X013116Y010161D02*
X012949Y010161D01*
X013031Y010260D02*
X013116Y010260D01*
X013116Y010358D02*
X013072Y010358D01*
X013090Y010457D02*
X013116Y010457D01*
X013116Y010555D02*
X013090Y010555D01*
X013116Y010654D02*
X013061Y010654D01*
X013021Y010752D02*
X013116Y010752D01*
X013116Y010851D02*
X012924Y010851D01*
X013954Y010851D02*
X015279Y010851D01*
X015279Y010949D02*
X013954Y010949D01*
X013954Y011048D02*
X015279Y011048D01*
X015279Y011146D02*
X013954Y011146D01*
X013954Y011245D02*
X015279Y011245D01*
X015279Y011272D02*
X015279Y009377D01*
X013954Y009377D01*
X013954Y025567D01*
X014830Y025567D01*
X014819Y025556D01*
X014819Y025267D01*
X014815Y025206D01*
X014819Y025192D01*
X014819Y024949D01*
X014895Y024872D01*
X015171Y024872D01*
X015215Y024832D01*
X014976Y024832D01*
X014900Y024756D01*
X014900Y024451D01*
X014976Y024375D01*
X016383Y024375D01*
X016459Y024451D01*
X016459Y024756D01*
X016383Y024832D01*
X016051Y024832D01*
X016062Y024864D01*
X016056Y025015D01*
X015991Y025152D01*
X015603Y025507D01*
X015579Y025535D01*
X015579Y025556D01*
X015568Y025567D01*
X018010Y025567D01*
X017969Y025526D01*
X017969Y024919D01*
X018045Y024842D01*
X018492Y024842D01*
X018552Y024782D01*
X018236Y024782D01*
X018160Y024706D01*
X018160Y024401D01*
X018236Y024325D01*
X019643Y024325D01*
X019719Y024401D01*
X019719Y024706D01*
X019643Y024782D01*
X019288Y024782D01*
X019319Y024857D01*
X019319Y025008D01*
X019261Y025148D01*
X018971Y025438D01*
X018865Y025545D01*
X018809Y025567D01*
X019894Y025567D01*
X019894Y021231D01*
X019730Y021230D01*
X019730Y021910D01*
X019654Y021986D01*
X019329Y021986D01*
X019329Y023208D01*
X019323Y023223D01*
X019643Y023223D01*
X019719Y023299D01*
X019719Y023603D01*
X019643Y023680D01*
X018236Y023680D01*
X018160Y023603D01*
X018160Y023299D01*
X018236Y023223D01*
X018575Y023223D01*
X018569Y023208D01*
X018569Y021986D01*
X018405Y021986D01*
X018328Y021910D01*
X018328Y021222D01*
X018059Y021212D01*
X018059Y020917D01*
X018015Y020899D01*
X017943Y020827D01*
X017904Y020733D01*
X017904Y020632D01*
X017920Y020593D01*
X017377Y020593D01*
X017301Y020517D01*
X017301Y020289D01*
X017280Y020297D01*
X017179Y020297D01*
X017089Y020260D01*
X017089Y020295D01*
X017106Y020312D01*
X017229Y020435D01*
X017229Y020526D01*
X017275Y020526D01*
X017351Y020602D01*
X017351Y021143D01*
X017275Y021219D01*
X016773Y021219D01*
X016697Y021143D01*
X016697Y020602D01*
X016737Y020562D01*
X016685Y020562D01*
X016609Y020486D01*
X016609Y019632D01*
X016589Y019632D01*
X016589Y020486D01*
X016559Y020516D01*
X016559Y020526D01*
X016605Y020526D01*
X016681Y020602D01*
X016681Y021143D01*
X016605Y021219D01*
X016565Y021219D01*
X016565Y021346D01*
X016605Y021346D01*
X016681Y021422D01*
X016681Y021440D01*
X016687Y021418D01*
X016707Y021384D01*
X016735Y021356D01*
X016769Y021336D01*
X016807Y021326D01*
X016976Y021326D01*
X016976Y021644D01*
X017072Y021644D01*
X017072Y021326D01*
X017241Y021326D01*
X017279Y021336D01*
X017313Y021356D01*
X017341Y021384D01*
X017361Y021418D01*
X017371Y021456D01*
X017371Y021644D01*
X017072Y021644D01*
X017072Y021741D01*
X016976Y021741D01*
X016976Y022059D01*
X016807Y022059D01*
X016769Y022049D01*
X016735Y022029D01*
X016707Y022001D01*
X016687Y021967D01*
X016681Y021945D01*
X016681Y021963D01*
X016605Y022039D01*
X016104Y022039D01*
X016059Y021994D01*
X016059Y022309D01*
X015776Y022592D01*
X016001Y022817D01*
X016059Y022957D01*
X016059Y023108D01*
X016001Y023248D01*
X015976Y023273D01*
X016383Y023273D01*
X016459Y023349D01*
X016459Y023653D01*
X016383Y023730D01*
X014976Y023730D01*
X014900Y023653D01*
X014900Y023349D01*
X014976Y023273D01*
X015382Y023273D01*
X015227Y023118D01*
X015188Y023157D01*
X014371Y023157D01*
X014294Y023081D01*
X014294Y022343D01*
X014371Y022267D01*
X015188Y022267D01*
X015253Y022332D01*
X015435Y022332D01*
X015440Y022334D01*
X015639Y022135D01*
X015639Y020516D01*
X015609Y020486D01*
X015609Y019632D01*
X015609Y019633D01*
X015609Y020037D01*
X015354Y020037D01*
X015354Y020047D01*
X015344Y020047D01*
X015344Y020582D01*
X015220Y020582D01*
X015181Y020572D01*
X015147Y020552D01*
X015119Y020524D01*
X015100Y020490D01*
X015089Y020452D01*
X015089Y020179D01*
X014946Y020323D01*
X014946Y020418D01*
X014870Y020494D01*
X014329Y020494D01*
X014253Y020418D01*
X014253Y019916D01*
X014329Y019840D01*
X014799Y019840D01*
X014799Y019825D01*
X014329Y019825D01*
X014253Y019748D01*
X014253Y019655D01*
X014218Y019618D01*
X014159Y019559D01*
X014159Y019555D01*
X014088Y019478D01*
X014029Y019419D01*
X014029Y019415D01*
X014026Y019412D01*
X014029Y019328D01*
X014029Y017666D01*
X014027Y017664D01*
X014029Y017580D01*
X014029Y017495D01*
X014032Y017493D01*
X014032Y017490D01*
X014093Y017432D01*
X014108Y017417D01*
X014108Y017052D01*
X014184Y016976D01*
X014225Y016976D01*
X014225Y016819D01*
X014164Y016819D01*
X014088Y016743D01*
X014088Y016242D01*
X014164Y016166D01*
X014705Y016166D01*
X014769Y016230D01*
X014834Y016166D01*
X015374Y016166D01*
X015450Y016242D01*
X015450Y016668D01*
X015612Y016848D01*
X015669Y016905D01*
X015669Y016912D01*
X015674Y016917D01*
X015673Y016934D01*
X015744Y016904D01*
X015875Y016904D01*
X015919Y016923D01*
X015919Y016843D01*
X015930Y016804D01*
X015947Y016774D01*
X015939Y016766D01*
X015939Y016439D01*
X016015Y016362D01*
X016179Y016362D01*
X016179Y016134D01*
X016119Y016134D01*
X016043Y016058D01*
X016043Y016007D01*
X015896Y016007D01*
X015896Y016048D01*
X015820Y016124D01*
X015279Y016124D01*
X015203Y016048D01*
X015203Y016007D01*
X015065Y016007D01*
X015064Y016009D01*
X014970Y016047D01*
X014869Y016047D01*
X014775Y016009D01*
X014703Y015937D01*
X014664Y015843D01*
X014664Y015742D01*
X014703Y015648D01*
X014775Y015576D01*
X014869Y015537D01*
X014970Y015537D01*
X015064Y015576D01*
X015075Y015587D01*
X015203Y015587D01*
X015203Y015546D01*
X015279Y015470D01*
X015820Y015470D01*
X015896Y015546D01*
X015896Y015587D01*
X016043Y015587D01*
X016043Y015556D01*
X016119Y015480D01*
X016137Y015480D01*
X016115Y015474D01*
X016081Y015455D01*
X016053Y015427D01*
X016033Y015392D01*
X016023Y015354D01*
X016023Y015186D01*
X016341Y015186D01*
X016341Y015089D01*
X016023Y015089D01*
X016023Y014921D01*
X016033Y014883D01*
X016053Y014849D01*
X016081Y014821D01*
X016101Y014809D01*
X015923Y014809D01*
X015847Y014733D01*
X015847Y014192D01*
X015923Y014116D01*
X015964Y014116D01*
X015964Y013851D01*
X016224Y013591D01*
X016199Y013597D01*
X015854Y013597D01*
X015854Y011372D01*
X016329Y011372D01*
X016329Y013467D01*
X016323Y013492D01*
X016629Y013185D01*
X016752Y013062D01*
X018299Y013062D01*
X018299Y009377D01*
X016329Y009377D01*
X016329Y011272D01*
X015854Y011272D01*
X015854Y011372D01*
X015754Y011372D01*
X015754Y011272D01*
X015279Y011272D01*
X015279Y011372D02*
X015754Y011372D01*
X015754Y013597D01*
X015410Y013597D01*
X015371Y013587D01*
X015337Y013567D01*
X015309Y013539D01*
X015290Y013505D01*
X015279Y013467D01*
X015279Y011372D01*
X015279Y011442D02*
X013954Y011442D01*
X013954Y011540D02*
X015279Y011540D01*
X015279Y011639D02*
X013954Y011639D01*
X013954Y011737D02*
X015279Y011737D01*
X015279Y011836D02*
X013954Y011836D01*
X013954Y011934D02*
X015279Y011934D01*
X015279Y012033D02*
X013954Y012033D01*
X013954Y012131D02*
X015279Y012131D01*
X015279Y012230D02*
X013954Y012230D01*
X013954Y012328D02*
X015279Y012328D01*
X015279Y012427D02*
X013954Y012427D01*
X013954Y012525D02*
X015279Y012525D01*
X015279Y012624D02*
X013954Y012624D01*
X013954Y012722D02*
X015279Y012722D01*
X015279Y012821D02*
X013954Y012821D01*
X013954Y012919D02*
X015279Y012919D01*
X015279Y013018D02*
X013954Y013018D01*
X013954Y013116D02*
X015279Y013116D01*
X015279Y013215D02*
X013954Y013215D01*
X013954Y013313D02*
X015279Y013313D01*
X015279Y013412D02*
X013954Y013412D01*
X013954Y013510D02*
X015292Y013510D01*
X015032Y013806D02*
X016009Y013806D01*
X015964Y013904D02*
X015084Y013904D01*
X015084Y013902D02*
X015094Y013955D01*
X015094Y013970D01*
X014832Y013970D01*
X014832Y013995D01*
X015094Y013995D01*
X015094Y014009D01*
X015084Y014063D01*
X015063Y014113D01*
X015033Y014158D01*
X014995Y014196D01*
X014950Y014226D01*
X014900Y014247D01*
X014846Y014257D01*
X014832Y014257D01*
X014832Y013995D01*
X014807Y013995D01*
X014807Y014257D01*
X014792Y014257D01*
X014739Y014247D01*
X014689Y014226D01*
X014644Y014196D01*
X014606Y014158D01*
X014576Y014113D01*
X014555Y014063D01*
X014544Y014009D01*
X014544Y013995D01*
X014807Y013995D01*
X014807Y013970D01*
X014832Y013970D01*
X014832Y013707D01*
X014846Y013707D01*
X014900Y013718D01*
X014950Y013739D01*
X014995Y013769D01*
X015033Y013807D01*
X015063Y013852D01*
X015084Y013902D01*
X015094Y014003D02*
X015964Y014003D01*
X015964Y014101D02*
X015068Y014101D01*
X015161Y014172D02*
X015194Y014172D01*
X015200Y014169D01*
X015254Y014116D01*
X015308Y014116D01*
X015325Y014107D01*
X015351Y014116D01*
X015755Y014116D01*
X015831Y014192D01*
X015831Y014733D01*
X015763Y014801D01*
X015820Y014801D01*
X015896Y014877D01*
X015896Y015378D01*
X015820Y015455D01*
X015279Y015455D01*
X015203Y015378D01*
X015203Y014877D01*
X015271Y014809D01*
X015254Y014809D01*
X015200Y014755D01*
X015194Y014752D01*
X015161Y014752D01*
X015127Y014719D01*
X015084Y014697D01*
X015073Y014665D01*
X015049Y014641D01*
X015049Y014593D01*
X015034Y014548D01*
X015049Y014518D01*
X015049Y014407D01*
X015034Y014377D01*
X015049Y014332D01*
X015049Y014284D01*
X015073Y014260D01*
X015084Y014228D01*
X015127Y014206D01*
X015161Y014172D01*
X015133Y014200D02*
X014989Y014200D01*
X015049Y014298D02*
X013954Y014298D01*
X013954Y014200D02*
X014650Y014200D01*
X014571Y014101D02*
X013954Y014101D01*
X013954Y014003D02*
X014544Y014003D01*
X014544Y013970D02*
X014544Y013955D01*
X014555Y013902D01*
X014576Y013852D01*
X014606Y013807D01*
X014644Y013769D01*
X014689Y013739D01*
X014739Y013718D01*
X014792Y013707D01*
X014807Y013707D01*
X014807Y013970D01*
X014544Y013970D01*
X014554Y013904D02*
X013954Y013904D01*
X013954Y013806D02*
X014607Y013806D01*
X014807Y013806D02*
X014832Y013806D01*
X014832Y013904D02*
X014807Y013904D01*
X014807Y014003D02*
X014832Y014003D01*
X014832Y014101D02*
X014807Y014101D01*
X014807Y014200D02*
X014832Y014200D01*
X015044Y014397D02*
X013954Y014397D01*
X013954Y014495D02*
X015049Y014495D01*
X015049Y014594D02*
X013954Y014594D01*
X013954Y014692D02*
X015082Y014692D01*
X015236Y014791D02*
X013954Y014791D01*
X013954Y014889D02*
X015203Y014889D01*
X015203Y014988D02*
X013954Y014988D01*
X013954Y015086D02*
X015203Y015086D01*
X015203Y015185D02*
X013954Y015185D01*
X013954Y015283D02*
X015203Y015283D01*
X015206Y015382D02*
X013954Y015382D01*
X013954Y015480D02*
X015269Y015480D01*
X015203Y015579D02*
X015066Y015579D01*
X014772Y015579D02*
X013954Y015579D01*
X013954Y015677D02*
X014691Y015677D01*
X014664Y015776D02*
X013954Y015776D01*
X013954Y015874D02*
X014677Y015874D01*
X014739Y015973D02*
X013954Y015973D01*
X013954Y016071D02*
X015226Y016071D01*
X015379Y016170D02*
X016179Y016170D01*
X016179Y016268D02*
X015450Y016268D01*
X015450Y016367D02*
X016011Y016367D01*
X015939Y016465D02*
X015450Y016465D01*
X015450Y016564D02*
X015939Y016564D01*
X015939Y016662D02*
X015450Y016662D01*
X015533Y016761D02*
X015939Y016761D01*
X015919Y016859D02*
X015623Y016859D01*
X015872Y016071D02*
X016056Y016071D01*
X016043Y015579D02*
X015896Y015579D01*
X015830Y015480D02*
X016119Y015480D01*
X016030Y015382D02*
X015893Y015382D01*
X015896Y015283D02*
X016023Y015283D01*
X015896Y015185D02*
X016341Y015185D01*
X016438Y015185D02*
X016869Y015185D01*
X016869Y015283D02*
X016756Y015283D01*
X016756Y015354D02*
X016746Y015392D01*
X016726Y015427D01*
X016698Y015455D01*
X016664Y015474D01*
X016642Y015480D01*
X016660Y015480D01*
X017173Y015480D01*
X017173Y015414D02*
X017185Y015402D01*
X016945Y015402D01*
X016869Y015326D01*
X016869Y014699D01*
X016945Y014622D01*
X017273Y014622D01*
X017349Y014699D01*
X017349Y014802D01*
X017386Y014802D01*
X017541Y014957D01*
X017550Y014957D01*
X017609Y014982D01*
X017609Y014699D01*
X017685Y014622D01*
X018013Y014622D01*
X018089Y014699D01*
X018089Y014802D01*
X018292Y014802D01*
X018292Y014637D01*
X018346Y014583D01*
X018330Y014574D01*
X018302Y014546D01*
X018283Y014512D01*
X018272Y014474D01*
X018272Y014286D01*
X018571Y014286D01*
X018571Y014189D01*
X018272Y014189D01*
X018272Y014001D01*
X018283Y013963D01*
X018289Y013952D01*
X018100Y013952D01*
X018089Y013963D01*
X018089Y014406D01*
X018013Y014482D01*
X017685Y014482D01*
X017678Y014475D01*
X017647Y014492D01*
X017609Y014502D01*
X017484Y014502D01*
X017484Y014097D01*
X017474Y014097D01*
X017474Y014502D01*
X017350Y014502D01*
X017311Y014492D01*
X017281Y014475D01*
X017273Y014482D01*
X016945Y014482D01*
X016869Y014406D01*
X016869Y013779D01*
X016945Y013702D01*
X016972Y013702D01*
X017139Y013535D01*
X017192Y013482D01*
X016926Y013482D01*
X016384Y014025D01*
X016384Y014116D01*
X016425Y014116D01*
X016501Y014192D01*
X016501Y014733D01*
X016443Y014791D01*
X016869Y014791D01*
X016869Y014889D02*
X016747Y014889D01*
X016746Y014883D02*
X016756Y014921D01*
X016756Y015089D01*
X016438Y015089D01*
X016438Y015186D01*
X016756Y015186D01*
X016756Y015354D01*
X016748Y015382D02*
X016925Y015382D01*
X017173Y015414D02*
X017173Y015966D01*
X017165Y015948D01*
X017094Y015876D01*
X017000Y015837D01*
X016899Y015837D01*
X016805Y015876D01*
X016736Y015945D01*
X016736Y015556D01*
X016660Y015480D01*
X016736Y015579D02*
X017173Y015579D01*
X017173Y015677D02*
X016736Y015677D01*
X016736Y015776D02*
X017173Y015776D01*
X017173Y015874D02*
X017089Y015874D01*
X016810Y015874D02*
X016736Y015874D01*
X016756Y015086D02*
X016869Y015086D01*
X016869Y014988D02*
X016756Y014988D01*
X016746Y014883D02*
X016726Y014849D01*
X016698Y014821D01*
X016664Y014801D01*
X016626Y014791D01*
X016443Y014791D01*
X016501Y014692D02*
X016876Y014692D01*
X016501Y014594D02*
X018335Y014594D01*
X018292Y014692D02*
X018083Y014692D01*
X018089Y014791D02*
X018292Y014791D01*
X018278Y014495D02*
X017636Y014495D01*
X017484Y014495D02*
X017474Y014495D01*
X017474Y014397D02*
X017484Y014397D01*
X017474Y014298D02*
X017484Y014298D01*
X017474Y014200D02*
X017484Y014200D01*
X017474Y014101D02*
X017484Y014101D01*
X017323Y014495D02*
X016501Y014495D01*
X016501Y014397D02*
X016869Y014397D01*
X016869Y014298D02*
X016501Y014298D01*
X016501Y014200D02*
X016869Y014200D01*
X016869Y014101D02*
X016384Y014101D01*
X016406Y014003D02*
X016869Y014003D01*
X016869Y013904D02*
X016504Y013904D01*
X016603Y013806D02*
X016869Y013806D01*
X016941Y013707D02*
X016701Y013707D01*
X016800Y013609D02*
X017066Y013609D01*
X017164Y013510D02*
X016898Y013510D01*
X016600Y013215D02*
X016329Y013215D01*
X016329Y013313D02*
X016501Y013313D01*
X016403Y013412D02*
X016329Y013412D01*
X016206Y013609D02*
X013954Y013609D01*
X013954Y013707D02*
X016107Y013707D01*
X015854Y013510D02*
X015754Y013510D01*
X015754Y013412D02*
X015854Y013412D01*
X015854Y013313D02*
X015754Y013313D01*
X015754Y013215D02*
X015854Y013215D01*
X015854Y013116D02*
X015754Y013116D01*
X015754Y013018D02*
X015854Y013018D01*
X015854Y012919D02*
X015754Y012919D01*
X015754Y012821D02*
X015854Y012821D01*
X015854Y012722D02*
X015754Y012722D01*
X015754Y012624D02*
X015854Y012624D01*
X015854Y012525D02*
X015754Y012525D01*
X015754Y012427D02*
X015854Y012427D01*
X015854Y012328D02*
X015754Y012328D01*
X015754Y012230D02*
X015854Y012230D01*
X015854Y012131D02*
X015754Y012131D01*
X015754Y012033D02*
X015854Y012033D01*
X015854Y011934D02*
X015754Y011934D01*
X015754Y011836D02*
X015854Y011836D01*
X015854Y011737D02*
X015754Y011737D01*
X015754Y011639D02*
X015854Y011639D01*
X015854Y011540D02*
X015754Y011540D01*
X015754Y011442D02*
X015854Y011442D01*
X015854Y011343D02*
X018299Y011343D01*
X018299Y011245D02*
X016329Y011245D01*
X016329Y011146D02*
X018299Y011146D01*
X018299Y011048D02*
X016329Y011048D01*
X016329Y010949D02*
X018299Y010949D01*
X018299Y010851D02*
X016329Y010851D01*
X016329Y010752D02*
X018299Y010752D01*
X018299Y010654D02*
X016329Y010654D01*
X016329Y010555D02*
X018299Y010555D01*
X018299Y010457D02*
X016329Y010457D01*
X016329Y010358D02*
X018299Y010358D01*
X018299Y010260D02*
X016329Y010260D01*
X016329Y010161D02*
X018299Y010161D01*
X018299Y010063D02*
X016329Y010063D01*
X016329Y009964D02*
X018299Y009964D01*
X018299Y009866D02*
X016329Y009866D01*
X016329Y009767D02*
X018299Y009767D01*
X018299Y009669D02*
X016329Y009669D01*
X016329Y009570D02*
X018299Y009570D01*
X018299Y009472D02*
X016329Y009472D01*
X015279Y009472D02*
X013954Y009472D01*
X013954Y009570D02*
X015279Y009570D01*
X015279Y009669D02*
X013954Y009669D01*
X013954Y009767D02*
X015279Y009767D01*
X015279Y009866D02*
X013954Y009866D01*
X013954Y009964D02*
X015279Y009964D01*
X015279Y010063D02*
X013954Y010063D01*
X013954Y010161D02*
X015279Y010161D01*
X015279Y010260D02*
X013954Y010260D01*
X013954Y010358D02*
X015279Y010358D01*
X015279Y010457D02*
X013954Y010457D01*
X013954Y010555D02*
X015279Y010555D01*
X015279Y010654D02*
X013954Y010654D01*
X013954Y010752D02*
X015279Y010752D01*
X015754Y011343D02*
X013954Y011343D01*
X016329Y011442D02*
X018299Y011442D01*
X018299Y011540D02*
X016329Y011540D01*
X016329Y011639D02*
X018299Y011639D01*
X018299Y011737D02*
X016329Y011737D01*
X016329Y011836D02*
X018299Y011836D01*
X018299Y011934D02*
X016329Y011934D01*
X016329Y012033D02*
X018299Y012033D01*
X018299Y012131D02*
X016329Y012131D01*
X016329Y012230D02*
X018299Y012230D01*
X018299Y012328D02*
X016329Y012328D01*
X016329Y012427D02*
X018299Y012427D01*
X018299Y012525D02*
X016329Y012525D01*
X016329Y012624D02*
X018299Y012624D01*
X018299Y012722D02*
X016329Y012722D01*
X016329Y012821D02*
X018299Y012821D01*
X018299Y012919D02*
X016329Y012919D01*
X016329Y013018D02*
X018299Y013018D01*
X018272Y014003D02*
X018089Y014003D01*
X018089Y014101D02*
X018272Y014101D01*
X018272Y014298D02*
X018089Y014298D01*
X018089Y014200D02*
X018571Y014200D01*
X018668Y014200D02*
X019035Y014200D01*
X018966Y014189D02*
X018668Y014189D01*
X018668Y014286D01*
X018966Y014286D01*
X018966Y014474D01*
X018956Y014512D01*
X018936Y014546D01*
X018908Y014574D01*
X018893Y014583D01*
X018946Y014637D01*
X018946Y014933D01*
X018961Y014975D01*
X018946Y015006D01*
X018946Y015177D01*
X018870Y015254D01*
X018369Y015254D01*
X018337Y015222D01*
X018089Y015222D01*
X018089Y015326D01*
X018032Y015383D01*
X018063Y015414D01*
X018063Y015999D01*
X018216Y016152D01*
X018256Y016192D01*
X018256Y015872D01*
X018670Y015872D01*
X018670Y015772D01*
X018256Y015772D01*
X018256Y015448D01*
X018266Y015410D01*
X018285Y015376D01*
X018313Y015348D01*
X018348Y015328D01*
X018386Y015318D01*
X018670Y015318D01*
X018670Y015772D01*
X018770Y015772D01*
X018770Y015318D01*
X019043Y015318D01*
X019033Y013952D01*
X018950Y013952D01*
X018956Y013963D01*
X018966Y014001D01*
X018966Y014189D01*
X018966Y014101D02*
X019034Y014101D01*
X019033Y014003D02*
X018966Y014003D01*
X019199Y014072D02*
X019229Y017752D01*
X018986Y017752D01*
X018986Y018128D01*
X018910Y018205D01*
X018369Y018205D01*
X018338Y018174D01*
X018334Y018176D01*
X018333Y018256D01*
X018369Y018220D01*
X018910Y018220D01*
X018986Y018296D01*
X018986Y018798D01*
X018910Y018874D01*
X018518Y018874D01*
X018479Y018916D01*
X018975Y018916D01*
X019051Y018992D01*
X019051Y019010D01*
X019057Y018988D01*
X019077Y018954D01*
X019105Y018926D01*
X019139Y018906D01*
X019177Y018896D01*
X019346Y018896D01*
X019346Y019214D01*
X019442Y019214D01*
X019442Y018896D01*
X019611Y018896D01*
X019649Y018906D01*
X019683Y018926D01*
X019711Y018954D01*
X019731Y018988D01*
X019741Y019026D01*
X019741Y019214D01*
X019442Y019214D01*
X019442Y019311D01*
X019346Y019311D01*
X019346Y019629D01*
X019177Y019629D01*
X019139Y019619D01*
X019105Y019599D01*
X019077Y019571D01*
X019057Y019537D01*
X019051Y019515D01*
X019051Y019533D01*
X018975Y019609D01*
X018945Y019609D01*
X018978Y019642D01*
X018978Y020143D01*
X018902Y020219D01*
X018869Y020219D01*
X018869Y020230D01*
X018906Y020230D01*
X018982Y020306D01*
X018982Y020916D01*
X019056Y020916D01*
X019056Y020704D01*
X019355Y020704D01*
X019355Y020607D01*
X019056Y020607D01*
X019056Y020340D01*
X019067Y020302D01*
X019086Y020268D01*
X019114Y020240D01*
X019149Y020220D01*
X019187Y020210D01*
X019355Y020210D01*
X019355Y020607D01*
X019452Y020607D01*
X019452Y020704D01*
X019750Y020704D01*
X019750Y020920D01*
X019894Y020921D01*
X019894Y009377D01*
X019329Y009377D01*
X019329Y014082D01*
X019199Y014072D01*
X019200Y014101D02*
X019894Y014101D01*
X019894Y014003D02*
X019329Y014003D01*
X019329Y013904D02*
X019894Y013904D01*
X019894Y013806D02*
X019329Y013806D01*
X019329Y013707D02*
X019894Y013707D01*
X019894Y013609D02*
X019329Y013609D01*
X019329Y013510D02*
X019894Y013510D01*
X019894Y013412D02*
X019329Y013412D01*
X019329Y013313D02*
X019894Y013313D01*
X019894Y013215D02*
X019329Y013215D01*
X019329Y013116D02*
X019894Y013116D01*
X019894Y013018D02*
X019329Y013018D01*
X019329Y012919D02*
X019894Y012919D01*
X019894Y012821D02*
X019329Y012821D01*
X019329Y012722D02*
X019894Y012722D01*
X019894Y012624D02*
X019329Y012624D01*
X019329Y012525D02*
X019894Y012525D01*
X019894Y012427D02*
X019329Y012427D01*
X019329Y012328D02*
X019894Y012328D01*
X019894Y012230D02*
X019329Y012230D01*
X019329Y012131D02*
X019894Y012131D01*
X019894Y012033D02*
X019329Y012033D01*
X019329Y011934D02*
X019894Y011934D01*
X019894Y011836D02*
X019329Y011836D01*
X019329Y011737D02*
X019894Y011737D01*
X019894Y011639D02*
X019329Y011639D01*
X019329Y011540D02*
X019894Y011540D01*
X019894Y011442D02*
X019329Y011442D01*
X019329Y011343D02*
X019894Y011343D01*
X019894Y011245D02*
X019329Y011245D01*
X019329Y011146D02*
X019894Y011146D01*
X019894Y011048D02*
X019329Y011048D01*
X019329Y010949D02*
X019894Y010949D01*
X019894Y010851D02*
X019329Y010851D01*
X019329Y010752D02*
X019894Y010752D01*
X019894Y010654D02*
X019329Y010654D01*
X019329Y010555D02*
X019894Y010555D01*
X019894Y010457D02*
X019329Y010457D01*
X019329Y010358D02*
X019894Y010358D01*
X019894Y010260D02*
X019329Y010260D01*
X019329Y010161D02*
X019894Y010161D01*
X019894Y010063D02*
X019329Y010063D01*
X019329Y009964D02*
X019894Y009964D01*
X019894Y009866D02*
X019329Y009866D01*
X019329Y009767D02*
X019894Y009767D01*
X019894Y009669D02*
X019329Y009669D01*
X019329Y009570D02*
X019894Y009570D01*
X019894Y009472D02*
X019329Y009472D01*
X016698Y013116D02*
X016329Y013116D01*
X015847Y014200D02*
X015831Y014200D01*
X015831Y014298D02*
X015847Y014298D01*
X015847Y014397D02*
X015831Y014397D01*
X015831Y014495D02*
X015847Y014495D01*
X015847Y014594D02*
X015831Y014594D01*
X015831Y014692D02*
X015847Y014692D01*
X015905Y014791D02*
X015774Y014791D01*
X015896Y014889D02*
X016031Y014889D01*
X016023Y014988D02*
X015896Y014988D01*
X015896Y015086D02*
X016023Y015086D01*
X017349Y014791D02*
X017609Y014791D01*
X017609Y014889D02*
X017473Y014889D01*
X017343Y014692D02*
X017616Y014692D01*
X018089Y014397D02*
X018272Y014397D01*
X018903Y014594D02*
X019037Y014594D01*
X019038Y014692D02*
X018946Y014692D01*
X018946Y014791D02*
X019039Y014791D01*
X019040Y014889D02*
X018946Y014889D01*
X018955Y014988D02*
X019040Y014988D01*
X019041Y015086D02*
X018946Y015086D01*
X018939Y015185D02*
X019042Y015185D01*
X019043Y015283D02*
X018089Y015283D01*
X018034Y015382D02*
X018282Y015382D01*
X018256Y015480D02*
X018063Y015480D01*
X018063Y015579D02*
X018256Y015579D01*
X018256Y015677D02*
X018063Y015677D01*
X018063Y015776D02*
X018670Y015776D01*
X018670Y015872D02*
X018670Y016327D01*
X018386Y016327D01*
X018348Y016316D01*
X018339Y016312D01*
X018339Y016406D01*
X018405Y016406D01*
X018458Y016459D01*
X018467Y016443D01*
X018495Y016415D01*
X018530Y016396D01*
X018568Y016386D01*
X018756Y016386D01*
X018756Y016684D01*
X018852Y016684D01*
X018852Y016386D01*
X019040Y016386D01*
X019051Y016388D01*
X019050Y016327D01*
X018770Y016327D01*
X018770Y015872D01*
X018670Y015872D01*
X018670Y015874D02*
X018770Y015874D01*
X018770Y015973D02*
X018670Y015973D01*
X018670Y016071D02*
X018770Y016071D01*
X018770Y016170D02*
X018670Y016170D01*
X018670Y016268D02*
X018770Y016268D01*
X018756Y016465D02*
X018852Y016465D01*
X018852Y016564D02*
X018756Y016564D01*
X018756Y016662D02*
X018852Y016662D01*
X018852Y016781D02*
X018756Y016781D01*
X018756Y017079D01*
X018568Y017079D01*
X018530Y017069D01*
X018495Y017049D01*
X018467Y017021D01*
X018458Y017006D01*
X018405Y017059D01*
X018090Y017059D01*
X018020Y017124D01*
X018001Y017143D01*
X018055Y017198D01*
X018094Y017292D01*
X018094Y017393D01*
X018055Y017487D01*
X017984Y017559D01*
X017890Y017597D01*
X017789Y017597D01*
X017695Y017559D01*
X017689Y017552D01*
X017673Y017552D01*
X017643Y017582D01*
X017149Y017582D01*
X017149Y017606D01*
X017154Y017687D01*
X017149Y017692D01*
X017149Y017699D01*
X017092Y017756D01*
X017089Y017760D01*
X017089Y018587D01*
X017242Y018587D01*
X017242Y018527D01*
X017296Y018473D01*
X017280Y018464D01*
X017252Y018436D01*
X017233Y018402D01*
X017222Y018364D01*
X017222Y018176D01*
X017521Y018176D01*
X017521Y018079D01*
X017618Y018079D01*
X017618Y018176D01*
X017916Y018176D01*
X017916Y018364D01*
X017906Y018402D01*
X017886Y018436D01*
X017858Y018464D01*
X017843Y018473D01*
X017896Y018527D01*
X017896Y019067D01*
X017820Y019144D01*
X017319Y019144D01*
X017242Y019067D01*
X017242Y019007D01*
X016887Y019007D01*
X016782Y018902D01*
X016659Y018779D01*
X016659Y018676D01*
X016609Y018626D01*
X016609Y017872D01*
X016589Y017872D01*
X016589Y018626D01*
X016513Y018702D01*
X016185Y018702D01*
X016109Y018626D01*
X016109Y018392D01*
X016089Y018392D01*
X016089Y018626D01*
X016013Y018702D01*
X015685Y018702D01*
X015609Y018626D01*
X015609Y017842D01*
X015589Y017820D01*
X015589Y018626D01*
X015513Y018702D01*
X015185Y018702D01*
X015109Y018626D01*
X015109Y018388D01*
X014936Y018388D01*
X014936Y018448D01*
X014883Y018501D01*
X014898Y018510D01*
X014926Y018538D01*
X014946Y018573D01*
X014956Y018611D01*
X014956Y018799D01*
X014658Y018799D01*
X014658Y018895D01*
X014956Y018895D01*
X014956Y019083D01*
X014946Y019121D01*
X014926Y019156D01*
X014898Y019184D01*
X014888Y019189D01*
X014946Y019247D01*
X014946Y019349D01*
X014959Y019335D01*
X015082Y019212D01*
X016806Y019212D01*
X016926Y019332D01*
X017049Y019455D01*
X017049Y019559D01*
X017089Y019599D01*
X017089Y019824D01*
X017179Y019787D01*
X017280Y019787D01*
X017305Y019798D01*
X017291Y019773D01*
X017281Y019735D01*
X017281Y019567D01*
X017658Y019567D01*
X017658Y019865D01*
X017413Y019865D01*
X017445Y019898D01*
X017463Y019940D01*
X017728Y019940D01*
X017799Y019865D01*
X017755Y019865D01*
X017755Y019567D01*
X017658Y019567D01*
X017658Y019470D01*
X017755Y019470D01*
X017755Y019171D01*
X017939Y019171D01*
X017939Y018966D01*
X017936Y018883D01*
X017939Y018880D01*
X017939Y018875D01*
X017998Y018817D01*
X018042Y018769D01*
X018036Y018156D01*
X018023Y018151D01*
X017931Y018058D01*
X017916Y018022D01*
X017916Y018079D01*
X017618Y018079D01*
X017618Y017761D01*
X017786Y017761D01*
X017824Y017771D01*
X017858Y017791D01*
X017881Y017814D01*
X017881Y017807D01*
X017931Y017687D01*
X018023Y017594D01*
X018030Y017592D01*
X018029Y017552D01*
X018124Y017552D01*
X018144Y017544D01*
X018275Y017544D01*
X018294Y017552D01*
X018334Y017552D01*
X018325Y017549D01*
X018285Y017549D01*
X018325Y017549D02*
X018253Y017477D01*
X018214Y017383D01*
X018214Y017282D01*
X018253Y017188D01*
X018325Y017116D01*
X018419Y017077D01*
X018520Y017077D01*
X018614Y017116D01*
X018685Y017188D01*
X018706Y017237D01*
X018718Y017237D01*
X018768Y017285D01*
X018826Y017326D01*
X018829Y017345D01*
X018843Y017358D01*
X018844Y017428D01*
X018856Y017497D01*
X018845Y017513D01*
X018845Y017551D01*
X018910Y017551D01*
X018911Y017552D01*
X019059Y017552D01*
X019056Y017075D01*
X019040Y017079D01*
X018852Y017079D01*
X018852Y016781D01*
X018852Y016859D02*
X018756Y016859D01*
X018756Y016958D02*
X018852Y016958D01*
X018852Y017056D02*
X018756Y017056D01*
X018652Y017155D02*
X019056Y017155D01*
X019057Y017253D02*
X018735Y017253D01*
X018836Y017352D02*
X019058Y017352D01*
X019059Y017450D02*
X018848Y017450D01*
X018845Y017549D02*
X019059Y017549D01*
X019228Y017549D02*
X019894Y017549D01*
X019894Y017647D02*
X019228Y017647D01*
X019229Y017746D02*
X019894Y017746D01*
X019894Y017844D02*
X018986Y017844D01*
X018986Y017943D02*
X019894Y017943D01*
X019894Y018041D02*
X018986Y018041D01*
X018975Y018140D02*
X019894Y018140D01*
X019894Y018238D02*
X018928Y018238D01*
X018986Y018337D02*
X019894Y018337D01*
X019894Y018435D02*
X018986Y018435D01*
X018986Y018534D02*
X019894Y018534D01*
X019894Y018632D02*
X018986Y018632D01*
X018986Y018731D02*
X019894Y018731D01*
X019894Y018829D02*
X018954Y018829D01*
X018987Y018928D02*
X019103Y018928D01*
X019346Y018928D02*
X019442Y018928D01*
X019442Y019026D02*
X019346Y019026D01*
X019346Y019125D02*
X019442Y019125D01*
X019442Y019223D02*
X019894Y019223D01*
X019894Y019125D02*
X019741Y019125D01*
X019741Y019026D02*
X019894Y019026D01*
X019894Y018928D02*
X019685Y018928D01*
X019741Y019311D02*
X019442Y019311D01*
X019442Y019629D01*
X019611Y019629D01*
X019649Y019619D01*
X019683Y019599D01*
X019711Y019571D01*
X019731Y019537D01*
X019741Y019499D01*
X019741Y019311D01*
X019741Y019322D02*
X019894Y019322D01*
X019894Y019420D02*
X019741Y019420D01*
X019735Y019519D02*
X019894Y019519D01*
X019894Y019617D02*
X019651Y019617D01*
X019442Y019617D02*
X019346Y019617D01*
X019346Y019519D02*
X019442Y019519D01*
X019442Y019420D02*
X019346Y019420D01*
X019346Y019322D02*
X019442Y019322D01*
X019137Y019617D02*
X018954Y019617D01*
X018978Y019716D02*
X019894Y019716D01*
X019894Y019814D02*
X018978Y019814D01*
X018978Y019913D02*
X019894Y019913D01*
X019894Y020011D02*
X018978Y020011D01*
X018978Y020110D02*
X019894Y020110D01*
X019894Y020208D02*
X018913Y020208D01*
X018982Y020307D02*
X019065Y020307D01*
X019056Y020405D02*
X018982Y020405D01*
X018982Y020504D02*
X019056Y020504D01*
X019056Y020602D02*
X018982Y020602D01*
X018982Y020701D02*
X019355Y020701D01*
X019452Y020701D02*
X019894Y020701D01*
X019894Y020799D02*
X019750Y020799D01*
X019750Y020898D02*
X019894Y020898D01*
X019894Y020602D02*
X019750Y020602D01*
X019750Y020607D02*
X019452Y020607D01*
X019452Y020210D01*
X019620Y020210D01*
X019658Y020220D01*
X019692Y020240D01*
X019720Y020268D01*
X019740Y020302D01*
X019750Y020340D01*
X019750Y020607D01*
X019750Y020504D02*
X019894Y020504D01*
X019894Y020405D02*
X019750Y020405D01*
X019741Y020307D02*
X019894Y020307D01*
X019452Y020307D02*
X019355Y020307D01*
X019355Y020405D02*
X019452Y020405D01*
X019452Y020504D02*
X019355Y020504D01*
X019355Y020602D02*
X019452Y020602D01*
X019056Y020799D02*
X018982Y020799D01*
X018982Y020898D02*
X019056Y020898D01*
X019730Y021292D02*
X019894Y021292D01*
X019894Y021390D02*
X019730Y021390D01*
X019730Y021489D02*
X019894Y021489D01*
X019894Y021587D02*
X019730Y021587D01*
X019730Y021686D02*
X019894Y021686D01*
X019894Y021784D02*
X019730Y021784D01*
X019730Y021883D02*
X019894Y021883D01*
X019894Y021981D02*
X019659Y021981D01*
X019894Y022080D02*
X019329Y022080D01*
X019329Y022178D02*
X019894Y022178D01*
X019894Y022277D02*
X019329Y022277D01*
X019329Y022375D02*
X019894Y022375D01*
X019894Y022474D02*
X019329Y022474D01*
X019329Y022572D02*
X019894Y022572D01*
X019894Y022671D02*
X019329Y022671D01*
X019329Y022769D02*
X019894Y022769D01*
X019894Y022868D02*
X019329Y022868D01*
X019329Y022966D02*
X019894Y022966D01*
X019894Y023065D02*
X019329Y023065D01*
X019329Y023163D02*
X019894Y023163D01*
X019894Y023262D02*
X019682Y023262D01*
X019719Y023360D02*
X019894Y023360D01*
X019894Y023459D02*
X019719Y023459D01*
X019719Y023557D02*
X019894Y023557D01*
X019894Y023656D02*
X019667Y023656D01*
X019894Y023754D02*
X013954Y023754D01*
X013954Y023656D02*
X014902Y023656D01*
X014900Y023557D02*
X013954Y023557D01*
X013954Y023459D02*
X014900Y023459D01*
X014900Y023360D02*
X013954Y023360D01*
X013954Y023262D02*
X015371Y023262D01*
X015273Y023163D02*
X013954Y023163D01*
X013954Y023065D02*
X014294Y023065D01*
X014294Y022966D02*
X013954Y022966D01*
X013954Y022868D02*
X014294Y022868D01*
X014294Y022769D02*
X013954Y022769D01*
X013954Y022671D02*
X014294Y022671D01*
X014294Y022572D02*
X013954Y022572D01*
X013954Y022474D02*
X014294Y022474D01*
X014294Y022375D02*
X013954Y022375D01*
X013954Y022277D02*
X014361Y022277D01*
X014405Y022057D02*
X014366Y022047D01*
X014332Y022028D01*
X014304Y022000D01*
X014285Y021965D01*
X014274Y021927D01*
X014274Y021643D01*
X014729Y021643D01*
X014729Y022057D01*
X014405Y022057D01*
X014294Y021981D02*
X013954Y021981D01*
X013954Y021883D02*
X014274Y021883D01*
X014274Y021784D02*
X013954Y021784D01*
X013954Y021686D02*
X014274Y021686D01*
X014274Y021543D02*
X014274Y021258D01*
X014285Y021220D01*
X014304Y021185D01*
X014332Y021158D01*
X014366Y021138D01*
X014405Y021128D01*
X014729Y021128D01*
X014729Y021543D01*
X014274Y021543D01*
X014274Y021489D02*
X013954Y021489D01*
X013954Y021587D02*
X014729Y021587D01*
X014729Y021543D02*
X014729Y021643D01*
X014829Y021643D01*
X014829Y022057D01*
X015154Y022057D01*
X015192Y022047D01*
X015226Y022028D01*
X015254Y022000D01*
X015274Y021965D01*
X015284Y021927D01*
X015284Y021643D01*
X014829Y021643D01*
X014829Y021543D01*
X015284Y021543D01*
X015284Y021258D01*
X015274Y021220D01*
X015254Y021185D01*
X015226Y021158D01*
X015192Y021138D01*
X015154Y021128D01*
X014829Y021128D01*
X014829Y021543D01*
X014729Y021543D01*
X014729Y021489D02*
X014829Y021489D01*
X014829Y021587D02*
X015639Y021587D01*
X015639Y021489D02*
X015284Y021489D01*
X015284Y021390D02*
X015639Y021390D01*
X015639Y021292D02*
X015284Y021292D01*
X015259Y021193D02*
X015639Y021193D01*
X015639Y021095D02*
X013954Y021095D01*
X013954Y021193D02*
X014300Y021193D01*
X014274Y021292D02*
X013954Y021292D01*
X013954Y021390D02*
X014274Y021390D01*
X014729Y021390D02*
X014829Y021390D01*
X014829Y021292D02*
X014729Y021292D01*
X014729Y021193D02*
X014829Y021193D01*
X014829Y021686D02*
X014729Y021686D01*
X014729Y021784D02*
X014829Y021784D01*
X014829Y021883D02*
X014729Y021883D01*
X014729Y021981D02*
X014829Y021981D01*
X015265Y021981D02*
X015639Y021981D01*
X015639Y021883D02*
X015284Y021883D01*
X015284Y021784D02*
X015639Y021784D01*
X015639Y021686D02*
X015284Y021686D01*
X015639Y022080D02*
X013954Y022080D01*
X013954Y022178D02*
X015596Y022178D01*
X015498Y022277D02*
X015198Y022277D01*
X015796Y022572D02*
X018569Y022572D01*
X018569Y022474D02*
X015895Y022474D01*
X015993Y022375D02*
X018569Y022375D01*
X018569Y022277D02*
X016059Y022277D01*
X016059Y022178D02*
X018569Y022178D01*
X018569Y022080D02*
X016059Y022080D01*
X016663Y021981D02*
X016696Y021981D01*
X016976Y021981D02*
X017072Y021981D01*
X017072Y022059D02*
X017072Y021741D01*
X017371Y021741D01*
X017371Y021929D01*
X017361Y021967D01*
X017341Y022001D01*
X017313Y022029D01*
X017279Y022049D01*
X017241Y022059D01*
X017072Y022059D01*
X017072Y021883D02*
X016976Y021883D01*
X016976Y021784D02*
X017072Y021784D01*
X017072Y021686D02*
X018328Y021686D01*
X018328Y021784D02*
X017371Y021784D01*
X017371Y021883D02*
X018328Y021883D01*
X018400Y021981D02*
X017352Y021981D01*
X017371Y021587D02*
X018328Y021587D01*
X018328Y021489D02*
X017371Y021489D01*
X017345Y021390D02*
X018328Y021390D01*
X018328Y021292D02*
X016565Y021292D01*
X016631Y021193D02*
X016748Y021193D01*
X016697Y021095D02*
X016681Y021095D01*
X016681Y020996D02*
X016697Y020996D01*
X016697Y020898D02*
X016681Y020898D01*
X016681Y020799D02*
X016697Y020799D01*
X016697Y020701D02*
X016681Y020701D01*
X016681Y020602D02*
X016697Y020602D01*
X016627Y020504D02*
X016572Y020504D01*
X016589Y020405D02*
X016609Y020405D01*
X016609Y020307D02*
X016589Y020307D01*
X016589Y020208D02*
X016609Y020208D01*
X016609Y020110D02*
X016589Y020110D01*
X016589Y020011D02*
X016609Y020011D01*
X016609Y019913D02*
X016589Y019913D01*
X016589Y019814D02*
X016609Y019814D01*
X016609Y019716D02*
X016589Y019716D01*
X017089Y019716D02*
X017281Y019716D01*
X017281Y019617D02*
X017089Y019617D01*
X017049Y019519D02*
X017658Y019519D01*
X017658Y019470D02*
X017281Y019470D01*
X017281Y019302D01*
X017291Y019264D01*
X017311Y019229D01*
X017339Y019201D01*
X017373Y019182D01*
X017411Y019171D01*
X017658Y019171D01*
X017658Y019470D01*
X017658Y019420D02*
X017755Y019420D01*
X017755Y019322D02*
X017658Y019322D01*
X017658Y019223D02*
X017755Y019223D01*
X017839Y019125D02*
X017939Y019125D01*
X017939Y019026D02*
X017896Y019026D01*
X017896Y018928D02*
X017938Y018928D01*
X017896Y018829D02*
X017985Y018829D01*
X018042Y018731D02*
X017896Y018731D01*
X017896Y018632D02*
X018041Y018632D01*
X018040Y018534D02*
X017896Y018534D01*
X017887Y018435D02*
X018039Y018435D01*
X018038Y018337D02*
X017916Y018337D01*
X017916Y018238D02*
X018037Y018238D01*
X018013Y018140D02*
X017618Y018140D01*
X017521Y018140D02*
X017089Y018140D01*
X017089Y018238D02*
X017222Y018238D01*
X017222Y018337D02*
X017089Y018337D01*
X017089Y018435D02*
X017252Y018435D01*
X017242Y018534D02*
X017089Y018534D01*
X017222Y018079D02*
X017222Y017891D01*
X017233Y017853D01*
X017252Y017819D01*
X017280Y017791D01*
X017315Y017771D01*
X017353Y017761D01*
X017521Y017761D01*
X017521Y018079D01*
X017222Y018079D01*
X017222Y018041D02*
X017089Y018041D01*
X017089Y017943D02*
X017222Y017943D01*
X017238Y017844D02*
X017089Y017844D01*
X017103Y017746D02*
X017907Y017746D01*
X017970Y017647D02*
X017152Y017647D01*
X017521Y017844D02*
X017618Y017844D01*
X017618Y017943D02*
X017521Y017943D01*
X017521Y018041D02*
X017618Y018041D01*
X017916Y018041D02*
X017924Y018041D01*
X018334Y018238D02*
X018351Y018238D01*
X018133Y017549D02*
X017994Y017549D01*
X018071Y017450D02*
X018242Y017450D01*
X018214Y017352D02*
X018094Y017352D01*
X018078Y017253D02*
X018226Y017253D01*
X018286Y017155D02*
X018012Y017155D01*
X018408Y017056D02*
X018507Y017056D01*
X018339Y016367D02*
X019051Y016367D01*
X019218Y016367D02*
X019894Y016367D01*
X019894Y016465D02*
X019219Y016465D01*
X019220Y016564D02*
X019894Y016564D01*
X019894Y016662D02*
X019220Y016662D01*
X019221Y016761D02*
X019894Y016761D01*
X019894Y016859D02*
X019222Y016859D01*
X019223Y016958D02*
X019894Y016958D01*
X019894Y017056D02*
X019224Y017056D01*
X019224Y017155D02*
X019894Y017155D01*
X019894Y017253D02*
X019225Y017253D01*
X019226Y017352D02*
X019894Y017352D01*
X019894Y017450D02*
X019227Y017450D01*
X019217Y016268D02*
X019894Y016268D01*
X019894Y016170D02*
X019216Y016170D01*
X019216Y016071D02*
X019894Y016071D01*
X019894Y015973D02*
X019215Y015973D01*
X019214Y015874D02*
X019894Y015874D01*
X019894Y015776D02*
X019213Y015776D01*
X019212Y015677D02*
X019894Y015677D01*
X019894Y015579D02*
X019212Y015579D01*
X019211Y015480D02*
X019894Y015480D01*
X019894Y015382D02*
X019210Y015382D01*
X019209Y015283D02*
X019894Y015283D01*
X019894Y015185D02*
X019208Y015185D01*
X019208Y015086D02*
X019894Y015086D01*
X019894Y014988D02*
X019207Y014988D01*
X019206Y014889D02*
X019894Y014889D01*
X019894Y014791D02*
X019205Y014791D01*
X019204Y014692D02*
X019894Y014692D01*
X019894Y014594D02*
X019204Y014594D01*
X019203Y014495D02*
X019894Y014495D01*
X019894Y014397D02*
X019202Y014397D01*
X019201Y014298D02*
X019894Y014298D01*
X019894Y014200D02*
X019200Y014200D01*
X019035Y014298D02*
X018966Y014298D01*
X018966Y014397D02*
X019036Y014397D01*
X019037Y014495D02*
X018960Y014495D01*
X018770Y015382D02*
X018670Y015382D01*
X018670Y015480D02*
X018770Y015480D01*
X018770Y015579D02*
X018670Y015579D01*
X018670Y015677D02*
X018770Y015677D01*
X018256Y015874D02*
X018063Y015874D01*
X018063Y015973D02*
X018256Y015973D01*
X018256Y016071D02*
X018135Y016071D01*
X018234Y016170D02*
X018256Y016170D01*
X016609Y017943D02*
X016589Y017943D01*
X016589Y018041D02*
X016609Y018041D01*
X016609Y018140D02*
X016589Y018140D01*
X016589Y018238D02*
X016609Y018238D01*
X016609Y018337D02*
X016589Y018337D01*
X016589Y018435D02*
X016609Y018435D01*
X016609Y018534D02*
X016589Y018534D01*
X016583Y018632D02*
X016615Y018632D01*
X016659Y018731D02*
X014956Y018731D01*
X014956Y018632D02*
X015115Y018632D01*
X015109Y018534D02*
X014922Y018534D01*
X014936Y018435D02*
X015109Y018435D01*
X015589Y018435D02*
X015609Y018435D01*
X015609Y018337D02*
X015589Y018337D01*
X015589Y018238D02*
X015609Y018238D01*
X015609Y018140D02*
X015589Y018140D01*
X015589Y018041D02*
X015609Y018041D01*
X015609Y017943D02*
X015589Y017943D01*
X015589Y017844D02*
X015609Y017844D01*
X015589Y018534D02*
X015609Y018534D01*
X015615Y018632D02*
X015583Y018632D01*
X016083Y018632D02*
X016115Y018632D01*
X016109Y018534D02*
X016089Y018534D01*
X016089Y018435D02*
X016109Y018435D01*
X016709Y018829D02*
X014658Y018829D01*
X014956Y018928D02*
X016808Y018928D01*
X016817Y019223D02*
X017317Y019223D01*
X017300Y019125D02*
X014944Y019125D01*
X014956Y019026D02*
X017242Y019026D01*
X017281Y019322D02*
X016916Y019322D01*
X017014Y019420D02*
X017281Y019420D01*
X017114Y019814D02*
X017089Y019814D01*
X017452Y019913D02*
X017754Y019913D01*
X017755Y019814D02*
X017658Y019814D01*
X017658Y019716D02*
X017755Y019716D01*
X017755Y019617D02*
X017658Y019617D01*
X017301Y020307D02*
X017101Y020307D01*
X017199Y020405D02*
X017301Y020405D01*
X017301Y020504D02*
X017229Y020504D01*
X017351Y020602D02*
X017916Y020602D01*
X017904Y020701D02*
X017351Y020701D01*
X017351Y020799D02*
X017932Y020799D01*
X018014Y020898D02*
X017351Y020898D01*
X017351Y020996D02*
X018059Y020996D01*
X018059Y021095D02*
X017351Y021095D01*
X017300Y021193D02*
X018059Y021193D01*
X017072Y021390D02*
X016976Y021390D01*
X016976Y021489D02*
X017072Y021489D01*
X017072Y021587D02*
X016976Y021587D01*
X016703Y021390D02*
X016650Y021390D01*
X015639Y020996D02*
X013954Y020996D01*
X013954Y020898D02*
X015639Y020898D01*
X015639Y020799D02*
X013954Y020799D01*
X013954Y020701D02*
X015639Y020701D01*
X015639Y020602D02*
X013954Y020602D01*
X013954Y020504D02*
X015107Y020504D01*
X015089Y020405D02*
X014946Y020405D01*
X014962Y020307D02*
X015089Y020307D01*
X015089Y020208D02*
X015060Y020208D01*
X015344Y020208D02*
X015354Y020208D01*
X015344Y020110D02*
X015354Y020110D01*
X015354Y020047D02*
X015354Y020582D01*
X015479Y020582D01*
X015517Y020572D01*
X015551Y020552D01*
X015579Y020524D01*
X015599Y020490D01*
X015609Y020452D01*
X015609Y020047D01*
X015354Y020047D01*
X015609Y020011D02*
X015609Y020011D01*
X015609Y019913D02*
X015609Y019913D01*
X015609Y019814D02*
X015609Y019814D01*
X015609Y019716D02*
X015609Y019716D01*
X015609Y019632D02*
X015609Y019632D01*
X015609Y020110D02*
X015609Y020110D01*
X015609Y020208D02*
X015609Y020208D01*
X015609Y020307D02*
X015609Y020307D01*
X015609Y020405D02*
X015609Y020405D01*
X015591Y020504D02*
X015627Y020504D01*
X015354Y020504D02*
X015344Y020504D01*
X015344Y020405D02*
X015354Y020405D01*
X015344Y020307D02*
X015354Y020307D01*
X014973Y019322D02*
X014946Y019322D01*
X014922Y019223D02*
X015071Y019223D01*
X014319Y019814D02*
X013954Y019814D01*
X013954Y019716D02*
X014253Y019716D01*
X014217Y019617D02*
X013954Y019617D01*
X013954Y019519D02*
X014126Y019519D01*
X014030Y019420D02*
X013954Y019420D01*
X013954Y019322D02*
X014029Y019322D01*
X014029Y019223D02*
X013954Y019223D01*
X013954Y019125D02*
X014029Y019125D01*
X014029Y019026D02*
X013954Y019026D01*
X013954Y018928D02*
X014029Y018928D01*
X014029Y018829D02*
X013954Y018829D01*
X013954Y018731D02*
X014029Y018731D01*
X014029Y018632D02*
X013954Y018632D01*
X013954Y018534D02*
X014029Y018534D01*
X014029Y018435D02*
X013954Y018435D01*
X013954Y018337D02*
X014029Y018337D01*
X014029Y018238D02*
X013954Y018238D01*
X013954Y018140D02*
X014029Y018140D01*
X014029Y018041D02*
X013954Y018041D01*
X013954Y017943D02*
X014029Y017943D01*
X014029Y017844D02*
X013954Y017844D01*
X013954Y017746D02*
X014029Y017746D01*
X014028Y017647D02*
X013954Y017647D01*
X013954Y017549D02*
X014029Y017549D01*
X014073Y017450D02*
X013954Y017450D01*
X013954Y017352D02*
X014108Y017352D01*
X014108Y017253D02*
X013954Y017253D01*
X013954Y017155D02*
X014108Y017155D01*
X014108Y017056D02*
X013954Y017056D01*
X013954Y016958D02*
X014225Y016958D01*
X014225Y016859D02*
X013954Y016859D01*
X013954Y016761D02*
X014106Y016761D01*
X014088Y016662D02*
X013954Y016662D01*
X013954Y016564D02*
X014088Y016564D01*
X014088Y016465D02*
X013954Y016465D01*
X013954Y016367D02*
X014088Y016367D01*
X014088Y016268D02*
X013954Y016268D01*
X013954Y016170D02*
X014160Y016170D01*
X014709Y016170D02*
X014829Y016170D01*
X011970Y019814D02*
X010773Y019814D01*
X010675Y019716D02*
X011768Y019716D01*
X011567Y019617D02*
X010576Y019617D01*
X010478Y019519D02*
X011365Y019519D01*
X011164Y019420D02*
X010464Y019420D01*
X010459Y019501D02*
X011699Y020740D01*
X011757Y020880D01*
X011757Y021013D01*
X012110Y021013D01*
X012186Y021089D01*
X012186Y021394D01*
X012110Y021470D01*
X010703Y021470D01*
X010627Y021394D01*
X010627Y021089D01*
X010703Y021013D01*
X010897Y021013D01*
X010112Y020228D01*
X010063Y020329D01*
X009919Y020457D01*
X009737Y020519D01*
X009544Y020508D01*
X009371Y020423D01*
X009244Y020279D01*
X009181Y020097D01*
X009193Y019904D01*
X009588Y019094D01*
X009732Y018967D01*
X009914Y018904D01*
X010107Y018916D01*
X010280Y019000D01*
X010407Y019144D01*
X010470Y019327D01*
X010459Y019501D01*
X010468Y019322D02*
X010962Y019322D01*
X010761Y019223D02*
X010435Y019223D01*
X010390Y019125D02*
X010560Y019125D01*
X010358Y019026D02*
X010303Y019026D01*
X010157Y018928D02*
X010131Y018928D01*
X009955Y018829D02*
X009551Y018829D01*
X009571Y018888D02*
X009509Y018706D01*
X009381Y018562D01*
X009208Y018477D01*
X009015Y018465D01*
X008833Y018528D01*
X008689Y018656D01*
X008582Y018875D01*
X006601Y018875D01*
X006576Y018886D01*
X006576Y018530D01*
X006500Y018454D01*
X006195Y018454D01*
X006119Y018530D01*
X006119Y019937D01*
X006195Y020013D01*
X006500Y020013D01*
X006576Y019937D01*
X006576Y019625D01*
X006601Y019635D01*
X008283Y019635D01*
X008282Y019658D01*
X008345Y019840D01*
X008472Y019985D01*
X008646Y020069D01*
X008838Y020081D01*
X009020Y020018D01*
X009164Y019891D01*
X009560Y019081D01*
X009571Y018888D01*
X009569Y018928D02*
X009845Y018928D01*
X009665Y019026D02*
X009563Y019026D01*
X009573Y019125D02*
X009538Y019125D01*
X009525Y019223D02*
X009490Y019223D01*
X009477Y019322D02*
X009442Y019322D01*
X009429Y019420D02*
X009394Y019420D01*
X009381Y019519D02*
X009346Y019519D01*
X009333Y019617D02*
X009298Y019617D01*
X009285Y019716D02*
X009250Y019716D01*
X009237Y019814D02*
X009202Y019814D01*
X009192Y019913D02*
X009139Y019913D01*
X009186Y020011D02*
X009028Y020011D01*
X009185Y020110D02*
X002560Y020110D01*
X002461Y020208D02*
X009219Y020208D01*
X009268Y020307D02*
X002363Y020307D01*
X002357Y020313D02*
X002357Y020931D01*
X002323Y021013D01*
X002661Y021013D01*
X002738Y021089D01*
X002738Y021394D01*
X002661Y021470D01*
X001254Y021470D01*
X001178Y021394D01*
X001178Y021089D01*
X001254Y021013D01*
X001631Y021013D01*
X001597Y020931D01*
X001597Y020080D01*
X001652Y019947D01*
X001077Y020455D01*
X001077Y023155D01*
X001638Y023630D01*
X001597Y023531D01*
X001597Y022780D01*
X001655Y022640D01*
X001723Y022572D01*
X001254Y022572D01*
X001178Y022496D01*
X001178Y022191D01*
X001254Y022115D01*
X002661Y022115D01*
X002738Y022191D01*
X002738Y022496D01*
X002661Y022572D01*
X002231Y022572D01*
X002299Y022640D01*
X002357Y022780D01*
X002357Y023298D01*
X003034Y023975D01*
X004952Y023975D01*
X005017Y024002D01*
X005017Y023648D01*
X005093Y023572D01*
X005398Y023572D01*
X005474Y023648D01*
X005474Y025055D01*
X005398Y025131D01*
X005093Y025131D01*
X005017Y025055D01*
X005017Y024709D01*
X004952Y024735D01*
X002944Y024735D01*
X003677Y025355D01*
X008677Y025355D01*
X009903Y024714D01*
X009852Y024735D01*
X006701Y024735D01*
X006576Y024684D01*
X006576Y025055D01*
X006500Y025131D01*
X006195Y025131D01*
X006119Y025055D01*
X006119Y023648D01*
X006195Y023572D01*
X006500Y023572D01*
X006576Y023648D01*
X006576Y024027D01*
X006701Y023975D01*
X009619Y023975D01*
X011023Y022572D01*
X010703Y022572D01*
X010627Y022496D01*
X010627Y022191D01*
X010703Y022115D01*
X012110Y022115D01*
X012186Y022191D01*
X012186Y022496D01*
X012110Y022572D01*
X011712Y022572D01*
X011757Y022680D01*
X011757Y022831D01*
X011699Y022971D01*
X010099Y024571D01*
X010012Y024657D01*
X013077Y023055D01*
X013077Y020355D01*
X008577Y018155D01*
X003677Y018155D01*
X002863Y018875D01*
X004852Y018875D01*
X004992Y018933D01*
X005017Y018958D01*
X005017Y018530D01*
X005093Y018454D01*
X005398Y018454D01*
X005474Y018530D01*
X005474Y019937D01*
X005398Y020013D01*
X005093Y020013D01*
X005017Y019937D01*
X005017Y019553D01*
X004992Y019578D01*
X004852Y019635D01*
X003034Y019635D01*
X002357Y020313D01*
X002357Y020405D02*
X009355Y020405D01*
X009536Y020504D02*
X002357Y020504D01*
X002357Y020602D02*
X010486Y020602D01*
X010388Y020504D02*
X009782Y020504D01*
X009977Y020405D02*
X010289Y020405D01*
X010191Y020307D02*
X010074Y020307D01*
X010585Y020701D02*
X002357Y020701D01*
X002357Y020799D02*
X010683Y020799D01*
X010782Y020898D02*
X007366Y020898D01*
X007263Y020855D02*
X007608Y020998D01*
X007872Y021261D01*
X008014Y021606D01*
X008014Y021979D01*
X007872Y022323D01*
X007608Y022587D01*
X007263Y022730D01*
X006890Y022730D01*
X006546Y022587D01*
X006282Y022323D01*
X006139Y021979D01*
X006139Y021606D01*
X006282Y021261D01*
X006546Y020998D01*
X006890Y020855D01*
X007263Y020855D01*
X007604Y020996D02*
X010880Y020996D01*
X010627Y021095D02*
X007705Y021095D01*
X007803Y021193D02*
X010627Y021193D01*
X010627Y021292D02*
X007884Y021292D01*
X007925Y021390D02*
X010627Y021390D01*
X010640Y022178D02*
X007932Y022178D01*
X007972Y022080D02*
X012221Y022080D01*
X012196Y022054D02*
X012125Y021884D01*
X012125Y021700D01*
X012196Y021530D01*
X012326Y021400D01*
X012496Y021330D01*
X012680Y021330D01*
X012850Y021400D01*
X012980Y021530D01*
X013050Y021700D01*
X013050Y021884D01*
X012980Y022054D01*
X012850Y022185D01*
X012680Y022255D01*
X012496Y022255D01*
X012326Y022185D01*
X012196Y022054D01*
X012165Y021981D02*
X008013Y021981D01*
X008014Y021883D02*
X012125Y021883D01*
X012125Y021784D02*
X008014Y021784D01*
X008014Y021686D02*
X012131Y021686D01*
X012172Y021587D02*
X008006Y021587D01*
X007966Y021489D02*
X012238Y021489D01*
X012186Y021390D02*
X012350Y021390D01*
X012186Y021292D02*
X013077Y021292D01*
X013077Y021390D02*
X012825Y021390D01*
X012938Y021489D02*
X013077Y021489D01*
X013077Y021587D02*
X013003Y021587D01*
X013044Y021686D02*
X013077Y021686D01*
X013077Y021784D02*
X013050Y021784D01*
X013050Y021883D02*
X013077Y021883D01*
X013077Y021981D02*
X013010Y021981D01*
X012955Y022080D02*
X013077Y022080D01*
X013077Y022178D02*
X012856Y022178D01*
X013077Y022277D02*
X012186Y022277D01*
X012186Y022375D02*
X013077Y022375D01*
X013077Y022474D02*
X012186Y022474D01*
X012173Y022178D02*
X012320Y022178D01*
X011712Y022572D02*
X013077Y022572D01*
X013077Y022671D02*
X011753Y022671D01*
X011757Y022769D02*
X013077Y022769D01*
X013077Y022868D02*
X011742Y022868D01*
X011701Y022966D02*
X013077Y022966D01*
X013059Y023065D02*
X011605Y023065D01*
X011506Y023163D02*
X012871Y023163D01*
X012682Y023262D02*
X011408Y023262D01*
X011309Y023360D02*
X012494Y023360D01*
X012305Y023459D02*
X011211Y023459D01*
X011112Y023557D02*
X012117Y023557D01*
X011928Y023656D02*
X011014Y023656D01*
X010915Y023754D02*
X011740Y023754D01*
X011552Y023853D02*
X010817Y023853D01*
X010718Y023951D02*
X011363Y023951D01*
X011175Y024050D02*
X010620Y024050D01*
X010521Y024148D02*
X010986Y024148D01*
X010798Y024247D02*
X010423Y024247D01*
X010324Y024345D02*
X010609Y024345D01*
X010421Y024444D02*
X010226Y024444D01*
X010233Y024542D02*
X010127Y024542D01*
X010044Y024641D02*
X010029Y024641D01*
X009856Y024739D02*
X006576Y024739D01*
X006576Y024838D02*
X009667Y024838D01*
X009479Y024936D02*
X006576Y024936D01*
X006576Y025035D02*
X009290Y025035D01*
X009102Y025133D02*
X003414Y025133D01*
X003298Y025035D02*
X005017Y025035D01*
X005017Y024936D02*
X003181Y024936D01*
X003065Y024838D02*
X005017Y024838D01*
X005017Y024739D02*
X002949Y024739D01*
X003531Y025232D02*
X008913Y025232D01*
X008725Y025330D02*
X003647Y025330D01*
X003010Y023951D02*
X005017Y023951D01*
X005017Y023853D02*
X002912Y023853D01*
X002813Y023754D02*
X005017Y023754D01*
X005017Y023656D02*
X002715Y023656D01*
X002616Y023557D02*
X010038Y023557D01*
X010136Y023459D02*
X002518Y023459D01*
X002419Y023360D02*
X010235Y023360D01*
X010333Y023262D02*
X002357Y023262D01*
X002357Y023163D02*
X010432Y023163D01*
X010530Y023065D02*
X002357Y023065D01*
X002357Y022966D02*
X010629Y022966D01*
X010727Y022868D02*
X002357Y022868D01*
X002352Y022769D02*
X010826Y022769D01*
X010924Y022671D02*
X007406Y022671D01*
X007623Y022572D02*
X011023Y022572D01*
X010627Y022474D02*
X007721Y022474D01*
X007820Y022375D02*
X010627Y022375D01*
X010627Y022277D02*
X007891Y022277D01*
X006748Y022671D02*
X002312Y022671D01*
X002231Y022572D02*
X006531Y022572D01*
X006432Y022474D02*
X002738Y022474D01*
X002738Y022375D02*
X006334Y022375D01*
X006263Y022277D02*
X002738Y022277D01*
X002724Y022178D02*
X006222Y022178D01*
X006181Y022080D02*
X001077Y022080D01*
X001077Y022178D02*
X001191Y022178D01*
X001178Y022277D02*
X001077Y022277D01*
X001077Y022375D02*
X001178Y022375D01*
X001178Y022474D02*
X001077Y022474D01*
X001077Y022572D02*
X001723Y022572D01*
X001642Y022671D02*
X001077Y022671D01*
X001077Y022769D02*
X001601Y022769D01*
X001597Y022868D02*
X001077Y022868D01*
X001077Y022966D02*
X001597Y022966D01*
X001597Y023065D02*
X001077Y023065D01*
X001086Y023163D02*
X001597Y023163D01*
X001597Y023262D02*
X001202Y023262D01*
X001319Y023360D02*
X001597Y023360D01*
X001597Y023459D02*
X001435Y023459D01*
X001552Y023557D02*
X001608Y023557D01*
X001077Y021981D02*
X006140Y021981D01*
X006139Y021883D02*
X001077Y021883D01*
X001077Y021784D02*
X006139Y021784D01*
X006139Y021686D02*
X001077Y021686D01*
X001077Y021587D02*
X006147Y021587D01*
X006188Y021489D02*
X001077Y021489D01*
X001077Y021390D02*
X001178Y021390D01*
X001178Y021292D02*
X001077Y021292D01*
X001077Y021193D02*
X001178Y021193D01*
X001178Y021095D02*
X001077Y021095D01*
X001077Y020996D02*
X001624Y020996D01*
X001597Y020898D02*
X001077Y020898D01*
X001077Y020799D02*
X001597Y020799D01*
X001597Y020701D02*
X001077Y020701D01*
X001077Y020602D02*
X001597Y020602D01*
X001597Y020504D02*
X001077Y020504D01*
X001134Y020405D02*
X001597Y020405D01*
X001597Y020307D02*
X001245Y020307D01*
X001356Y020208D02*
X001597Y020208D01*
X001597Y020110D02*
X001468Y020110D01*
X001579Y020011D02*
X001625Y020011D01*
X002357Y020898D02*
X006787Y020898D01*
X006550Y020996D02*
X002330Y020996D01*
X002738Y021095D02*
X006449Y021095D01*
X006350Y021193D02*
X002738Y021193D01*
X002738Y021292D02*
X006270Y021292D01*
X006229Y021390D02*
X002738Y021390D01*
X002658Y020011D02*
X005091Y020011D01*
X005017Y019913D02*
X002757Y019913D01*
X002855Y019814D02*
X005017Y019814D01*
X005017Y019716D02*
X002954Y019716D01*
X002915Y018829D02*
X005017Y018829D01*
X005017Y018731D02*
X003027Y018731D01*
X003138Y018632D02*
X005017Y018632D01*
X005017Y018534D02*
X003249Y018534D01*
X003361Y018435D02*
X009149Y018435D01*
X009324Y018534D02*
X009351Y018534D01*
X009443Y018632D02*
X009552Y018632D01*
X009517Y018731D02*
X009754Y018731D01*
X008948Y018337D02*
X003472Y018337D01*
X003583Y018238D02*
X008746Y018238D01*
X008827Y018534D02*
X006576Y018534D01*
X006576Y018632D02*
X008716Y018632D01*
X008652Y018731D02*
X006576Y018731D01*
X006576Y018829D02*
X008604Y018829D01*
X008302Y019716D02*
X006576Y019716D01*
X006576Y019814D02*
X008336Y019814D01*
X008409Y019913D02*
X006576Y019913D01*
X006502Y020011D02*
X008527Y020011D01*
X010872Y019913D02*
X012171Y019913D01*
X012373Y020011D02*
X010970Y020011D01*
X011069Y020110D02*
X012574Y020110D01*
X012776Y020208D02*
X011167Y020208D01*
X011266Y020307D02*
X012977Y020307D01*
X013077Y020405D02*
X011364Y020405D01*
X011463Y020504D02*
X013077Y020504D01*
X013077Y020602D02*
X011561Y020602D01*
X011660Y020701D02*
X013077Y020701D01*
X013077Y020799D02*
X011723Y020799D01*
X011757Y020898D02*
X013077Y020898D01*
X013077Y020996D02*
X011757Y020996D01*
X012186Y021095D02*
X013077Y021095D01*
X013077Y021193D02*
X012186Y021193D01*
X013954Y020405D02*
X014253Y020405D01*
X014253Y020307D02*
X013954Y020307D01*
X013954Y020208D02*
X014253Y020208D01*
X014253Y020110D02*
X013954Y020110D01*
X013954Y020011D02*
X014253Y020011D01*
X014256Y019913D02*
X013954Y019913D01*
X015855Y022671D02*
X018569Y022671D01*
X018569Y022769D02*
X015954Y022769D01*
X016022Y022868D02*
X018569Y022868D01*
X018569Y022966D02*
X016059Y022966D01*
X016059Y023065D02*
X018569Y023065D01*
X018569Y023163D02*
X016036Y023163D01*
X015987Y023262D02*
X018197Y023262D01*
X018160Y023360D02*
X016459Y023360D01*
X016459Y023459D02*
X018160Y023459D01*
X018160Y023557D02*
X016459Y023557D01*
X016457Y023656D02*
X018212Y023656D01*
X018216Y024345D02*
X013954Y024345D01*
X013954Y024247D02*
X019894Y024247D01*
X019894Y024345D02*
X019663Y024345D01*
X019719Y024444D02*
X019894Y024444D01*
X019894Y024542D02*
X019719Y024542D01*
X019719Y024641D02*
X019894Y024641D01*
X019894Y024739D02*
X019685Y024739D01*
X019894Y024838D02*
X019311Y024838D01*
X019319Y024936D02*
X019894Y024936D01*
X019894Y025035D02*
X019308Y025035D01*
X019267Y025133D02*
X019894Y025133D01*
X019894Y025232D02*
X019177Y025232D01*
X019079Y025330D02*
X019894Y025330D01*
X019894Y025429D02*
X018980Y025429D01*
X018882Y025527D02*
X019894Y025527D01*
X019894Y024148D02*
X013954Y024148D01*
X013954Y024050D02*
X019894Y024050D01*
X019894Y023951D02*
X013954Y023951D01*
X013954Y023853D02*
X019894Y023853D01*
X018497Y024838D02*
X016053Y024838D01*
X016059Y024936D02*
X017969Y024936D01*
X017969Y025035D02*
X016046Y025035D01*
X016000Y025133D02*
X017969Y025133D01*
X017969Y025232D02*
X015904Y025232D01*
X015796Y025330D02*
X017969Y025330D01*
X017969Y025429D02*
X015689Y025429D01*
X015586Y025527D02*
X017970Y025527D01*
X018193Y024739D02*
X016459Y024739D01*
X016459Y024641D02*
X018160Y024641D01*
X018160Y024542D02*
X016459Y024542D01*
X016451Y024444D02*
X018160Y024444D01*
X015209Y024838D02*
X013954Y024838D01*
X013954Y024936D02*
X014832Y024936D01*
X014819Y025035D02*
X013954Y025035D01*
X013954Y025133D02*
X014819Y025133D01*
X014817Y025232D02*
X013954Y025232D01*
X013954Y025330D02*
X014819Y025330D01*
X014819Y025429D02*
X013954Y025429D01*
X013954Y025527D02*
X014819Y025527D01*
X014900Y024739D02*
X013954Y024739D01*
X013954Y024641D02*
X014900Y024641D01*
X014900Y024542D02*
X013954Y024542D01*
X013954Y024444D02*
X014907Y024444D01*
X019051Y019519D02*
X019052Y019519D01*
X009939Y023656D02*
X006576Y023656D01*
X006576Y023754D02*
X009841Y023754D01*
X009742Y023853D02*
X006576Y023853D01*
X006576Y023951D02*
X009644Y023951D01*
X006119Y023951D02*
X005474Y023951D01*
X005474Y023853D02*
X006119Y023853D01*
X006119Y023754D02*
X005474Y023754D01*
X005474Y023656D02*
X006119Y023656D01*
X006119Y024050D02*
X005474Y024050D01*
X005474Y024148D02*
X006119Y024148D01*
X006119Y024247D02*
X005474Y024247D01*
X005474Y024345D02*
X006119Y024345D01*
X006119Y024444D02*
X005474Y024444D01*
X005474Y024542D02*
X006119Y024542D01*
X006119Y024641D02*
X005474Y024641D01*
X005474Y024739D02*
X006119Y024739D01*
X006119Y024838D02*
X005474Y024838D01*
X005474Y024936D02*
X006119Y024936D01*
X006119Y025035D02*
X005474Y025035D01*
X005399Y020011D02*
X006194Y020011D01*
X006119Y019913D02*
X005474Y019913D01*
X005474Y019814D02*
X006119Y019814D01*
X006119Y019716D02*
X005474Y019716D01*
X005474Y019617D02*
X006119Y019617D01*
X006119Y019519D02*
X005474Y019519D01*
X005474Y019420D02*
X006119Y019420D01*
X006119Y019322D02*
X005474Y019322D01*
X005474Y019223D02*
X006119Y019223D01*
X006119Y019125D02*
X005474Y019125D01*
X005474Y019026D02*
X006119Y019026D01*
X006119Y018928D02*
X005474Y018928D01*
X005474Y018829D02*
X006119Y018829D01*
X006119Y018731D02*
X005474Y018731D01*
X005474Y018632D02*
X006119Y018632D01*
X006119Y018534D02*
X005474Y018534D01*
X005017Y018928D02*
X004979Y018928D01*
X005017Y019617D02*
X004896Y019617D01*
D34*
X004517Y018446D03*
X003777Y020255D03*
X005177Y021755D03*
X003677Y023255D03*
X004517Y025139D03*
X007076Y025139D03*
X008177Y023355D03*
X008845Y021755D03*
X008077Y020255D03*
X007076Y018446D03*
X007115Y013840D03*
X008216Y012056D03*
X008885Y010456D03*
X008116Y008956D03*
X007115Y007147D03*
X004556Y007147D03*
X003816Y008956D03*
X005216Y010456D03*
X003716Y011956D03*
X004556Y013840D03*
X001308Y011674D03*
X001308Y009312D03*
X001269Y020611D03*
X001269Y022974D03*
X012785Y022974D03*
X012785Y020611D03*
X015349Y020892D03*
X016139Y018932D03*
X015809Y017232D03*
X018209Y017872D03*
X017999Y022032D03*
X016779Y023992D03*
X019549Y012972D03*
X019549Y011347D03*
X019549Y009722D03*
X016819Y010282D03*
X014299Y010252D03*
X012824Y009312D03*
X012824Y011674D03*
D35*
X000840Y008628D02*
X000840Y006580D01*
X003229Y006580D01*
X000840Y008628D01*
X000974Y008513D02*
X000974Y006580D01*
X000840Y006714D02*
X003073Y006714D01*
X002942Y006826D02*
X002942Y006580D01*
X002549Y006580D02*
X002549Y007164D01*
X002614Y007107D02*
X000840Y007107D01*
X000840Y007501D02*
X002155Y007501D01*
X002155Y006580D01*
X001761Y006580D02*
X001761Y007839D01*
X001695Y007895D02*
X000840Y007895D01*
X000840Y008289D02*
X001236Y008289D01*
X001367Y008176D02*
X001367Y006580D01*
X000840Y012517D02*
X002896Y014300D01*
X001112Y014300D01*
X001091Y014303D01*
X001070Y014309D01*
X001051Y014317D01*
X001033Y014327D01*
X001016Y014340D01*
X001001Y014355D01*
X000989Y014371D01*
X000978Y014390D01*
X000970Y014409D01*
X000965Y014429D01*
X000962Y014450D01*
X000962Y017554D01*
X000965Y017575D01*
X000970Y017595D01*
X000978Y017615D01*
X000989Y017633D01*
X001001Y017649D01*
X001016Y017664D01*
X001033Y017677D01*
X001051Y017688D01*
X001070Y017696D01*
X001091Y017701D01*
X001112Y017704D01*
X003193Y017704D01*
X002155Y018564D01*
X002155Y017704D01*
X001761Y017704D02*
X001761Y018946D01*
X001789Y018918D02*
X000846Y018918D01*
X000850Y019312D02*
X001383Y019312D01*
X001367Y019328D02*
X001367Y017704D01*
X000974Y017604D02*
X000974Y019709D01*
X000977Y019706D02*
X000854Y019706D01*
X000856Y019824D02*
X002155Y018564D01*
X002202Y018525D02*
X000842Y018525D01*
X000840Y018366D02*
X000856Y019824D01*
X000840Y018366D02*
X000840Y012517D01*
X000840Y012619D02*
X000958Y012619D01*
X000974Y012633D02*
X000974Y014400D01*
X000962Y014588D02*
X000840Y014588D01*
X000840Y014194D02*
X002773Y014194D01*
X002549Y014300D02*
X002549Y013999D01*
X002320Y013800D02*
X000840Y013800D01*
X000840Y013407D02*
X001866Y013407D01*
X001761Y013316D02*
X001761Y014300D01*
X002155Y014300D02*
X002155Y013657D01*
X001412Y013013D02*
X000840Y013013D01*
X001367Y012974D02*
X001367Y014300D01*
X000962Y014981D02*
X000840Y014981D01*
X000840Y015375D02*
X000962Y015375D01*
X000962Y015769D02*
X000840Y015769D01*
X000840Y016163D02*
X000962Y016163D01*
X000962Y016556D02*
X000840Y016556D01*
X000840Y016950D02*
X000962Y016950D01*
X000962Y017344D02*
X000840Y017344D01*
X000840Y017737D02*
X003153Y017737D01*
X002942Y017704D02*
X002942Y017912D01*
X002677Y018131D02*
X000840Y018131D01*
X002549Y018238D02*
X002549Y017704D01*
X007596Y017392D02*
X007596Y014785D01*
X008887Y014785D01*
X013415Y012540D01*
X013375Y019785D01*
X008730Y017383D01*
X007596Y017392D01*
X007596Y017344D02*
X013389Y017344D01*
X013386Y017737D02*
X009415Y017737D01*
X009241Y017648D02*
X009241Y014609D01*
X009284Y014588D02*
X013404Y014588D01*
X013406Y014194D02*
X010079Y014194D01*
X010029Y014219D02*
X010029Y018055D01*
X010177Y018131D02*
X013384Y018131D01*
X013382Y018525D02*
X010938Y018525D01*
X010816Y018462D02*
X010816Y013828D01*
X010873Y013800D02*
X013408Y013800D01*
X013410Y013407D02*
X011667Y013407D01*
X011604Y013438D02*
X011604Y018869D01*
X011700Y018918D02*
X013380Y018918D01*
X013378Y019312D02*
X012461Y019312D01*
X012391Y019276D02*
X012391Y013048D01*
X012461Y013013D02*
X013412Y013013D01*
X013414Y012619D02*
X013256Y012619D01*
X013178Y012658D02*
X013178Y019683D01*
X013223Y019706D02*
X013376Y019706D01*
X012785Y019479D02*
X012785Y012853D01*
X011997Y013243D02*
X011997Y019072D01*
X011210Y018665D02*
X011210Y013633D01*
X010423Y014024D02*
X010423Y018258D01*
X009635Y017851D02*
X009635Y014414D01*
X008848Y014785D02*
X008848Y017444D01*
X008454Y017385D02*
X008454Y014785D01*
X008060Y014785D02*
X008060Y017388D01*
X007667Y017391D02*
X007667Y014785D01*
X007596Y014981D02*
X013401Y014981D01*
X013399Y015375D02*
X007596Y015375D01*
X007596Y015769D02*
X013397Y015769D01*
X013395Y016163D02*
X007596Y016163D01*
X007596Y016556D02*
X013393Y016556D01*
X013391Y016950D02*
X007596Y016950D01*
X013572Y023564D02*
X013572Y025745D01*
X009132Y025745D01*
X013572Y023564D01*
X013572Y023643D02*
X013412Y023643D01*
X013178Y023757D02*
X013178Y025745D01*
X012785Y025745D02*
X012785Y023951D01*
X012610Y024037D02*
X013572Y024037D01*
X013572Y024430D02*
X011809Y024430D01*
X011997Y024338D02*
X011997Y025745D01*
X011604Y025745D02*
X011604Y024531D01*
X011210Y024724D02*
X011210Y025745D01*
X010816Y025745D02*
X010816Y024918D01*
X011007Y024824D02*
X013572Y024824D01*
X013572Y025218D02*
X010206Y025218D01*
X010029Y025305D02*
X010029Y025745D01*
X010423Y025745D02*
X010423Y025111D01*
X009635Y025498D02*
X009635Y025745D01*
X009405Y025611D02*
X013572Y025611D01*
X012391Y025745D02*
X012391Y024144D01*
X014779Y022712D02*
X014789Y022722D01*
X015349Y022722D01*
X015849Y022222D01*
X015849Y020042D01*
X016349Y020042D02*
X016349Y020867D01*
X016355Y020872D01*
X016355Y021692D01*
X017019Y020868D02*
X017024Y020872D01*
X017019Y020868D02*
X017019Y020522D01*
X016849Y020352D01*
X016849Y020042D01*
X017229Y020042D01*
X016849Y020042D02*
X016839Y020032D01*
X016839Y019542D01*
X016719Y019422D01*
X015169Y019422D01*
X015009Y019582D01*
X015009Y019962D01*
X014805Y020167D01*
X014599Y020167D01*
X014599Y019498D02*
X014574Y019472D01*
X014369Y019472D01*
X014239Y019332D01*
X014239Y017582D01*
X014435Y017397D01*
X014435Y017322D01*
X014435Y016492D01*
X014919Y015797D02*
X015549Y015797D01*
X016379Y015797D01*
X016389Y015807D01*
X016389Y016602D01*
X016319Y016602D01*
X016389Y016612D01*
X016319Y016972D02*
X015839Y016812D01*
X015809Y017232D02*
X015919Y017342D01*
X016319Y017342D01*
X016429Y017662D02*
X016369Y017722D01*
X016369Y018162D01*
X016349Y018182D01*
X015849Y018182D01*
X015829Y018162D01*
X015829Y017772D01*
X015459Y017362D01*
X015459Y016992D01*
X015104Y016597D01*
X015104Y016492D01*
X014919Y015797D02*
X014919Y015792D01*
X015549Y015128D02*
X015505Y015083D01*
X015505Y014462D01*
X016174Y014462D02*
X016174Y013938D01*
X016839Y013272D01*
X018729Y013272D01*
X018819Y013182D01*
X018819Y011337D01*
X018804Y011322D01*
X019549Y012972D02*
X019519Y013002D01*
X019519Y013602D01*
X019379Y013742D01*
X018009Y013742D01*
X017909Y013842D01*
X017709Y013622D01*
X017349Y013622D01*
X017109Y013862D01*
X017109Y014092D01*
X017849Y014092D02*
X017849Y013902D01*
X017909Y013842D01*
X018619Y014907D02*
X018514Y015012D01*
X017849Y015012D01*
X017499Y015212D02*
X017499Y015704D01*
X017618Y015822D01*
X017618Y015851D01*
X018129Y016362D01*
X018129Y016727D01*
X018135Y016732D01*
X017875Y016972D01*
X017339Y016972D01*
X017099Y016972D01*
X016939Y017122D01*
X016939Y017612D01*
X016859Y017702D01*
X016859Y018172D01*
X016849Y018182D01*
X016869Y018202D01*
X016869Y018692D01*
X016974Y018797D01*
X017569Y018797D01*
X018149Y018962D02*
X018149Y019803D01*
X017706Y020266D01*
X018159Y020655D02*
X018655Y020655D01*
X018659Y020651D01*
X018659Y020212D01*
X018512Y020065D01*
X018572Y019892D01*
X018509Y019829D01*
X018509Y019592D01*
X018735Y019367D01*
X018725Y019262D01*
X018149Y018962D02*
X018535Y018547D01*
X018639Y018547D01*
X018639Y017878D02*
X018225Y017878D01*
X018209Y017862D01*
X018639Y017878D02*
X018634Y017448D01*
X018469Y017332D01*
X017839Y017342D02*
X017339Y017342D01*
X016719Y017512D02*
X016719Y016922D01*
X017039Y016602D01*
X016949Y016512D01*
X016949Y016092D01*
X017039Y016602D02*
X017339Y016602D01*
X016719Y017512D02*
X016569Y017662D01*
X016429Y017662D01*
X015349Y017612D02*
X015349Y018182D01*
X015345Y018178D01*
X014609Y018178D01*
X015334Y018167D02*
X015349Y018182D01*
X015349Y017612D02*
X015104Y017367D01*
X015104Y017322D01*
X017109Y015012D02*
X017299Y015012D01*
X017499Y015212D01*
X018619Y014907D02*
X018734Y014962D01*
X018159Y020655D02*
X018159Y020682D01*
X009241Y025691D02*
X009241Y025745D01*
X003236Y025745D02*
X000840Y023691D01*
X000840Y025745D01*
X003236Y025745D01*
X003080Y025611D02*
X000840Y025611D01*
X000974Y025745D02*
X000974Y023806D01*
X000840Y024037D02*
X001243Y024037D01*
X001367Y024143D02*
X001367Y025745D01*
X001761Y025745D02*
X001761Y024481D01*
X001702Y024430D02*
X000840Y024430D01*
X000840Y024824D02*
X002161Y024824D01*
X002155Y024818D02*
X002155Y025745D01*
X002549Y025745D02*
X002549Y025156D01*
X002621Y025218D02*
X000840Y025218D01*
X002942Y025493D02*
X002942Y025745D01*
X009252Y006580D02*
X014163Y008918D01*
X020005Y008918D01*
X020005Y006596D01*
X015741Y006580D01*
X009252Y006580D01*
X009533Y006714D02*
X020005Y006714D01*
X019871Y006595D02*
X019871Y008918D01*
X020005Y008682D02*
X013667Y008682D01*
X013572Y008637D02*
X013572Y006580D01*
X013966Y006580D02*
X013966Y008825D01*
X014360Y008918D02*
X014360Y006580D01*
X014753Y006580D02*
X014753Y008918D01*
X015147Y008918D02*
X015147Y006580D01*
X015541Y006580D02*
X015541Y008918D01*
X015934Y008918D02*
X015934Y006581D01*
X016328Y006582D02*
X016328Y008918D01*
X016722Y008918D02*
X016722Y006584D01*
X017115Y006585D02*
X017115Y008918D01*
X017509Y008918D02*
X017509Y006586D01*
X017903Y006588D02*
X017903Y008918D01*
X018297Y008918D02*
X018297Y006589D01*
X018690Y006591D02*
X018690Y008918D01*
X019084Y008918D02*
X019084Y006592D01*
X019478Y006594D02*
X019478Y008918D01*
X020005Y008289D02*
X012840Y008289D01*
X012785Y008262D02*
X012785Y006580D01*
X012391Y006580D02*
X012391Y008075D01*
X012013Y007895D02*
X020005Y007895D01*
X020005Y007501D02*
X011186Y007501D01*
X011210Y007512D02*
X011210Y006580D01*
X011604Y006580D02*
X011604Y007700D01*
X011997Y007887D02*
X011997Y006580D01*
X010816Y006580D02*
X010816Y007325D01*
X010423Y007137D02*
X010423Y006580D01*
X010029Y006580D02*
X010029Y006950D01*
X010360Y007107D02*
X020005Y007107D01*
X013178Y006580D02*
X013178Y008450D01*
X009635Y006762D02*
X009635Y006580D01*
D36*
X015199Y025252D03*
X018349Y025222D03*
M02*
