%
M48
M72
T01C0.0236
T02C0.0472
T03C0.0625
T04C0.1575
%
T01
X7115Y7147
X8116Y8956
X8885Y10456
X8216Y12056
X7115Y13840
X12824Y11674
X12824Y9312
X19549Y9722
X19549Y11347
X19549Y12972
X16819Y10282
X14299Y10252
X5216Y10456
X3716Y11956
X4556Y13840
X1308Y11674
X1308Y9312
X3816Y8956
X4556Y7147
X4517Y18446
X3777Y20255
X5177Y21755
X3677Y23255
X4517Y25139
X7076Y25139
X8177Y23355
X8077Y20255
X8845Y21755
X7076Y18446
X1269Y20611
X1269Y22974
X12785Y22974
X12785Y20611
X15349Y20892
X16139Y18932
X15809Y17232
X18209Y17872
X17999Y22032
X16779Y23992
X15199Y25252
X18349Y25222
T02
X8966Y7974
X9865Y8412
X8927Y19273
X9825Y19712
T03
X12627Y10493
X12588Y21792
T04
X7116Y10493
X7077Y21792
M30
